<svg width="141" height="141" viewBox="0 0 141 141" fill="none" xmlns="http://www.w3.org/2000/svg">
<path d="M93.6437 3.91959C90.8724 2.94092 88.0131 2.1433 85.1073 1.53407C81.8786 0.844107 78.579 0.386576 75.2085 0.151695C73.6308 0.0440404 72.0263 0 70.4193 0C68.8123 0 67.2004 0.0440404 65.6301 0.151695C62.2595 0.38413 58.9502 0.84166 55.7215 1.53407C52.8157 2.1433 49.9735 2.94336 47.2022 3.91959C19.7096 13.5082 0 39.673 0 70.4279C0 101.183 19.7365 127.394 47.2364 136.963C54.4985 139.493 62.2913 140.866 70.4168 140.866C78.5423 140.866 86.3229 139.493 93.5874 136.963C121.09 127.392 140.834 101.21 140.834 70.4279C140.834 39.6461 121.117 13.5082 93.6413 3.91959M93.6437 25.0687V7.98354C101.561 11.7416 106.539 19.8231 106.539 28.5871V41.0994C105.93 49.2616 102.664 57.4409 96.9629 63.3447C95.8867 64.4384 94.7395 65.4807 93.5923 66.4838C93.5923 66.4838 93.6461 25.7979 93.6461 25.0712M70.1869 2.66444H70.6443C78.6695 2.70848 85.1073 9.28273 85.1073 17.303L85.0633 69.5691C85.0535 72.072 84.0849 74.4674 82.3654 76.2779C78.9043 79.9014 73.0389 86.4145 70.4217 91.3568C67.7948 86.4145 61.9293 79.9039 58.4683 76.2779C56.7464 74.4649 55.7777 72.072 55.7704 69.5691L55.7264 17.303C55.7264 9.28518 62.1739 2.70848 70.1894 2.66444M34.2924 28.5846C34.2924 19.8206 39.2699 11.7392 47.2046 7.98109V25.0687C47.2046 25.7954 47.2413 66.4814 47.2413 66.4814C46.0942 65.4758 44.9544 64.4359 43.8781 63.3423C38.1668 57.4409 34.921 49.2591 34.2924 41.097V28.5846ZM25.7658 115.447C16.2339 103.311 10.4858 87.2562 10.6399 69.711H10.6497C12.6407 73.819 16.2803 77.1196 18.988 80.6012C23.0239 85.4799 25.2301 90.8626 25.7658 96.9793V115.447ZM106.539 101.051V112.281C106.539 120.998 101.625 129.036 93.7709 132.821C93.7 132.838 93.6461 132.884 93.5923 132.902V79.2824C92.9466 79.8917 92.318 80.5033 91.6992 81.1028L91.6453 81.1468C89.0551 83.5862 86.8659 86.0451 85.0559 88.5554V123.572C85.0559 131.583 78.6181 138.174 70.6101 138.201H70.2236C62.2155 138.174 55.7778 131.583 55.7778 123.572V88.5554C53.9653 86.0451 51.7786 83.5862 49.1883 81.1468L49.1345 81.1028C48.5157 80.5009 47.8871 79.8917 47.2413 79.2824V132.902C47.1973 132.884 47.1337 132.838 47.0701 132.821C39.2161 129.036 34.2924 120.998 34.2924 112.281V101.051C33.7812 94.5131 31.8978 87.7039 28.0699 82.26C27.3605 81.2104 26.5901 80.2244 25.7658 79.2824C22.7719 75.8375 19.1837 72.9944 16.0822 69.7306C12.5576 66.107 11.1512 60.7072 12.0562 55.7747C12.0562 55.7208 12.0562 55.6768 12.0733 55.6401C14.3334 44.2214 19.1299 33.8719 25.7658 25.4309V74.4404C26.6268 75.2919 27.4706 76.1727 28.2753 77.1049C29.217 78.1814 30.0511 79.258 30.8045 80.3883C32.2402 82.424 33.3874 84.5771 34.2924 86.7204V58.7719C34.8745 60.0001 35.5203 61.2112 36.2394 62.3954C39.0645 67.1224 43.1982 71.0053 47.2413 74.7561C48.6845 76.0919 50.1007 77.4107 51.4557 78.7393C52.9991 80.1828 54.4423 81.6802 55.7778 83.224C60.9877 89.2698 64.5294 96.1401 65.5787 104.427C65.9725 107.226 66.1266 110.096 66.0801 112.983L66.0532 125.307C66.0532 126.249 66.3223 127.12 66.7895 127.854C68.4405 130.455 72.403 130.455 74.0442 127.854C74.5114 127.118 74.7804 126.249 74.7804 125.307L74.7535 112.983C74.7095 110.096 74.8612 107.224 75.2647 104.427C76.3043 96.1401 79.846 89.2698 85.0559 83.224C86.4012 81.6802 87.8345 80.1828 89.3779 78.7393C90.733 77.4107 92.1566 76.0944 93.5923 74.7561C97.6355 71.0077 101.769 67.1224 104.604 62.3954C105.313 61.2112 105.959 60.0001 106.541 58.7719V86.7204C107.456 84.5771 108.596 82.424 110.039 80.3883C110.783 79.258 111.617 78.1814 112.568 77.1049C113.385 76.1727 114.219 75.2919 115.07 74.4404V25.4284C121.696 33.8695 126.503 44.219 128.763 55.6376C128.78 55.6744 128.78 55.7184 128.78 55.7722C129.678 60.7047 128.279 66.1046 124.764 69.7281C121.652 72.992 118.067 75.8375 115.07 79.28C114.246 80.222 113.473 81.208 112.766 82.2576C108.938 87.7015 107.055 94.5106 106.544 101.048M115.065 115.447V96.9793C115.594 90.8626 117.81 85.4799 121.843 80.6012C124.551 77.122 128.2 73.8214 130.181 69.711H130.191C130.353 87.2562 124.595 103.311 115.065 115.447Z" fill="#C1A880"/>
</svg>
