<svg width="116" height="108" viewBox="0 0 116 108" fill="none" xmlns="http://www.w3.org/2000/svg">
<g clip-path="url(#clip0_51_42)">
<path d="M34.8014 75.4109L34.7945 75.397L31.9575 70.471L9.48876 31.4219H3.82166L29.1274 75.397L29.1205 75.4109H29.1343H34.7876H34.8014Z" fill="url(#paint0_linear_51_42)"/>
<path d="M57.4698 75.4109L57.4629 75.397L54.6259 70.471L51.7958 65.5519L48.9588 60.6258L46.1287 55.6998L43.2917 50.7737L32.1572 31.4219H26.4901L40.4616 55.6998L43.2917 60.6258L46.1287 65.5519L48.9588 70.471L51.7958 75.397L51.7889 75.4109H51.8027H57.456H57.4698Z" fill="url(#paint1_linear_51_42)"/>
<path d="M65.9601 70.471L63.13 65.5519L60.293 60.6258L57.4629 55.6998L54.6259 50.7737L51.7958 45.8546L48.9588 40.9285L43.4914 31.4219H37.8243L46.1287 45.8477L51.7958 55.6998L54.6259 60.6258L57.4629 65.5519L60.293 70.471L63.13 75.397L63.1231 75.4109H63.1369H68.7902H68.804L68.7971 75.397L65.9601 70.471Z" fill="url(#paint2_linear_51_42)"/>
<path d="M78.1826 0H72.5086L51.8234 35.9539L54.6604 40.8731L78.1826 0Z" fill="url(#paint3_linear_51_42)"/>
<path d="M40.4685 75.4109H46.1218H46.1356L46.1287 75.397L43.2917 70.471L40.4616 65.5519L37.6246 60.6258L20.823 31.4219H15.1559L34.7945 65.545L37.6246 70.471L40.4616 75.397L40.4547 75.4109H40.4685Z" fill="url(#paint4_linear_51_42)"/>
<path d="M60.3274 50.7252L89.5168 0H83.8497L57.4904 45.7991L57.5248 45.8544L60.3274 50.7252Z" fill="url(#paint5_linear_51_42)"/>
<path d="M65.9945 60.5704L100.851 0H95.1839L63.1575 55.6443L63.192 55.6996L65.9945 60.5704Z" fill="url(#paint6_linear_51_42)"/>
<path d="M112.185 0H106.518L68.8246 65.4964L68.8591 65.5517L71.6616 70.4225L112.185 0Z" fill="url(#paint7_linear_51_42)"/>
<path d="M7.44364 95.9717C6.88588 96.4899 6.12154 96.8077 5.29523 96.8077C3.53933 96.8077 2.12083 95.3983 2.12083 93.6365C2.12083 91.8748 3.53933 90.4653 5.29523 90.4653C6.11466 90.4653 6.88588 90.7901 7.44364 91.3151L8.93788 89.8021C7.98762 88.8901 6.70685 88.3374 5.30212 88.3374C2.38938 88.3374 0.0206299 90.7141 0.0206299 93.6365C0.0206299 96.559 2.38938 98.9357 5.30212 98.9357C6.70685 98.9357 7.99451 98.376 8.93788 97.471L7.44364 95.9717Z" fill="url(#paint8_linear_51_42)"/>
<path d="M22.8543 88.3374C19.9416 88.3374 17.5728 90.7141 17.5728 93.6365C17.5728 96.559 19.9416 98.9357 22.8543 98.9357C25.767 98.9357 28.1358 96.559 28.1358 93.6365C28.1358 90.7141 25.767 88.3374 22.8543 88.3374ZM22.8543 96.8215C21.0984 96.8215 19.6799 95.3983 19.6799 93.6365C19.6799 91.8748 21.0984 90.4653 22.8543 90.4653C24.6102 90.4653 26.0149 91.8886 26.0149 93.6365C26.0149 95.3845 24.5964 96.8215 22.8543 96.8215Z" fill="url(#paint9_linear_51_42)"/>
<path d="M42.8372 96.0823L39.7385 88.3374H37.4731V98.9357H39.5733V93.6365L41.6941 98.9357H43.9665L46.0805 93.6365V98.9357H48.1876V88.3374H45.9152L42.8372 96.0823Z" fill="url(#paint10_linear_51_42)"/>
<path d="M60.4721 88.3374H57.518V98.9357H59.6251V94.7005H60.4858C62.228 94.7005 63.6327 93.2773 63.6327 91.5293C63.6327 89.7814 62.228 88.3443 60.4721 88.3443V88.3374ZM60.4721 92.5726H59.6251V90.4584H60.4721C61.0574 90.4584 61.5325 90.9352 61.5325 91.5224C61.5325 92.1097 61.0574 92.5726 60.4721 92.5726Z" fill="url(#paint11_linear_51_42)"/>
<path d="M75.3938 88.3374L71.579 98.9357H73.8238L74.898 95.9717H78.1413L79.2155 98.9357H81.4603L77.6455 88.3374H75.4007H75.3938ZM75.6623 93.8438L76.5093 91.4533L77.37 93.8438H75.6554H75.6623Z" fill="url(#paint12_linear_51_42)"/>
<path d="M99.3086 88.3374H97.2015V95.4121L92.9804 88.3374H90.5153V98.9357H92.6155V91.8748L96.8572 98.9357H99.3086V88.3374Z" fill="url(#paint13_linear_51_42)"/>
<path d="M113.225 98.9357V93.8853L115.986 88.3374H113.631L112.178 91.2737L110.719 88.3374H108.364L111.125 93.8853V98.9357H113.225Z" fill="url(#paint14_linear_51_42)"/>
<path d="M0 104.083H1.22569V107.965H1.9074V104.083H3.13309V103.475H0V104.083Z" fill="url(#paint15_linear_51_42)"/>
<path d="M8.07716 103.475L6.45209 107.965H7.16822L7.51252 106.964H9.20645L9.55075 107.965H10.2669L8.64181 103.475H8.07716ZM7.70532 106.356L8.3526 104.393H8.36637L9.01364 106.356H7.70532Z" fill="url(#paint16_linear_51_42)"/>
<path d="M15.8583 106.135H16.7672V106.369C16.7672 106.653 16.6777 106.881 16.5055 107.053C16.3334 107.233 16.113 107.323 15.8514 107.323C15.693 107.323 15.5553 107.288 15.4382 107.219C15.3211 107.164 15.2247 107.088 15.1559 106.991C15.0664 106.895 15.0113 106.77 14.9837 106.611C14.9493 106.452 14.9355 106.155 14.9355 105.713C14.9355 105.271 14.9493 104.974 14.9837 104.808C15.0113 104.656 15.0733 104.532 15.1559 104.435C15.2247 104.345 15.3211 104.262 15.4382 104.207C15.5553 104.145 15.693 104.117 15.8514 104.11C16.0717 104.11 16.2507 104.179 16.4022 104.297C16.5468 104.421 16.6501 104.58 16.7052 104.76H17.4214C17.3525 104.387 17.1803 104.069 16.9049 103.813C16.6295 103.558 16.2783 103.433 15.8514 103.426C15.5002 103.426 15.2041 103.516 14.97 103.682C14.729 103.841 14.5568 104.027 14.4466 104.235C14.3778 104.345 14.3296 104.483 14.2951 104.663C14.2676 104.843 14.2469 105.188 14.2469 105.713C14.2469 106.238 14.2607 106.577 14.2951 106.756C14.3089 106.853 14.3296 106.936 14.3571 106.998C14.3847 107.06 14.4122 107.123 14.4466 107.192C14.5568 107.399 14.729 107.579 14.97 107.737C15.2041 107.903 15.5002 107.986 15.8514 107.993C16.3058 107.986 16.6846 107.827 16.9875 107.53C17.2836 107.226 17.442 106.846 17.4489 106.397V105.485H15.8583V106.128V106.135Z" fill="url(#paint17_linear_51_42)"/>
<path d="M22.689 103.475H22.0142V107.965H24.8719V107.316H22.689V103.475Z" fill="url(#paint18_linear_51_42)"/>
<path d="M29.9606 103.475H29.2789V107.965H29.9606V103.475Z" fill="url(#paint19_linear_51_42)"/>
<path d="M37.3492 106.667H37.3354L35.3109 103.475H34.6705V107.965H35.3522V104.773H35.366L37.3836 107.965H38.024V103.475H37.3492V106.667Z" fill="url(#paint20_linear_51_42)"/>
<path d="M42.7477 107.965H45.5985V107.316H43.4226V106.003H45.2818V105.395H43.4226V104.117H45.5985V103.475H42.7477V107.965Z" fill="url(#paint21_linear_51_42)"/>
<path d="M56.7399 106.135H57.6488V106.369C57.6488 106.653 57.5593 106.881 57.3872 107.053C57.215 107.233 56.9947 107.323 56.733 107.323C56.5746 107.323 56.4369 107.288 56.3199 107.219C56.2028 107.164 56.1064 107.088 56.0375 106.991C55.948 106.895 55.8929 106.77 55.8654 106.611C55.831 106.452 55.8172 106.155 55.8172 105.713C55.8172 105.271 55.831 104.974 55.8654 104.808C55.8929 104.656 55.9549 104.532 56.0375 104.435C56.1064 104.345 56.2028 104.262 56.3199 104.207C56.4369 104.145 56.5746 104.117 56.733 104.11C56.9465 104.11 57.1324 104.179 57.2839 104.297C57.4285 104.421 57.5318 104.58 57.5869 104.76H58.303C58.2341 104.387 58.062 104.069 57.7866 103.813C57.5111 103.558 57.1599 103.433 56.733 103.426C56.3818 103.426 56.0857 103.516 55.8516 103.682C55.6106 103.841 55.4385 104.027 55.3283 104.235C55.2594 104.345 55.2112 104.483 55.1768 104.663C55.1493 104.843 55.1286 105.188 55.1286 105.713C55.1286 106.238 55.1424 106.577 55.1768 106.756C55.1906 106.853 55.2112 106.936 55.2388 106.998C55.2663 107.06 55.2939 107.123 55.3283 107.192C55.4385 107.399 55.6106 107.579 55.8516 107.737C56.0857 107.903 56.3818 107.986 56.733 107.993C57.1875 107.986 57.5662 107.827 57.8692 107.53C58.1653 107.226 58.3237 106.846 58.3305 106.397V105.485H56.7399V106.128V106.135Z" fill="url(#paint22_linear_51_42)"/>
<path d="M65.7397 104.241C65.6365 104.034 65.4643 103.848 65.2302 103.689C64.9961 103.523 64.6931 103.44 64.3419 103.433C63.9907 103.433 63.6946 103.523 63.4605 103.689C63.2195 103.848 63.0474 104.034 62.9372 104.241C62.8683 104.352 62.8201 104.49 62.7857 104.67C62.7581 104.849 62.7375 105.195 62.7375 105.72C62.7375 106.245 62.7513 106.584 62.7857 106.763C62.7995 106.86 62.8201 106.943 62.8477 107.005C62.8752 107.067 62.9028 107.129 62.9372 107.198C63.0474 107.406 63.2195 107.585 63.4605 107.744C63.6946 107.91 63.9907 107.993 64.3419 108C64.7 107.993 64.9961 107.903 65.2302 107.744C65.4643 107.585 65.6365 107.406 65.7397 107.198C65.8155 107.088 65.8706 106.943 65.8981 106.763C65.9257 106.584 65.9394 106.238 65.9394 105.72C65.9394 105.202 65.9257 104.849 65.8981 104.67C65.8706 104.49 65.8155 104.352 65.7397 104.241ZM65.2164 106.611C65.182 106.77 65.12 106.894 65.0374 106.991C64.9685 107.081 64.879 107.157 64.7688 107.219C64.6518 107.288 64.5072 107.323 64.3488 107.323C64.1904 107.323 64.0527 107.288 63.9356 107.219C63.8186 107.164 63.7222 107.088 63.6533 106.991C63.5638 106.894 63.5087 106.77 63.4812 106.611C63.4467 106.452 63.433 106.155 63.433 105.713C63.433 105.271 63.4467 104.974 63.4812 104.808C63.5087 104.656 63.5707 104.532 63.6533 104.435C63.7222 104.345 63.8186 104.262 63.9356 104.207C64.0527 104.145 64.1904 104.117 64.3488 104.11C64.5072 104.11 64.6518 104.145 64.7688 104.207C64.879 104.269 64.9685 104.345 65.0374 104.435C65.1269 104.532 65.1889 104.656 65.2164 104.808C65.244 104.967 65.2646 105.271 65.2646 105.713C65.2646 106.155 65.2508 106.452 65.2164 106.611Z" fill="url(#paint23_linear_51_42)"/>
<path d="M70.5048 107.965H73.3625V107.316H71.1796V106.003H73.0388V105.395H71.1796V104.117H73.3625V103.475H70.5048V107.965Z" fill="url(#paint24_linear_51_42)"/>
<path d="M79.4359 105.402C79.2224 105.374 79.0571 105.354 78.9332 105.333C78.7128 105.292 78.5545 105.216 78.4512 105.112C78.3479 105.008 78.2997 104.891 78.2997 104.76C78.2997 104.545 78.3754 104.38 78.5269 104.276C78.6646 104.172 78.8368 104.117 79.0502 104.117C79.4565 104.124 79.8215 104.241 80.1589 104.462L80.5376 103.903C80.1244 103.606 79.6424 103.447 79.0847 103.44C78.6233 103.44 78.2652 103.564 78.0105 103.806C77.7488 104.048 77.618 104.366 77.618 104.753C77.618 105.077 77.7213 105.354 77.9278 105.582C78.1275 105.803 78.4236 105.948 78.8092 106.01C79.0227 106.038 79.2224 106.065 79.4014 106.093C79.7939 106.162 79.9867 106.362 79.9867 106.694C79.9798 107.102 79.6837 107.309 79.1053 107.316C78.6164 107.316 78.1895 107.164 77.8314 106.867L77.3839 107.378C77.859 107.786 78.4305 107.993 79.0916 107.993C80.1176 107.979 80.6409 107.544 80.6615 106.687C80.6615 106.369 80.5651 106.093 80.3654 105.851C80.1658 105.609 79.8559 105.457 79.4359 105.395V105.402Z" fill="url(#paint25_linear_51_42)"/>
<path d="M92.8771 105.395H91.1074V103.475H90.4257V107.965H91.1074V106.003H92.8771V107.965H93.5519V103.475H92.8771V105.395Z" fill="url(#paint26_linear_51_42)"/>
<path d="M98.2688 107.965H101.126V107.316H98.9505V106.003H100.81V105.395H98.9505V104.117H101.126V103.475H98.2688V107.965Z" fill="url(#paint27_linear_51_42)"/>
<path d="M108.646 104.725C108.632 104.311 108.487 103.993 108.198 103.765C107.964 103.571 107.661 103.468 107.289 103.468H105.54V107.959H106.222V106.038H107.09L108.012 107.959H108.818L107.778 105.969C108.35 105.748 108.632 105.333 108.646 104.725ZM106.215 105.444V104.083H107.276C107.489 104.083 107.661 104.131 107.771 104.221C107.916 104.324 107.992 104.497 107.999 104.732C107.999 104.926 107.937 105.091 107.813 105.223C107.689 105.368 107.496 105.437 107.241 105.444H106.215Z" fill="url(#paint28_linear_51_42)"/>
<path d="M113.142 107.965H116V107.316H113.824V106.003H115.683V105.395H113.824V104.117H116V103.475H113.142V107.965Z" fill="url(#paint29_linear_51_42)"/>
</g>
<defs>
<linearGradient id="paint0_linear_51_42" x1="3.82166" y1="53.4129" x2="34.8014" y2="53.4129" gradientUnits="userSpaceOnUse">
<stop/>
<stop offset="0.33"/>
<stop offset="0.52"/>
<stop offset="0.73"/>
<stop offset="1"/>
</linearGradient>
<linearGradient id="paint1_linear_51_42" x1="26.4901" y1="0.000176289" x2="57.4698" y2="0.000176289" gradientUnits="userSpaceOnUse">
<stop/>
<stop offset="0.33"/>
<stop offset="0.52"/>
<stop offset="0.73"/>
<stop offset="1"/>
</linearGradient>
<linearGradient id="paint2_linear_51_42" x1="37.8243" y1="0.000176289" x2="68.804" y2="0.000176289" gradientUnits="userSpaceOnUse">
<stop/>
<stop offset="0.33"/>
<stop offset="0.52"/>
<stop offset="0.73"/>
<stop offset="1"/>
</linearGradient>
<linearGradient id="paint3_linear_51_42" x1="51.8234" y1="20.4365" x2="78.1826" y2="20.4365" gradientUnits="userSpaceOnUse">
<stop/>
<stop offset="0.33"/>
<stop offset="0.52"/>
<stop offset="0.73"/>
<stop offset="1"/>
</linearGradient>
<linearGradient id="paint4_linear_51_42" x1="15.1559" y1="0.000176289" x2="46.1356" y2="0.000176289" gradientUnits="userSpaceOnUse">
<stop/>
<stop offset="0.33"/>
<stop offset="0.52"/>
<stop offset="0.73"/>
<stop offset="1"/>
</linearGradient>
<linearGradient id="paint5_linear_51_42" x1="57.4904" y1="25.3626" x2="89.5168" y2="25.3626" gradientUnits="userSpaceOnUse">
<stop/>
<stop offset="0.33"/>
<stop offset="0.52"/>
<stop offset="0.73"/>
<stop offset="1"/>
</linearGradient>
<linearGradient id="paint6_linear_51_42" x1="63.1575" y1="30.2886" x2="100.851" y2="30.2886" gradientUnits="userSpaceOnUse">
<stop/>
<stop offset="0.33"/>
<stop offset="0.52"/>
<stop offset="0.73"/>
<stop offset="1"/>
</linearGradient>
<linearGradient id="paint7_linear_51_42" x1="68.8246" y1="35.2078" x2="112.185" y2="35.2078" gradientUnits="userSpaceOnUse">
<stop/>
<stop offset="0.33"/>
<stop offset="0.52"/>
<stop offset="0.73"/>
<stop offset="1"/>
</linearGradient>
<linearGradient id="paint8_linear_51_42" x1="0.0206299" y1="93.6365" x2="8.93788" y2="93.6365" gradientUnits="userSpaceOnUse">
<stop/>
<stop offset="0.33"/>
<stop offset="0.52"/>
<stop offset="0.73"/>
<stop offset="1"/>
</linearGradient>
<linearGradient id="paint9_linear_51_42" x1="17.5728" y1="93.6365" x2="28.1358" y2="93.6365" gradientUnits="userSpaceOnUse">
<stop/>
<stop offset="0.33"/>
<stop offset="0.52"/>
<stop offset="0.73"/>
<stop offset="1"/>
</linearGradient>
<linearGradient id="paint10_linear_51_42" x1="37.4731" y1="93.6365" x2="48.1876" y2="93.6365" gradientUnits="userSpaceOnUse">
<stop/>
<stop offset="0.33"/>
<stop offset="0.52"/>
<stop offset="0.73"/>
<stop offset="1"/>
</linearGradient>
<linearGradient id="paint11_linear_51_42" x1="57.518" y1="93.6365" x2="63.6396" y2="93.6365" gradientUnits="userSpaceOnUse">
<stop/>
<stop offset="0.33"/>
<stop offset="0.52"/>
<stop offset="0.73"/>
<stop offset="1"/>
</linearGradient>
<linearGradient id="paint12_linear_51_42" x1="71.579" y1="93.6365" x2="81.4603" y2="93.6365" gradientUnits="userSpaceOnUse">
<stop/>
<stop offset="0.33"/>
<stop offset="0.52"/>
<stop offset="0.73"/>
<stop offset="1"/>
</linearGradient>
<linearGradient id="paint13_linear_51_42" x1="90.5153" y1="93.6365" x2="99.3086" y2="93.6365" gradientUnits="userSpaceOnUse">
<stop/>
<stop offset="0.33"/>
<stop offset="0.52"/>
<stop offset="0.73"/>
<stop offset="1"/>
</linearGradient>
<linearGradient id="paint14_linear_51_42" x1="108.364" y1="93.6365" x2="115.986" y2="93.6365" gradientUnits="userSpaceOnUse">
<stop/>
<stop offset="0.33"/>
<stop offset="0.52"/>
<stop offset="0.73"/>
<stop offset="1"/>
</linearGradient>
<linearGradient id="paint15_linear_51_42" x1="0" y1="105.72" x2="3.13309" y2="105.72" gradientUnits="userSpaceOnUse">
<stop/>
<stop offset="0.33"/>
<stop offset="0.52"/>
<stop offset="0.73"/>
<stop offset="1"/>
</linearGradient>
<linearGradient id="paint16_linear_51_42" x1="6.4452" y1="105.72" x2="10.2669" y2="105.72" gradientUnits="userSpaceOnUse">
<stop/>
<stop offset="0.33"/>
<stop offset="0.52"/>
<stop offset="0.73"/>
<stop offset="1"/>
</linearGradient>
<linearGradient id="paint17_linear_51_42" x1="14.2538" y1="105.72" x2="17.4489" y2="105.72" gradientUnits="userSpaceOnUse">
<stop/>
<stop offset="0.33"/>
<stop offset="0.52"/>
<stop offset="0.73"/>
<stop offset="1"/>
</linearGradient>
<linearGradient id="paint18_linear_51_42" x1="22.0142" y1="105.72" x2="24.8719" y2="105.72" gradientUnits="userSpaceOnUse">
<stop/>
<stop offset="0.33"/>
<stop offset="0.52"/>
<stop offset="0.73"/>
<stop offset="1"/>
</linearGradient>
<linearGradient id="paint19_linear_51_42" x1="29.2789" y1="105.72" x2="29.9606" y2="105.72" gradientUnits="userSpaceOnUse">
<stop/>
<stop offset="0.33"/>
<stop offset="0.52"/>
<stop offset="0.73"/>
<stop offset="1"/>
</linearGradient>
<linearGradient id="paint20_linear_51_42" x1="34.6705" y1="105.72" x2="38.024" y2="105.72" gradientUnits="userSpaceOnUse">
<stop/>
<stop offset="0.33"/>
<stop offset="0.52"/>
<stop offset="0.73"/>
<stop offset="1"/>
</linearGradient>
<linearGradient id="paint21_linear_51_42" x1="42.7477" y1="105.72" x2="45.5985" y2="105.72" gradientUnits="userSpaceOnUse">
<stop/>
<stop offset="0.33"/>
<stop offset="0.52"/>
<stop offset="0.73"/>
<stop offset="1"/>
</linearGradient>
<linearGradient id="paint22_linear_51_42" x1="55.1355" y1="105.72" x2="58.3305" y2="105.72" gradientUnits="userSpaceOnUse">
<stop/>
<stop offset="0.33"/>
<stop offset="0.52"/>
<stop offset="0.73"/>
<stop offset="1"/>
</linearGradient>
<linearGradient id="paint23_linear_51_42" x1="62.7444" y1="105.72" x2="65.9394" y2="105.72" gradientUnits="userSpaceOnUse">
<stop/>
<stop offset="0.33"/>
<stop offset="0.52"/>
<stop offset="0.73"/>
<stop offset="1"/>
</linearGradient>
<linearGradient id="paint24_linear_51_42" x1="70.5048" y1="105.72" x2="73.3625" y2="105.72" gradientUnits="userSpaceOnUse">
<stop/>
<stop offset="0.33"/>
<stop offset="0.52"/>
<stop offset="0.73"/>
<stop offset="1"/>
</linearGradient>
<linearGradient id="paint25_linear_51_42" x1="77.377" y1="105.72" x2="80.6615" y2="105.72" gradientUnits="userSpaceOnUse">
<stop/>
<stop offset="0.33"/>
<stop offset="0.52"/>
<stop offset="0.73"/>
<stop offset="1"/>
</linearGradient>
<linearGradient id="paint26_linear_51_42" x1="90.4257" y1="105.72" x2="93.5519" y2="105.72" gradientUnits="userSpaceOnUse">
<stop/>
<stop offset="0.33"/>
<stop offset="0.52"/>
<stop offset="0.73"/>
<stop offset="1"/>
</linearGradient>
<linearGradient id="paint27_linear_51_42" x1="98.2688" y1="105.72" x2="101.126" y2="105.72" gradientUnits="userSpaceOnUse">
<stop/>
<stop offset="0.33"/>
<stop offset="0.52"/>
<stop offset="0.73"/>
<stop offset="1"/>
</linearGradient>
<linearGradient id="paint28_linear_51_42" x1="105.54" y1="105.72" x2="108.818" y2="105.72" gradientUnits="userSpaceOnUse">
<stop/>
<stop offset="0.33"/>
<stop offset="0.52"/>
<stop offset="0.73"/>
<stop offset="1"/>
</linearGradient>
<linearGradient id="paint29_linear_51_42" x1="113.142" y1="105.72" x2="116" y2="105.72" gradientUnits="userSpaceOnUse">
<stop/>
<stop offset="0.33"/>
<stop offset="0.52"/>
<stop offset="0.73"/>
<stop offset="1"/>
</linearGradient>
<clipPath id="clip0_51_42">
<rect width="116" height="108" fill="white"/>
</clipPath>
</defs>
</svg>
