<svg width="86" height="111" viewBox="0 0 86 111" fill="none" xmlns="http://www.w3.org/2000/svg">
<g clip-path="url(#clip0_51_253)">
<path d="M36.506 6.26724C36.6012 6.26724 36.7043 6.26724 36.7994 6.28307C37.3624 6.30681 37.9254 6.33846 38.5121 6.38594C41.1525 6.57586 43.7057 6.96361 46.1162 7.52546V1.40055C43.6502 0.775403 41.0098 0.355998 38.2663 0.158165C37.2593 0.0790323 36.1889 0.0315524 35.0867 0.0078125C34.7933 0.0078125 34.4999 0.0078125 34.1986 0.0078125H34.1748C29.0209 0.0078125 23.7242 0.688357 18.4195 2.02571C12.3934 3.53715 6.62091 5.87157 1.6731 8.78367V69.3996C6.50197 66.7645 11.9573 64.6516 17.6266 63.2272C22.1066 62.1035 26.6183 61.4151 31.0349 61.1856H31.0745H31.0904C31.13 61.1856 31.1697 61.1856 31.2014 61.1856C31.9626 61.146 32.7159 61.1223 33.4929 61.1144V54.9104C27.7918 54.9657 21.9401 55.7412 16.0963 57.2052C13.9951 57.7354 11.9573 58.3368 10.0463 58.9857L7.88958 59.7216V12.4475L8.8173 12.0044C12.2903 10.3505 16.0329 9.01316 19.934 8.03191C23.7955 7.05857 27.6491 6.47299 31.3917 6.27515C31.471 6.27515 31.5344 6.26724 31.582 6.26724C32.4463 6.22767 33.3185 6.20393 34.1748 6.20393C34.492 6.20393 34.8013 6.20393 35.1105 6.21185H35.1501C35.6021 6.21976 36.0541 6.23559 36.506 6.25933V6.26724Z" fill="url(#paint0_linear_51_253)"/>
<path d="M51.8411 12.6612C50.4139 12.6612 48.9946 12.6137 47.6307 12.5109C45.9735 12.3922 44.3243 12.1943 42.7384 11.9253C41.7711 11.7591 40.8196 11.5692 39.8918 11.3555V71.283C43.5393 72.2089 47.5514 72.6837 51.8411 72.6837C56.9872 72.6837 62.2918 72.0031 67.6044 70.6737C73.6226 69.1543 79.3951 66.8278 84.3508 63.9157V4.37598C79.5219 7.01111 74.0667 9.12396 68.4052 10.5484C62.831 11.949 57.2568 12.6612 51.8491 12.6612H51.8411ZM75.9697 13.6979L78.1264 12.9698V60.236L77.1987 60.6792C73.7336 62.3251 69.9911 63.6625 66.074 64.6437C61.261 65.8545 56.4718 66.4717 51.8411 66.4717C50.4059 66.4717 48.9787 66.4084 47.599 66.2897L46.1083 66.1631V60.4418H46.1163V19.2847V17.5437L47.8528 17.6545C49.1135 17.7336 50.4218 17.7732 51.8411 17.7732C57.7722 17.7732 63.8539 16.9977 69.9197 15.4704C71.9575 14.9561 73.9953 14.3547 75.9776 13.6899L75.9697 13.6979Z" fill="url(#paint1_linear_51_253)"/>
<path d="M5.88348 90.093C5.265 89.4441 4.45623 89.1196 3.46508 89.1196C2.95761 89.1196 2.48979 89.2067 2.06954 89.3808C1.64929 89.5549 1.28455 89.7923 0.983241 90.093C0.681932 90.3937 0.444056 90.7577 0.277543 91.1692C0.11103 91.5807 0.0317383 92.0317 0.0317383 92.5144V100.61C0.0317383 101.282 0.134818 101.836 0.348906 102.272C0.562994 102.707 0.832587 103.063 1.16561 103.332C1.49864 103.609 1.87131 103.799 2.28363 103.91C2.69595 104.02 3.10826 104.076 3.50472 104.076C3.97255 104.076 4.40865 103.981 4.82097 103.799C5.22536 103.617 5.58217 103.364 5.88348 103.047C6.18479 102.731 6.42267 102.367 6.59711 101.963C6.77155 101.559 6.85877 101.124 6.85877 100.673V99.763H4.74961V100.483C4.74961 100.776 4.70996 101.013 4.62274 101.203C4.54345 101.393 4.43244 101.551 4.3135 101.654C4.1787 101.765 4.02805 101.844 3.86947 101.892C3.71088 101.939 3.56023 101.963 3.42543 101.963C2.94175 101.963 2.60873 101.82 2.41842 101.528C2.22812 101.235 2.1409 100.879 2.1409 100.451V92.9338C2.1409 92.4353 2.22812 92.0317 2.40257 91.7073C2.57701 91.3828 2.92589 91.2246 3.44922 91.2246C3.84568 91.2246 4.16285 91.3749 4.40072 91.6756C4.6386 91.9763 4.74961 92.3403 4.74961 92.7518V93.4561H6.85877V92.6331C6.85877 92.1267 6.77155 91.6519 6.59711 91.2167C6.42267 90.7814 6.18479 90.4095 5.88348 90.093Z" fill="url(#paint2_linear_51_253)"/>
<path d="M18.5464 90.0138C18.1975 89.721 17.8169 89.5074 17.3966 89.3491C16.9764 89.1988 16.5482 89.1196 16.12 89.1196C15.6919 89.1196 15.2716 89.1988 14.8434 89.3491C14.4232 89.4995 14.0505 89.721 13.7175 90.0138C13.3686 90.3145 13.099 90.6944 12.8929 91.1533C12.6867 91.6044 12.5836 92.1346 12.5836 92.7202V100.483C12.5836 101.1 12.6867 101.631 12.8929 102.074C13.099 102.517 13.3765 102.881 13.7175 103.166C14.0505 103.466 14.4232 103.696 14.8434 103.846C15.2637 103.997 15.6919 104.076 16.12 104.076C16.5482 104.076 16.9685 103.997 17.3966 103.846C17.8169 103.696 18.1975 103.466 18.5464 103.166C18.8794 102.873 19.149 102.509 19.3551 102.074C19.5613 101.631 19.6644 101.1 19.6644 100.483V92.7202C19.6644 92.1267 19.5613 91.6044 19.3551 91.1533C19.149 90.7023 18.8794 90.3224 18.5464 90.0138ZM17.5552 100.483C17.5552 100.99 17.4125 101.369 17.127 101.607C16.8416 101.844 16.5086 101.971 16.12 101.971C15.7315 101.971 15.3985 101.852 15.113 101.607C14.8276 101.369 14.6928 100.99 14.6928 100.483V92.7202C14.6928 92.2137 14.8355 91.8339 15.113 91.5965C15.3985 91.3591 15.7315 91.2325 16.12 91.2325C16.5086 91.2325 16.8416 91.3512 17.127 91.5965C17.4125 91.8339 17.5552 92.2137 17.5552 92.7202V100.483Z" fill="url(#paint3_linear_51_253)"/>
<path d="M35.1897 103.957V89.2461H33.136L30.4481 97.0328H30.4084L27.6966 89.2461H25.6667V103.957H27.7759V95.007H27.8235L29.893 101.33H30.9476L33.033 95.007H33.0805V103.957H35.1897Z" fill="url(#paint4_linear_51_253)"/>
<path d="M47.2104 90.2827C46.8535 89.895 46.4492 89.6259 46.013 89.4756C45.569 89.3252 45.0615 89.2461 44.4827 89.2461H41.319V103.949H43.4281V98.204H44.5065C45.2915 98.204 45.9258 98.0694 46.4095 97.8004C46.8932 97.5313 47.2817 97.1594 47.5672 96.6767C47.813 96.281 47.9795 95.8537 48.0509 95.3947C48.1301 94.9437 48.1619 94.3818 48.1619 93.725C48.1619 92.8467 48.0905 92.1424 47.9557 91.628C47.8209 91.1136 47.5672 90.6626 47.2104 90.2748V90.2827ZM46.1478 94.7617C46.1241 95.0624 46.0606 95.3156 45.9496 95.5293C45.8386 95.7508 45.6642 95.9249 45.4342 96.0436C45.1963 96.1702 44.8712 96.2256 44.4431 96.2256H43.4281V91.2244H44.5224C44.9347 91.2244 45.2518 91.2877 45.4739 91.4064C45.6959 91.533 45.8624 91.7071 45.9734 91.9445C46.0844 92.1819 46.1478 92.451 46.1558 92.7596C46.1716 93.0682 46.1796 93.3927 46.1796 93.7409C46.1796 94.1128 46.1716 94.4531 46.1478 94.7538V94.7617Z" fill="url(#paint5_linear_51_253)"/>
<path d="M57.2091 89.2461H55.4488L52.1582 103.949H54.2674L54.8858 100.792H57.7641L58.3826 103.949H60.4918L57.2012 89.2461H57.2091ZM55.2585 98.8133L56.2893 93.4876H56.329L57.3677 98.8133H55.2585Z" fill="url(#paint6_linear_51_253)"/>
<path d="M70.8473 98.109H70.7997L67.6201 89.2461H65.5902V103.957H67.6994V95.1099H67.739L70.9662 103.957H72.9564V89.2461H70.8473V98.109Z" fill="url(#paint7_linear_51_253)"/>
<path d="M83.7402 89.2461L82.0433 95.094H81.9958L80.2989 89.2461H78.0708L80.965 97.7371V103.957H83.0741V97.7371L85.9762 89.2461H83.7402Z" fill="url(#paint8_linear_51_253)"/>
<path d="M0 108.104H1.02287V110.937H1.70478V108.104H2.71971V107.526H0V108.104Z" fill="url(#paint9_linear_51_253)"/>
<path d="M8.54768 107.526L7.21558 110.937H7.94506L8.23051 110.161H9.60226L9.89564 110.937H10.6489L9.27717 107.526H8.54768ZM8.43667 109.583L8.90449 108.317L9.37232 109.583H8.43667Z" fill="url(#paint10_linear_51_253)"/>
<path d="M17.0002 109.679H17.7931V110.114C17.5473 110.304 17.2698 110.399 16.9764 110.399C16.6592 110.399 16.4134 110.288 16.2469 110.074C16.0804 109.861 15.9932 109.56 15.9932 109.188C15.9932 108.428 16.3262 108.048 16.9843 108.048C17.3966 108.048 17.6504 108.23 17.7614 108.594L18.4433 108.468C18.3006 107.795 17.809 107.463 16.9843 107.463C16.5086 107.463 16.1121 107.613 15.7791 107.906C15.4461 108.199 15.2875 108.634 15.2875 109.22C15.2875 109.742 15.4381 110.169 15.7315 110.502C16.0249 110.834 16.461 111 17.0319 111C17.6028 111 18.1103 110.826 18.4909 110.47V109.109H17.0002V109.679Z" fill="url(#paint11_linear_51_253)"/>
<path d="M26.7213 107.526H26.0315V110.937H28.434V110.359H26.7213V107.526Z" fill="url(#paint12_linear_51_253)"/>
<path d="M34.0242 107.526H33.3264V110.937H34.0242V107.526Z" fill="url(#paint13_linear_51_253)"/>
<path d="M41.1525 109.805L39.7491 107.526H39.0751V110.937H39.7173V108.713L41.1049 110.937H41.7948V107.526H41.1525V109.805Z" fill="url(#paint14_linear_51_253)"/>
<path d="M47.6068 109.433H49.3195V108.855H47.6068V108.104H49.4543V107.526H46.9091V110.937H49.5178V110.359H47.6068V109.433Z" fill="url(#paint15_linear_51_253)"/>
<path d="M62.1649 108.871H60.809V107.526H60.1191V110.937H60.809V109.449H62.1649V110.937H62.8468V107.526H62.1649V108.871Z" fill="url(#paint16_linear_51_253)"/>
<path d="M68.6509 109.433H70.3636V108.855H68.6509V108.104H70.4984V107.526H67.9611V110.937H70.5618V110.359H68.6509V109.433Z" fill="url(#paint17_linear_51_253)"/>
<path d="M77.4523 109.433C78.0549 109.346 78.3563 109.029 78.3563 108.483C78.3563 108.111 78.2452 107.858 78.0232 107.724C77.8012 107.589 77.4682 107.526 77.0162 107.526H75.5573V110.937H76.2471V109.512H76.3819C76.5801 109.512 76.7228 109.536 76.8101 109.591C76.8973 109.639 76.9845 109.726 77.0559 109.837L77.8012 110.937H78.6258L78.2056 110.272C77.9281 109.837 77.6743 109.552 77.4444 109.433H77.4523ZM76.7546 108.966H76.2392V108.104H76.7783C77.151 108.104 77.381 108.135 77.484 108.191C77.5871 108.246 77.6347 108.357 77.6347 108.531C77.6347 108.713 77.5713 108.832 77.4523 108.887C77.3334 108.942 77.0955 108.974 76.7466 108.974L76.7546 108.966Z" fill="url(#paint18_linear_51_253)"/>
<path d="M84.0891 109.433H85.8018V108.855H84.0891V108.104H85.9366V107.526H83.3914V110.937H86.0001V110.359H84.0891V109.433Z" fill="url(#paint19_linear_51_253)"/>
</g>
<defs>
<linearGradient id="paint0_linear_51_253" x1="1.65724" y1="34.6918" x2="46.1162" y2="34.6918" gradientUnits="userSpaceOnUse">
<stop/>
<stop offset="0.33"/>
<stop offset="0.52"/>
<stop offset="0.73"/>
<stop offset="1"/>
</linearGradient>
<linearGradient id="paint1_linear_51_253" x1="39.8918" y1="38.5298" x2="84.3429" y2="38.5298" gradientUnits="userSpaceOnUse">
<stop/>
<stop offset="0.33"/>
<stop offset="0.52"/>
<stop offset="0.73"/>
<stop offset="1"/>
</linearGradient>
<linearGradient id="paint2_linear_51_253" x1="3.44129" y1="104.076" x2="3.44129" y2="89.1275" gradientUnits="userSpaceOnUse">
<stop/>
<stop offset="0.33"/>
<stop offset="0.52"/>
<stop offset="0.73"/>
<stop offset="1"/>
</linearGradient>
<linearGradient id="paint3_linear_51_253" x1="16.128" y1="104.076" x2="16.128" y2="89.1275" gradientUnits="userSpaceOnUse">
<stop/>
<stop offset="0.33"/>
<stop offset="0.52"/>
<stop offset="0.73"/>
<stop offset="1"/>
</linearGradient>
<linearGradient id="paint4_linear_51_253" x1="30.4322" y1="103.957" x2="30.4322" y2="89.2461" gradientUnits="userSpaceOnUse">
<stop/>
<stop offset="0.33"/>
<stop offset="0.52"/>
<stop offset="0.73"/>
<stop offset="1"/>
</linearGradient>
<linearGradient id="paint5_linear_51_253" x1="44.7365" y1="103.957" x2="44.7365" y2="89.2461" gradientUnits="userSpaceOnUse">
<stop/>
<stop offset="0.33"/>
<stop offset="0.52"/>
<stop offset="0.73"/>
<stop offset="1"/>
</linearGradient>
<linearGradient id="paint6_linear_51_253" x1="56.329" y1="103.957" x2="56.329" y2="89.2461" gradientUnits="userSpaceOnUse">
<stop/>
<stop offset="0.33"/>
<stop offset="0.52"/>
<stop offset="0.73"/>
<stop offset="1"/>
</linearGradient>
<linearGradient id="paint7_linear_51_253" x1="69.2694" y1="103.957" x2="69.2694" y2="89.2461" gradientUnits="userSpaceOnUse">
<stop/>
<stop offset="0.33"/>
<stop offset="0.52"/>
<stop offset="0.73"/>
<stop offset="1"/>
</linearGradient>
<linearGradient id="paint8_linear_51_253" x1="82.0195" y1="103.957" x2="82.0195" y2="89.2461" gradientUnits="userSpaceOnUse">
<stop/>
<stop offset="0.33"/>
<stop offset="0.52"/>
<stop offset="0.73"/>
<stop offset="1"/>
</linearGradient>
<linearGradient id="paint9_linear_51_253" x1="1.35589" y1="110.937" x2="1.35589" y2="107.526" gradientUnits="userSpaceOnUse">
<stop/>
<stop offset="0.33"/>
<stop offset="0.52"/>
<stop offset="0.73"/>
<stop offset="1"/>
</linearGradient>
<linearGradient id="paint10_linear_51_253" x1="8.93621" y1="110.937" x2="8.93621" y2="107.526" gradientUnits="userSpaceOnUse">
<stop/>
<stop offset="0.33"/>
<stop offset="0.52"/>
<stop offset="0.73"/>
<stop offset="1"/>
</linearGradient>
<linearGradient id="paint11_linear_51_253" x1="16.8892" y1="111" x2="16.8892" y2="107.463" gradientUnits="userSpaceOnUse">
<stop/>
<stop offset="0.33"/>
<stop offset="0.52"/>
<stop offset="0.73"/>
<stop offset="1"/>
</linearGradient>
<linearGradient id="paint12_linear_51_253" x1="27.2367" y1="110.937" x2="27.2367" y2="107.526" gradientUnits="userSpaceOnUse">
<stop/>
<stop offset="0.33"/>
<stop offset="0.52"/>
<stop offset="0.73"/>
<stop offset="1"/>
</linearGradient>
<linearGradient id="paint13_linear_51_253" x1="33.6674" y1="110.937" x2="33.6674" y2="107.526" gradientUnits="userSpaceOnUse">
<stop/>
<stop offset="0.33"/>
<stop offset="0.52"/>
<stop offset="0.73"/>
<stop offset="1"/>
</linearGradient>
<linearGradient id="paint14_linear_51_253" x1="40.431" y1="110.937" x2="40.431" y2="107.526" gradientUnits="userSpaceOnUse">
<stop/>
<stop offset="0.33"/>
<stop offset="0.52"/>
<stop offset="0.73"/>
<stop offset="1"/>
</linearGradient>
<linearGradient id="paint15_linear_51_253" x1="48.2174" y1="110.937" x2="48.2174" y2="107.526" gradientUnits="userSpaceOnUse">
<stop/>
<stop offset="0.33"/>
<stop offset="0.52"/>
<stop offset="0.73"/>
<stop offset="1"/>
</linearGradient>
<linearGradient id="paint16_linear_51_253" x1="61.483" y1="110.937" x2="61.483" y2="107.526" gradientUnits="userSpaceOnUse">
<stop/>
<stop offset="0.33"/>
<stop offset="0.52"/>
<stop offset="0.73"/>
<stop offset="1"/>
</linearGradient>
<linearGradient id="paint17_linear_51_253" x1="69.2614" y1="110.937" x2="69.2614" y2="107.526" gradientUnits="userSpaceOnUse">
<stop/>
<stop offset="0.33"/>
<stop offset="0.52"/>
<stop offset="0.73"/>
<stop offset="1"/>
</linearGradient>
<linearGradient id="paint18_linear_51_253" x1="77.0955" y1="110.937" x2="77.0955" y2="107.526" gradientUnits="userSpaceOnUse">
<stop/>
<stop offset="0.33"/>
<stop offset="0.52"/>
<stop offset="0.73"/>
<stop offset="1"/>
</linearGradient>
<linearGradient id="paint19_linear_51_253" x1="84.6997" y1="110.937" x2="84.6997" y2="107.526" gradientUnits="userSpaceOnUse">
<stop/>
<stop offset="0.33"/>
<stop offset="0.52"/>
<stop offset="0.73"/>
<stop offset="1"/>
</linearGradient>
<clipPath id="clip0_51_253">
<rect width="86" height="111" fill="white"/>
</clipPath>
</defs>
</svg>
