<svg width="92" height="104" viewBox="0 0 92 104" fill="none" xmlns="http://www.w3.org/2000/svg">
<g clip-path="url(#clip0_51_126)">
<path d="M78.5287 8.04486C73.3332 2.85913 66.4165 0 59.0616 0C51.7067 0 44.7964 2.85913 39.5946 8.0512C35.5297 12.1085 32.8939 17.2118 31.9348 22.7526C31.8395 23.3105 31.757 23.8747 31.6998 24.4452C31.6363 25.0031 31.5918 25.5673 31.5664 26.1315C31.541 26.5817 31.5347 27.0318 31.5347 27.4882V31.2222V32.9022V34.5821V54.9637H51.9544H53.6375H55.3207C55.3461 54.5073 55.3651 54.0445 55.3651 53.5754V49.8858H53.682H36.6221V34.5314V31.1778V27.4819C36.6221 27.0127 36.6348 26.5563 36.6666 26.0935C36.6984 25.5293 36.7555 24.9714 36.8317 24.4135C36.908 23.843 37.0096 23.2851 37.1302 22.7336C38.0512 18.4544 40.2107 14.6316 43.2022 11.6457C47.2671 7.58842 52.8754 5.07796 59.0616 5.07796C71.4341 5.07796 81.5011 15.1261 81.5011 27.4755C81.5011 33.6502 78.986 39.248 74.9211 43.3053C71.9296 46.2912 68.0997 48.4404 63.8125 49.3659V53.569C63.8125 53.8987 63.8125 54.2283 63.7998 54.5517C69.3509 53.5944 74.4638 50.9635 78.5287 46.9062C83.7305 41.7141 86.5949 34.8167 86.5949 27.4755C86.5949 20.1343 83.7305 13.2369 78.5287 8.04486Z" fill="url(#paint0_linear_51_126)"/>
<path d="M36.6222 31.1712H55.3651V46.5256V53.5688C55.3651 54.0316 55.3524 54.4944 55.3207 54.9572C55.2889 55.5214 55.2318 56.0793 55.1555 56.6371C55.0793 57.2014 54.9841 57.7592 54.857 58.3108C53.9297 62.59 51.7766 66.4127 48.7851 69.405C44.7202 73.4622 39.1119 75.9727 32.9256 75.9727C20.5531 75.9727 10.4862 65.9245 10.4862 53.5751C10.4862 47.4004 13.0077 41.8026 17.0662 37.7453C20.0577 34.7594 23.894 32.6103 28.1748 31.6847V27.488C28.1748 27.1583 28.1748 26.8287 28.1875 26.5053C22.6364 27.4563 17.5235 30.0935 13.4523 34.1508C8.25047 39.3429 5.38599 46.2403 5.38599 53.5815C5.38599 60.9227 8.25047 67.8201 13.4459 73.0121C18.6477 78.2042 25.558 81.0633 32.9129 81.0633C40.2679 81.0633 47.1782 78.2042 52.38 73.0121C57.2579 68.1434 60.0779 61.7658 60.4081 54.9381C60.4208 54.7163 60.4272 54.5007 60.4335 54.2788C60.4335 54.1584 60.4335 54.0443 60.4335 53.9238C60.4335 53.8097 60.4335 53.6956 60.4335 53.5878V26.106H40.0138H38.3307H36.6476C36.6222 26.5624 36.6031 27.0252 36.6031 27.4943V31.1903L36.6222 31.1712Z" fill="url(#paint1_linear_51_126)"/>
<path d="M5.88775 94.5098C5.44315 94.9156 4.83977 95.1692 4.18558 95.1692C2.79462 95.1692 1.66407 94.0534 1.66407 92.665C1.66407 91.2767 2.78827 90.1609 4.18558 90.1609C4.83977 90.1609 5.44315 90.4145 5.88775 90.8329L7.06911 89.6411C6.31964 88.9247 5.30342 88.481 4.18558 88.481C1.87367 88.481 -0.00634766 90.3575 -0.00634766 92.665C-0.00634766 94.9726 1.87367 96.8491 4.18558 96.8491C5.30342 96.8491 6.31964 96.4054 7.06911 95.689L5.88775 94.5098Z" fill="url(#paint2_linear_51_126)"/>
<path d="M22.3061 92.665C22.3061 90.3575 20.4261 88.481 18.1205 88.481C15.815 88.481 13.9286 90.3575 13.9286 92.665C13.9286 94.9726 15.8086 96.8491 18.1205 96.8491C20.4324 96.8491 22.3061 94.9726 22.3061 92.665ZM18.1142 95.1818C16.7232 95.1818 15.5927 94.0534 15.5927 92.665C15.5927 91.2767 16.7232 90.1609 18.1142 90.1609C19.5051 90.1609 20.623 91.283 20.623 92.665C20.623 94.0471 19.4988 95.1818 18.1142 95.1818Z" fill="url(#paint3_linear_51_126)"/>
<path d="M38.2036 96.8491V88.4873H36.4062L33.9609 94.5986L31.5092 88.4873H29.7054V96.8491H31.3759V92.6651L33.059 96.8491H34.8564L36.5395 92.6651V96.8491H38.2036Z" fill="url(#paint4_linear_51_126)"/>
<path d="M47.953 88.4873H45.6094V96.8491H47.2798V93.5082H47.9657C49.3503 93.5082 50.4618 92.3861 50.4618 91.0041C50.4618 89.6221 49.344 88.4873 47.953 88.4873ZM47.953 91.8282H47.2798V90.1609H47.953C48.4167 90.1609 48.7914 90.535 48.7914 90.9978C48.7914 91.4605 48.4167 91.8219 47.953 91.8219V91.8282Z" fill="url(#paint5_linear_51_126)"/>
<path d="M61.5705 88.4873H59.7921L56.7625 96.8491H58.5408L59.3919 94.5099H61.9642L62.8153 96.8491H64.5937L61.5641 88.4873H61.5705ZM60.0017 92.8299L60.6749 90.9407L61.3609 92.8299H60.0017Z" fill="url(#paint6_linear_51_126)"/>
<path d="M77.0869 94.0661L73.7397 88.4873H71.7834V96.8491H73.4539V91.2767L76.8138 96.8491H78.7573V88.4873H77.0869V94.0661Z" fill="url(#paint7_linear_51_126)"/>
<path d="M89.7961 96.8491V92.8679L91.9873 88.4873H90.12L88.9704 90.8012L87.8081 88.4873H85.9408L88.1257 92.8679V96.8491H89.7961Z" fill="url(#paint8_linear_51_126)"/>
<path d="M6.38955 100.431L5.10022 103.974H5.67185L5.94496 103.182H7.29145L7.56456 103.974H8.12984L6.8405 100.431H6.38955ZM6.09739 102.707L6.61185 101.16H6.62456L7.13902 102.707H6.10374H6.09739Z" fill="url(#paint9_linear_51_126)"/>
<path d="M12.0104 101.198C12.0676 101.122 12.1438 101.065 12.2327 101.014C12.3217 100.969 12.4296 100.944 12.5567 100.938C12.7281 100.938 12.8742 100.988 12.9949 101.084C13.1092 101.185 13.1918 101.305 13.2363 101.445H13.8079C13.7507 101.147 13.6173 100.9 13.4014 100.697C13.1854 100.5 12.906 100.399 12.563 100.393C12.2835 100.393 12.0485 100.462 11.8644 100.589C11.6738 100.716 11.5341 100.862 11.4515 101.027C11.4007 101.115 11.3562 101.223 11.3308 101.363C11.3054 101.502 11.2927 101.775 11.2927 102.187C11.2927 102.599 11.3054 102.865 11.3308 103.011C11.3435 103.087 11.3626 103.15 11.3816 103.201C11.4007 103.252 11.4261 103.302 11.4515 103.353C11.5404 103.518 11.6738 103.664 11.8644 103.784C12.0485 103.911 12.2835 103.981 12.563 103.987C12.925 103.981 13.2235 103.86 13.4649 103.619C13.6999 103.378 13.8206 103.081 13.8269 102.726V102.003H12.563V102.51H13.2871V102.694C13.2871 102.916 13.2172 103.093 13.0775 103.233C12.9441 103.378 12.7662 103.448 12.5567 103.448C12.4296 103.448 12.3217 103.423 12.2327 103.366C12.1375 103.321 12.0676 103.258 12.0104 103.188C11.9406 103.112 11.8961 103.011 11.8707 102.89C11.8453 102.77 11.8326 102.529 11.8326 102.18C11.8326 101.832 11.8453 101.597 11.8707 101.47C11.8961 101.35 11.9406 101.255 12.0104 101.179V101.198Z" fill="url(#paint10_linear_51_126)"/>
<path d="M17.4473 100.431V103.974H19.7147V103.467H17.9871V100.431H17.4473Z" fill="url(#paint11_linear_51_126)"/>
<path d="M23.7479 100.431H23.208V103.974H23.7479V100.431Z" fill="url(#paint12_linear_51_126)"/>
<path d="M29.6103 102.947H29.6039L27.997 100.431H27.4889V103.974H28.0288V101.458H28.0351L29.642 103.974H30.1501V100.431H29.6103V102.947Z" fill="url(#paint13_linear_51_126)"/>
<path d="M36.1586 100.938V100.431H33.8911V103.974H36.1586V103.467H34.431V102.428H35.9045V101.946H34.431V100.938H36.1586Z" fill="url(#paint14_linear_51_126)"/>
<path d="M44.2883 100.602C44.0978 100.729 43.958 100.874 43.8755 101.039C43.8246 101.128 43.7802 101.236 43.7548 101.375C43.7294 101.515 43.7167 101.787 43.7167 102.199C43.7167 102.611 43.7294 102.878 43.7548 103.023C43.7675 103.1 43.7865 103.163 43.8056 103.214C43.8246 103.264 43.8501 103.315 43.8755 103.366C43.9644 103.531 44.0978 103.676 44.2883 103.797C44.4725 103.924 44.7075 103.993 44.987 104C45.349 103.993 45.6475 103.873 45.8889 103.632C46.1239 103.391 46.2445 103.093 46.2509 102.738V102.015H44.987V102.523H45.711V102.706C45.711 102.928 45.6411 103.106 45.5014 103.245C45.368 103.391 45.1902 103.461 44.9806 103.461C44.8536 103.461 44.7456 103.436 44.6567 103.378C44.5614 103.334 44.4915 103.271 44.4344 103.201C44.3645 103.125 44.3201 103.023 44.2946 102.903C44.2692 102.783 44.2565 102.542 44.2565 102.193C44.2565 101.844 44.2692 101.61 44.2946 101.483C44.3201 101.363 44.3645 101.267 44.4344 101.191C44.4915 101.115 44.5678 101.058 44.6567 101.008C44.7456 100.963 44.8536 100.938 44.9806 100.931C45.1521 100.931 45.2982 100.982 45.4188 101.077C45.5332 101.179 45.6157 101.299 45.6602 101.439H46.2318C46.1747 101.141 46.0413 100.893 45.8253 100.691C45.6094 100.494 45.3299 100.393 44.987 100.386C44.7075 100.386 44.4725 100.456 44.2883 100.583V100.602Z" fill="url(#paint15_linear_51_126)"/>
<path d="M49.9093 101.039C49.8585 101.128 49.814 101.236 49.7886 101.375C49.7632 101.515 49.7505 101.787 49.7505 102.199C49.7505 102.611 49.7632 102.878 49.7886 103.023C49.8013 103.1 49.8204 103.163 49.8394 103.214C49.8585 103.264 49.8839 103.315 49.9093 103.366C49.9982 103.531 50.1316 103.676 50.3221 103.797C50.5063 103.924 50.7413 103.993 51.0208 104C51.3002 103.993 51.5416 103.924 51.7258 103.797C51.91 103.67 52.0497 103.531 52.1323 103.366C52.1894 103.277 52.2339 103.163 52.2593 103.023C52.2783 102.884 52.291 102.605 52.291 102.199C52.291 101.794 52.2783 101.515 52.2593 101.375C52.2339 101.236 52.1958 101.122 52.1323 101.039C52.0497 100.874 51.9163 100.729 51.7258 100.602C51.5352 100.475 51.3002 100.405 51.0208 100.405C50.7413 100.405 50.5063 100.475 50.3221 100.602C50.1316 100.729 49.9918 100.874 49.9093 101.039ZM50.3348 101.489C50.3602 101.369 50.4047 101.274 50.4745 101.198C50.5317 101.122 50.6079 101.065 50.6968 101.014C50.7858 100.969 50.8937 100.944 51.0208 100.938C51.1478 100.938 51.2621 100.963 51.3574 101.014C51.4463 101.065 51.5162 101.122 51.5733 101.198C51.6432 101.274 51.694 101.369 51.7194 101.489C51.7448 101.616 51.7575 101.851 51.7575 102.199C51.7575 102.548 51.7448 102.783 51.7194 102.909C51.694 103.03 51.6432 103.131 51.5733 103.207C51.5225 103.277 51.4463 103.34 51.3574 103.385C51.2621 103.436 51.1541 103.467 51.0208 103.467C50.8874 103.467 50.7858 103.442 50.6968 103.385C50.6016 103.34 50.5317 103.277 50.4745 103.207C50.4047 103.131 50.3602 103.03 50.3348 102.909C50.3094 102.789 50.2967 102.548 50.2967 102.199C50.2967 101.851 50.3094 101.616 50.3348 101.489Z" fill="url(#paint16_linear_51_126)"/>
<path d="M55.905 103.974H58.1725V103.467H56.4449V102.428H57.9248V101.946H56.4449V100.938H58.1725V100.431H55.905V103.974Z" fill="url(#paint17_linear_51_126)"/>
<path d="M62.7264 103.467C62.339 103.467 62.0023 103.347 61.7165 103.112L61.3608 103.518C61.7419 103.841 62.1929 104.006 62.72 104.006C63.533 103.993 63.9459 103.651 63.9649 102.973C63.9649 102.719 63.8887 102.504 63.7299 102.313C63.5711 102.123 63.3234 102.003 62.9931 101.958C62.8217 101.939 62.6883 101.92 62.593 101.901C62.4152 101.87 62.2881 101.813 62.2119 101.724C62.1357 101.641 62.0913 101.546 62.0913 101.445C62.0913 101.274 62.1548 101.147 62.2691 101.058C62.3771 100.976 62.5168 100.931 62.6819 100.931C62.9995 100.938 63.298 101.027 63.5584 101.204L63.8569 100.76C63.533 100.526 63.1456 100.405 62.7073 100.393C62.339 100.393 62.0595 100.494 61.8562 100.678C61.653 100.868 61.545 101.115 61.545 101.426C61.545 101.686 61.6276 101.901 61.7927 102.079C61.9515 102.256 62.1865 102.364 62.4914 102.415C62.6629 102.44 62.8153 102.459 62.9614 102.478C63.2726 102.529 63.425 102.687 63.425 102.954C63.4187 103.277 63.1837 103.442 62.7264 103.448V103.467Z" fill="url(#paint18_linear_51_126)"/>
<path d="M71.7136 103.974H72.2535V102.428H73.6571V103.974H74.1907V100.431H73.6571V101.946H72.2535V100.431H71.7136V103.974Z" fill="url(#paint19_linear_51_126)"/>
<path d="M80.1991 100.938V100.431H77.938V103.974H80.1991V103.467H78.4715V102.428H79.9514V101.946H78.4715V100.938H80.1991Z" fill="url(#paint20_linear_51_126)"/>
<path d="M86.1631 101.42C86.1567 101.09 86.036 100.843 85.8074 100.665C85.6232 100.507 85.3819 100.431 85.0833 100.431H83.6987V103.974H84.2386V102.459H84.9246L85.655 103.974H86.2964L85.4708 102.402C85.9217 102.231 86.1504 101.901 86.1567 101.42H86.1631ZM84.2386 101.984V100.912H85.0833C85.2548 100.912 85.3882 100.951 85.4771 101.02C85.5914 101.103 85.6486 101.236 85.655 101.42C85.655 101.572 85.6042 101.705 85.5089 101.806C85.4073 101.92 85.2548 101.978 85.0579 101.984H84.245H84.2386Z" fill="url(#paint21_linear_51_126)"/>
<path d="M89.7325 103.974H92V103.467H90.2724V102.428H91.7459V101.946H90.2724V100.938H92V100.431H89.7325V103.974Z" fill="url(#paint22_linear_51_126)"/>
</g>
<defs>
<linearGradient id="paint0_linear_51_126" x1="31.5283" y1="27.4819" x2="86.5949" y2="27.4819" gradientUnits="userSpaceOnUse">
<stop/>
<stop offset="0.33"/>
<stop offset="0.52"/>
<stop offset="0.73"/>
<stop offset="1"/>
</linearGradient>
<linearGradient id="paint1_linear_51_126" x1="5.39234" y1="53.5688" x2="60.4526" y2="53.5688" gradientUnits="userSpaceOnUse">
<stop/>
<stop offset="0.33"/>
<stop offset="0.52"/>
<stop offset="0.73"/>
<stop offset="1"/>
</linearGradient>
<linearGradient id="paint2_linear_51_126" x1="3.74166e-06" y1="92.665" x2="7.07546" y2="92.665" gradientUnits="userSpaceOnUse">
<stop/>
<stop offset="0.33"/>
<stop offset="0.52"/>
<stop offset="0.73"/>
<stop offset="1"/>
</linearGradient>
<linearGradient id="paint3_linear_51_126" x1="13.9286" y1="92.665" x2="22.3061" y2="92.665" gradientUnits="userSpaceOnUse">
<stop/>
<stop offset="0.33"/>
<stop offset="0.52"/>
<stop offset="0.73"/>
<stop offset="1"/>
</linearGradient>
<linearGradient id="paint4_linear_51_126" x1="29.7054" y1="92.6651" x2="38.2036" y2="92.6651" gradientUnits="userSpaceOnUse">
<stop/>
<stop offset="0.33"/>
<stop offset="0.52"/>
<stop offset="0.73"/>
<stop offset="1"/>
</linearGradient>
<linearGradient id="paint5_linear_51_126" x1="45.6094" y1="92.6651" x2="50.4618" y2="92.6651" gradientUnits="userSpaceOnUse">
<stop/>
<stop offset="0.33"/>
<stop offset="0.52"/>
<stop offset="0.73"/>
<stop offset="1"/>
</linearGradient>
<linearGradient id="paint6_linear_51_126" x1="56.7625" y1="92.6651" x2="64.6001" y2="92.6651" gradientUnits="userSpaceOnUse">
<stop/>
<stop offset="0.33"/>
<stop offset="0.52"/>
<stop offset="0.73"/>
<stop offset="1"/>
</linearGradient>
<linearGradient id="paint7_linear_51_126" x1="71.7834" y1="92.6651" x2="78.7573" y2="92.6651" gradientUnits="userSpaceOnUse">
<stop/>
<stop offset="0.33"/>
<stop offset="0.52"/>
<stop offset="0.73"/>
<stop offset="1"/>
</linearGradient>
<linearGradient id="paint8_linear_51_126" x1="85.9408" y1="92.6651" x2="91.9873" y2="92.6651" gradientUnits="userSpaceOnUse">
<stop/>
<stop offset="0.33"/>
<stop offset="0.52"/>
<stop offset="0.73"/>
<stop offset="1"/>
</linearGradient>
<linearGradient id="paint9_linear_51_126" x1="5.10022" y1="102.199" x2="8.12984" y2="102.199" gradientUnits="userSpaceOnUse">
<stop/>
<stop offset="0.33"/>
<stop offset="0.52"/>
<stop offset="0.73"/>
<stop offset="1"/>
</linearGradient>
<linearGradient id="paint10_linear_51_126" x1="11.2927" y1="102.199" x2="13.8269" y2="102.199" gradientUnits="userSpaceOnUse">
<stop/>
<stop offset="0.33"/>
<stop offset="0.52"/>
<stop offset="0.73"/>
<stop offset="1"/>
</linearGradient>
<linearGradient id="paint11_linear_51_126" x1="17.4473" y1="102.199" x2="19.7147" y2="102.199" gradientUnits="userSpaceOnUse">
<stop/>
<stop offset="0.33"/>
<stop offset="0.52"/>
<stop offset="0.73"/>
<stop offset="1"/>
</linearGradient>
<linearGradient id="paint12_linear_51_126" x1="23.208" y1="102.199" x2="23.7479" y2="102.199" gradientUnits="userSpaceOnUse">
<stop/>
<stop offset="0.33"/>
<stop offset="0.52"/>
<stop offset="0.73"/>
<stop offset="1"/>
</linearGradient>
<linearGradient id="paint13_linear_51_126" x1="27.4889" y1="102.199" x2="30.1501" y2="102.199" gradientUnits="userSpaceOnUse">
<stop/>
<stop offset="0.33"/>
<stop offset="0.52"/>
<stop offset="0.73"/>
<stop offset="1"/>
</linearGradient>
<linearGradient id="paint14_linear_51_126" x1="33.8911" y1="102.199" x2="36.1586" y2="102.199" gradientUnits="userSpaceOnUse">
<stop/>
<stop offset="0.33"/>
<stop offset="0.52"/>
<stop offset="0.73"/>
<stop offset="1"/>
</linearGradient>
<linearGradient id="paint15_linear_51_126" x1="43.723" y1="102.199" x2="46.2572" y2="102.199" gradientUnits="userSpaceOnUse">
<stop/>
<stop offset="0.33"/>
<stop offset="0.52"/>
<stop offset="0.73"/>
<stop offset="1"/>
</linearGradient>
<linearGradient id="paint16_linear_51_126" x1="49.7568" y1="102.199" x2="52.291" y2="102.199" gradientUnits="userSpaceOnUse">
<stop/>
<stop offset="0.33"/>
<stop offset="0.52"/>
<stop offset="0.73"/>
<stop offset="1"/>
</linearGradient>
<linearGradient id="paint17_linear_51_126" x1="55.905" y1="102.199" x2="58.1725" y2="102.199" gradientUnits="userSpaceOnUse">
<stop/>
<stop offset="0.33"/>
<stop offset="0.52"/>
<stop offset="0.73"/>
<stop offset="1"/>
</linearGradient>
<linearGradient id="paint18_linear_51_126" x1="61.3608" y1="102.199" x2="63.9649" y2="102.199" gradientUnits="userSpaceOnUse">
<stop/>
<stop offset="0.33"/>
<stop offset="0.52"/>
<stop offset="0.73"/>
<stop offset="1"/>
</linearGradient>
<linearGradient id="paint19_linear_51_126" x1="71.7136" y1="102.199" x2="74.1907" y2="102.199" gradientUnits="userSpaceOnUse">
<stop/>
<stop offset="0.33"/>
<stop offset="0.52"/>
<stop offset="0.73"/>
<stop offset="1"/>
</linearGradient>
<linearGradient id="paint20_linear_51_126" x1="77.938" y1="102.199" x2="80.1991" y2="102.199" gradientUnits="userSpaceOnUse">
<stop/>
<stop offset="0.33"/>
<stop offset="0.52"/>
<stop offset="0.73"/>
<stop offset="1"/>
</linearGradient>
<linearGradient id="paint21_linear_51_126" x1="83.6987" y1="102.199" x2="86.2964" y2="102.199" gradientUnits="userSpaceOnUse">
<stop/>
<stop offset="0.33"/>
<stop offset="0.52"/>
<stop offset="0.73"/>
<stop offset="1"/>
</linearGradient>
<linearGradient id="paint22_linear_51_126" x1="89.7325" y1="102.199" x2="92" y2="102.199" gradientUnits="userSpaceOnUse">
<stop/>
<stop offset="0.33"/>
<stop offset="0.52"/>
<stop offset="0.73"/>
<stop offset="1"/>
</linearGradient>
<clipPath id="clip0_51_126">
<rect width="92" height="104" fill="white"/>
</clipPath>
</defs>
</svg>
