<svg width="100" height="111" viewBox="0 0 100 111" fill="none" xmlns="http://www.w3.org/2000/svg">
<g clip-path="url(#clip0_51_185)">
<path d="M44.8862 18.2282L53.7207 33.4658C54.7197 33.4455 55.7187 33.4387 56.7312 33.4387C59.3136 33.4387 61.8689 33.4996 64.3765 33.6079L44.8862 0L23.4727 36.9301C27.19 36.0843 31.1383 35.3806 35.2633 34.8258L44.893 18.2282H44.8862ZM29.0316 32.9583L44.893 5.6092L59.4156 30.6578C58.5185 30.6443 57.6283 30.6375 56.7312 30.6375C56.2691 30.6375 55.807 30.6375 55.3381 30.6375L47.3259 16.8208L44.8862 12.6123L42.4465 16.8208L33.51 32.2343C32.0014 32.4508 30.4995 32.6877 29.0316 32.9515V32.9583Z" fill="url(#paint0_linear_51_185)"/>
<path d="M31.7567 83.874C20.7136 79.0429 13.9585 72.5744 13.9585 65.4699C13.9585 63.1017 14.7061 60.8079 16.1128 58.6224H78.8855L67.4482 38.9056C71.7975 38.547 76.3031 38.3576 80.9174 38.3576C87.1356 38.3576 93.1499 38.7027 98.8583 39.3455C98.5321 39.2372 98.1923 39.1357 97.8525 39.0342C98.1855 39.1357 98.5253 39.2372 98.8583 39.3455C99.2389 39.3861 99.6194 39.4334 100.007 39.4808C99.001 39.2237 97.9749 38.9868 96.9351 38.75C87.6113 36.6796 76.8807 35.4955 65.4638 35.4819C65.3959 35.4819 65.3279 35.4819 65.2599 35.4819C62.664 35.4819 60.1019 35.5428 57.5807 35.6646C56.738 35.7052 55.9089 35.7526 55.0799 35.7999C47.122 36.2939 39.6466 37.3697 32.9188 38.9056C32.3344 39.041 31.7635 39.1763 31.1927 39.3116C27.2035 40.286 23.4998 41.4295 20.1359 42.715C7.72001 47.4446 0 54.1229 0 61.5184C0 71.0114 12.7285 79.3203 31.7567 83.874ZM57.5399 40.0491L63.0241 49.5016H26.7822C34.4546 45.2388 45.1308 41.9166 57.5399 40.0491Z" fill="url(#paint1_linear_51_185)"/>
<path d="M6.05509 102.536C6.40168 102.38 6.70069 102.163 6.95893 101.9C7.21717 101.629 7.42105 101.324 7.56376 100.979C7.71326 100.634 7.78122 100.269 7.78122 99.8832V99.1118H5.98714V99.7208C5.98714 99.9644 5.95316 100.167 5.8784 100.336C5.81044 100.499 5.7221 100.627 5.61337 100.722C5.49784 100.817 5.36872 100.885 5.2328 100.925C5.09689 100.966 4.97456 100.986 4.85224 100.986C4.44449 100.986 4.15907 100.864 4.00277 100.621C3.84646 100.377 3.76491 100.073 3.76491 99.714V93.347C3.76491 92.9275 3.83967 92.5824 3.98238 92.305C4.13189 92.0343 4.4241 91.8922 4.87263 91.8922C5.21242 91.8922 5.48425 92.0208 5.68132 92.2779C5.8784 92.535 5.98034 92.8395 5.98034 93.1846V93.78H7.77443V93.0831C7.77443 92.6501 7.69967 92.2509 7.55696 91.8855C7.40745 91.5201 7.21038 91.2021 6.95214 90.9314C6.42207 90.3834 5.74249 90.106 4.89301 90.106C4.45808 90.106 4.06393 90.1804 3.70375 90.3225C3.34357 90.4713 3.03776 90.6676 2.77952 90.9247C2.52128 91.1818 2.32421 91.4863 2.18149 91.8313C2.03878 92.1832 1.97083 92.5621 1.97083 92.9681V99.829C1.97083 100.397 2.05917 100.871 2.24266 101.236C2.42614 101.602 2.6572 101.906 2.93583 102.136C3.21445 102.373 3.53386 102.536 3.88724 102.623C4.24062 102.718 4.5872 102.766 4.92699 102.766C5.32794 102.766 5.69492 102.684 6.0415 102.529L6.05509 102.536Z" fill="url(#paint2_linear_51_185)"/>
<path d="M22.1747 93.1508C22.1747 92.6501 22.0864 92.2036 21.9097 91.8247C21.733 91.439 21.5087 91.121 21.2233 90.8638C20.9311 90.6203 20.6049 90.4308 20.2515 90.3023C19.8913 90.1737 19.5311 90.1128 19.171 90.1128C18.8108 90.1128 18.4506 90.1737 18.0904 90.3023C17.7303 90.4308 17.4109 90.6203 17.1322 90.8638C16.84 91.121 16.6022 91.439 16.4323 91.8247C16.2556 92.2103 16.1672 92.6501 16.1672 93.1508V99.7276C16.1672 100.255 16.2556 100.702 16.4323 101.074C16.609 101.446 16.84 101.757 17.1322 102.001C17.4109 102.258 17.7303 102.448 18.0904 102.576C18.4506 102.705 18.8108 102.766 19.171 102.766C19.5311 102.766 19.8913 102.698 20.2515 102.576C20.6117 102.448 20.9311 102.258 21.2233 102.001C21.5019 101.757 21.733 101.446 21.9097 101.074C22.0864 100.702 22.1747 100.249 22.1747 99.7276V93.1508ZM20.3806 99.7276C20.3806 100.161 20.2583 100.479 20.0204 100.682C19.7826 100.885 19.4972 100.986 19.171 100.986C18.8448 100.986 18.5594 100.885 18.3215 100.682C18.0836 100.479 17.9613 100.161 17.9613 99.7276V93.1508C17.9613 92.7178 18.0836 92.3998 18.3215 92.1968C18.5594 91.9938 18.8448 91.8923 19.171 91.8923C19.4972 91.8923 19.7826 91.9938 20.0204 92.1968C20.2583 92.3998 20.3806 92.7178 20.3806 93.1508V99.7276Z" fill="url(#paint3_linear_51_185)"/>
<path d="M34.842 96.8046H34.808L32.5042 90.2075H30.7849V102.664H32.579V95.0927H32.613L34.3663 100.445H35.2633L37.037 95.0927H37.0778V102.664H38.8651V90.2075H37.1254L34.842 96.8046Z" fill="url(#paint4_linear_51_185)"/>
<path d="M52.5926 91.0872C52.2868 90.7624 51.947 90.5324 51.5732 90.4038C51.1995 90.2753 50.7645 90.2144 50.2752 90.2144H47.5841V102.671H49.3782V97.8061H50.2888C50.9548 97.8061 51.4985 97.691 51.9062 97.4678C52.314 97.2377 52.647 96.9197 52.8916 96.5137C53.1023 96.1754 53.2382 95.8168 53.3062 95.4311C53.3673 95.0454 53.4013 94.5718 53.4013 94.017C53.4013 93.2727 53.3401 92.6773 53.2246 92.2442C53.1091 91.8044 52.8984 91.4255 52.5926 91.1007V91.0872ZM51.682 94.883C51.6616 95.1402 51.6072 95.3567 51.5121 95.5326C51.4169 95.7221 51.2742 95.8642 51.0703 95.9724C50.8733 96.0807 50.5878 96.128 50.2277 96.128H49.3646V91.8924H50.2956C50.649 91.8924 50.914 91.9465 51.1043 92.048C51.2946 92.1563 51.4305 92.3051 51.5257 92.5013C51.6208 92.6976 51.6752 92.9276 51.682 93.1915C51.6956 93.4554 51.7024 93.7328 51.7024 94.0237C51.7024 94.3418 51.6956 94.6259 51.6752 94.883H51.682Z" fill="url(#paint5_linear_51_185)"/>
<path d="M63.0989 90.2075L60.3058 102.664H62.0999L62.6299 99.9847H65.0696L65.5997 102.664H67.3938L64.6007 90.2075H63.1057H63.0989ZM62.9358 98.3135L63.8124 93.8004H63.8464L64.723 98.3135H62.929H62.9358Z" fill="url(#paint6_linear_51_185)"/>
<path d="M81.4747 102.664V90.2075H79.6806V97.718H79.6466L76.9419 90.2075H75.2225V102.664H77.0098V95.1807H77.0506L79.7893 102.664H81.4747Z" fill="url(#paint7_linear_51_185)"/>
<path d="M93.5779 102.664V97.4L96.038 90.2075H94.142L92.7013 95.1604H92.6673L91.2266 90.2075H89.3306L91.7906 97.4V102.664H93.5779Z" fill="url(#paint8_linear_51_185)"/>
<path d="M3.49304 110.973V107.847H4.48523V107.36H1.9436V107.847H2.93579V110.973H3.49304Z" fill="url(#paint9_linear_51_185)"/>
<path d="M8.49477 107.36L7.17639 110.973H7.76083L8.03946 110.161H9.419L9.69763 110.973H10.2753L8.95689 107.36H8.49477ZM8.19576 109.681L8.71903 108.104H8.73263L9.2559 109.681H8.19576Z" fill="url(#paint10_linear_51_185)"/>
<path d="M14.244 108.138C14.3051 108.063 14.3799 108.002 14.475 107.955C14.5702 107.908 14.6789 107.881 14.808 107.881C14.9847 107.881 15.1342 107.935 15.2565 108.029C15.3721 108.131 15.4536 108.253 15.5012 108.402H16.0856C16.0245 108.097 15.8885 107.847 15.6643 107.644C15.4468 107.441 15.1546 107.339 14.808 107.333C14.5226 107.333 14.2847 107.4 14.0944 107.535C13.8974 107.664 13.7615 107.813 13.6731 107.982C13.6187 108.07 13.578 108.185 13.5508 108.327C13.5236 108.469 13.51 108.753 13.51 109.173C13.51 109.592 13.5236 109.863 13.5508 110.012C13.5644 110.086 13.578 110.154 13.5984 110.208C13.6187 110.256 13.6459 110.31 13.6731 110.364C13.7615 110.533 13.9042 110.675 14.0944 110.804C14.2847 110.939 14.5226 111.007 14.808 111.013C15.175 111.007 15.4876 110.885 15.7322 110.641C15.9769 110.398 16.0992 110.093 16.106 109.728V108.99H14.8148V109.511H15.5555V109.701C15.5555 109.931 15.4808 110.107 15.3449 110.249C15.2022 110.398 15.0255 110.465 14.8148 110.465C14.6857 110.465 14.5769 110.438 14.4818 110.384C14.3867 110.337 14.3119 110.276 14.2508 110.201C14.1828 110.127 14.1352 110.019 14.108 109.897C14.0809 109.768 14.0673 109.532 14.0673 109.173C14.0673 108.814 14.0809 108.578 14.108 108.449C14.1284 108.327 14.176 108.226 14.2508 108.151L14.244 108.138Z" fill="url(#paint11_linear_51_185)"/>
<path d="M19.8097 107.36V110.973H22.1271V110.452H20.3602V107.36H19.8097Z" fill="url(#paint12_linear_51_185)"/>
<path d="M26.259 107.36H25.7085V110.973H26.259V107.36Z" fill="url(#paint13_linear_51_185)"/>
<path d="M30.0781 107.36V110.973H30.6286V108.402H30.6422L32.28 110.973H32.8032V107.36H32.2528V109.924H32.246L30.6014 107.36H30.0781Z" fill="url(#paint14_linear_51_185)"/>
<path d="M38.9534 107.874V107.36H36.6293V110.973H38.9534V110.452H37.1797V109.39H38.6952V108.909H37.1797V107.874H38.9534Z" fill="url(#paint15_linear_51_185)"/>
<path d="M46.8502 107.975C46.7958 108.063 46.755 108.178 46.7278 108.32C46.7006 108.463 46.6938 108.747 46.6938 109.166C46.6938 109.586 46.7074 109.856 46.7278 110.005C46.7414 110.08 46.755 110.147 46.7754 110.201C46.7958 110.249 46.823 110.303 46.8502 110.357C46.9385 110.526 47.0812 110.668 47.2715 110.797C47.4618 110.932 47.6996 111 47.985 111.007C48.352 111 48.6646 110.878 48.9093 110.635C49.1539 110.391 49.2762 110.086 49.283 109.721V108.984H47.9918V109.505H48.7326V109.694C48.7326 109.924 48.6578 110.1 48.5151 110.242C48.3724 110.391 48.1957 110.459 47.985 110.459C47.8559 110.459 47.7472 110.432 47.6521 110.377C47.5569 110.33 47.4822 110.269 47.421 110.195C47.353 110.12 47.3055 110.012 47.2783 109.89C47.2511 109.762 47.2375 109.525 47.2375 109.166C47.2375 108.808 47.2511 108.571 47.2783 108.442C47.2987 108.32 47.3462 108.219 47.421 108.145C47.4822 108.07 47.5569 108.009 47.6521 107.962C47.7472 107.914 47.8559 107.887 47.985 107.887C48.1617 107.887 48.3112 107.942 48.4336 108.036C48.5491 108.138 48.6306 108.26 48.6782 108.408H49.2627C49.2015 108.104 49.0656 107.854 48.8413 107.651C48.6171 107.448 48.3316 107.346 47.985 107.339C47.6996 107.339 47.4618 107.407 47.2715 107.542C47.0744 107.671 46.9385 107.82 46.8502 107.989V107.975Z" fill="url(#paint16_linear_51_185)"/>
<path d="M53.0208 107.976C52.9664 108.064 52.9256 108.179 52.8984 108.321C52.8713 108.463 52.8577 108.747 52.8577 109.167C52.8577 109.586 52.8713 109.857 52.8984 110.006C52.912 110.08 52.9256 110.148 52.946 110.202C52.9664 110.249 52.9936 110.303 53.0208 110.357C53.1091 110.527 53.2518 110.669 53.4421 110.797C53.6324 110.933 53.8702 111 54.1557 111.007C54.4479 111 54.6857 110.933 54.876 110.797C55.0663 110.669 55.2022 110.52 55.2906 110.357C55.3517 110.269 55.3925 110.154 55.4197 110.006C55.4401 109.864 55.4537 109.579 55.4537 109.167C55.4537 108.754 55.4401 108.463 55.4197 108.321C55.3993 108.179 55.3517 108.064 55.2906 107.976C55.209 107.807 55.0663 107.658 54.876 107.529C54.6857 107.394 54.4411 107.326 54.1557 107.326C53.8702 107.326 53.6324 107.394 53.4421 107.529C53.245 107.658 53.1091 107.807 53.0208 107.976ZM53.4557 108.436C53.4761 108.314 53.5237 108.213 53.5984 108.138C53.6596 108.064 53.7343 108.003 53.8295 107.955C53.9246 107.908 54.0333 107.881 54.1625 107.881C54.2916 107.881 54.4071 107.908 54.5022 107.955C54.5906 108.003 54.6653 108.07 54.7197 108.138C54.7945 108.213 54.842 108.314 54.8692 108.436C54.8964 108.564 54.91 108.808 54.91 109.16C54.91 109.512 54.8964 109.755 54.8692 109.884C54.842 110.012 54.7945 110.114 54.7197 110.188C54.6653 110.263 54.5906 110.324 54.5022 110.371C54.4071 110.425 54.2916 110.452 54.1625 110.452C54.0333 110.452 53.9246 110.425 53.8295 110.371C53.7343 110.324 53.6596 110.263 53.5984 110.188C53.5237 110.114 53.4829 110.006 53.4557 109.884C53.4285 109.755 53.4149 109.518 53.4149 109.16C53.4149 108.801 53.4285 108.564 53.4557 108.436Z" fill="url(#paint17_linear_51_185)"/>
<path d="M59.1573 110.973H61.4747V110.452H59.7078V109.39H61.2165V108.909H59.7078V107.874H61.4747V107.36H59.1573V110.973Z" fill="url(#paint18_linear_51_185)"/>
<path d="M66.1298 110.452C65.7289 110.452 65.3891 110.33 65.0969 110.094L64.7367 110.506C65.1241 110.838 65.5862 111 66.123 111C66.9521 110.993 67.3803 110.642 67.4006 109.951C67.4006 109.694 67.3191 109.471 67.156 109.275C66.9929 109.079 66.7414 108.957 66.4017 108.909C66.2318 108.889 66.0959 108.869 65.9939 108.855C65.8172 108.822 65.6813 108.761 65.5998 108.679C65.5182 108.598 65.4774 108.503 65.4774 108.395C65.4774 108.219 65.5386 108.091 65.6609 108.003C65.7765 107.922 65.9124 107.874 66.0823 107.874C66.4085 107.874 66.7075 107.976 66.9793 108.152L67.2851 107.698C66.9521 107.461 66.558 107.333 66.1094 107.326C65.7357 107.326 65.4435 107.428 65.2396 107.617C65.0289 107.813 64.9202 108.064 64.9202 108.382C64.9202 108.646 65.0017 108.869 65.1716 109.052C65.3347 109.227 65.5726 109.343 65.8852 109.397C66.0619 109.424 66.2182 109.444 66.3677 109.464C66.6871 109.518 66.8434 109.681 66.8434 109.951C66.8434 110.283 66.5987 110.445 66.123 110.452H66.1298Z" fill="url(#paint19_linear_51_185)"/>
<path d="M77.8661 110.973V107.36H77.3157V108.909H75.8818V107.36H75.3313V110.973H75.8818V109.39H77.3157V110.973H77.8661Z" fill="url(#paint20_linear_51_185)"/>
<path d="M84.0163 107.874V107.36H81.6921V110.973H84.0163V110.452H82.2426V109.39H83.7581V108.909H82.2426V107.874H84.0163Z" fill="url(#paint21_linear_51_185)"/>
<path d="M89.4122 109.369C89.8743 109.194 90.1054 108.862 90.1122 108.368C90.1054 108.036 89.9831 107.779 89.752 107.597C89.5617 107.441 89.3171 107.36 89.0113 107.36H87.5909V110.973H88.1414V109.43H88.8414L89.5889 110.973H90.2413L89.3986 109.369H89.4122ZM88.1414 108.943V107.847H89.0045C89.1812 107.847 89.3171 107.881 89.4054 107.955C89.5209 108.036 89.5821 108.179 89.5889 108.361C89.5889 108.517 89.5413 108.652 89.4394 108.76C89.3375 108.876 89.1812 108.936 88.9773 108.936H88.1482L88.1414 108.943Z" fill="url(#paint22_linear_51_185)"/>
<path d="M96.0857 107.874V107.36H93.7683V110.973H96.0857V110.452H94.3188V109.39H95.8274V108.909H94.3188V107.874H96.0857Z" fill="url(#paint23_linear_51_185)"/>
</g>
<defs>
<linearGradient id="paint0_linear_51_185" x1="23.4727" y1="18.465" x2="64.3765" y2="18.465" gradientUnits="userSpaceOnUse">
<stop/>
<stop offset="0.33"/>
<stop offset="0.52"/>
<stop offset="0.73"/>
<stop offset="1"/>
</linearGradient>
<linearGradient id="paint1_linear_51_185" x1="0" y1="59.6712" x2="100" y2="59.6712" gradientUnits="userSpaceOnUse">
<stop/>
<stop offset="0.33"/>
<stop offset="0.52"/>
<stop offset="0.73"/>
<stop offset="1"/>
</linearGradient>
<linearGradient id="paint2_linear_51_185" x1="1.98442" y1="96.4392" x2="7.78802" y2="96.4392" gradientUnits="userSpaceOnUse">
<stop/>
<stop offset="0.33"/>
<stop offset="0.52"/>
<stop offset="0.73"/>
<stop offset="1"/>
</linearGradient>
<linearGradient id="paint3_linear_51_185" x1="16.1672" y1="96.4392" x2="22.1747" y2="96.4392" gradientUnits="userSpaceOnUse">
<stop/>
<stop offset="0.33"/>
<stop offset="0.52"/>
<stop offset="0.73"/>
<stop offset="1"/>
</linearGradient>
<linearGradient id="paint4_linear_51_185" x1="30.7849" y1="96.4392" x2="38.8651" y2="96.4392" gradientUnits="userSpaceOnUse">
<stop/>
<stop offset="0.33"/>
<stop offset="0.52"/>
<stop offset="0.73"/>
<stop offset="1"/>
</linearGradient>
<linearGradient id="paint5_linear_51_185" x1="47.5841" y1="96.4393" x2="53.3945" y2="96.4393" gradientUnits="userSpaceOnUse">
<stop/>
<stop offset="0.33"/>
<stop offset="0.52"/>
<stop offset="0.73"/>
<stop offset="1"/>
</linearGradient>
<linearGradient id="paint6_linear_51_185" x1="60.3058" y1="96.4392" x2="67.3802" y2="96.4392" gradientUnits="userSpaceOnUse">
<stop/>
<stop offset="0.33"/>
<stop offset="0.52"/>
<stop offset="0.73"/>
<stop offset="1"/>
</linearGradient>
<linearGradient id="paint7_linear_51_185" x1="75.2225" y1="96.4392" x2="81.4747" y2="96.4392" gradientUnits="userSpaceOnUse">
<stop/>
<stop offset="0.33"/>
<stop offset="0.52"/>
<stop offset="0.73"/>
<stop offset="1"/>
</linearGradient>
<linearGradient id="paint8_linear_51_185" x1="89.3306" y1="96.4392" x2="96.038" y2="96.4392" gradientUnits="userSpaceOnUse">
<stop/>
<stop offset="0.33"/>
<stop offset="0.52"/>
<stop offset="0.73"/>
<stop offset="1"/>
</linearGradient>
<linearGradient id="paint9_linear_51_185" x1="1.9436" y1="109.166" x2="4.48523" y2="109.166" gradientUnits="userSpaceOnUse">
<stop/>
<stop offset="0.33"/>
<stop offset="0.52"/>
<stop offset="0.73"/>
<stop offset="1"/>
</linearGradient>
<linearGradient id="paint10_linear_51_185" x1="7.17639" y1="109.166" x2="10.2753" y2="109.166" gradientUnits="userSpaceOnUse">
<stop/>
<stop offset="0.33"/>
<stop offset="0.52"/>
<stop offset="0.73"/>
<stop offset="1"/>
</linearGradient>
<linearGradient id="paint11_linear_51_185" x1="13.51" y1="109.166" x2="16.106" y2="109.166" gradientUnits="userSpaceOnUse">
<stop/>
<stop offset="0.33"/>
<stop offset="0.52"/>
<stop offset="0.73"/>
<stop offset="1"/>
</linearGradient>
<linearGradient id="paint12_linear_51_185" x1="19.8097" y1="109.166" x2="22.1271" y2="109.166" gradientUnits="userSpaceOnUse">
<stop/>
<stop offset="0.33"/>
<stop offset="0.52"/>
<stop offset="0.73"/>
<stop offset="1"/>
</linearGradient>
<linearGradient id="paint13_linear_51_185" x1="25.7085" y1="109.166" x2="26.259" y2="109.166" gradientUnits="userSpaceOnUse">
<stop/>
<stop offset="0.33"/>
<stop offset="0.52"/>
<stop offset="0.73"/>
<stop offset="1"/>
</linearGradient>
<linearGradient id="paint14_linear_51_185" x1="30.0781" y1="109.166" x2="32.8032" y2="109.166" gradientUnits="userSpaceOnUse">
<stop/>
<stop offset="0.33"/>
<stop offset="0.52"/>
<stop offset="0.73"/>
<stop offset="1"/>
</linearGradient>
<linearGradient id="paint15_linear_51_185" x1="36.6293" y1="109.166" x2="38.9534" y2="109.166" gradientUnits="userSpaceOnUse">
<stop/>
<stop offset="0.33"/>
<stop offset="0.52"/>
<stop offset="0.73"/>
<stop offset="1"/>
</linearGradient>
<linearGradient id="paint16_linear_51_185" x1="46.6871" y1="109.166" x2="49.283" y2="109.166" gradientUnits="userSpaceOnUse">
<stop/>
<stop offset="0.33"/>
<stop offset="0.52"/>
<stop offset="0.73"/>
<stop offset="1"/>
</linearGradient>
<linearGradient id="paint17_linear_51_185" x1="52.8645" y1="109.167" x2="55.4537" y2="109.167" gradientUnits="userSpaceOnUse">
<stop/>
<stop offset="0.33"/>
<stop offset="0.52"/>
<stop offset="0.73"/>
<stop offset="1"/>
</linearGradient>
<linearGradient id="paint18_linear_51_185" x1="59.1573" y1="109.166" x2="61.4747" y2="109.166" gradientUnits="userSpaceOnUse">
<stop/>
<stop offset="0.33"/>
<stop offset="0.52"/>
<stop offset="0.73"/>
<stop offset="1"/>
</linearGradient>
<linearGradient id="paint19_linear_51_185" x1="64.7435" y1="109.167" x2="67.4006" y2="109.167" gradientUnits="userSpaceOnUse">
<stop/>
<stop offset="0.33"/>
<stop offset="0.52"/>
<stop offset="0.73"/>
<stop offset="1"/>
</linearGradient>
<linearGradient id="paint20_linear_51_185" x1="75.3313" y1="109.166" x2="77.8661" y2="109.166" gradientUnits="userSpaceOnUse">
<stop/>
<stop offset="0.33"/>
<stop offset="0.52"/>
<stop offset="0.73"/>
<stop offset="1"/>
</linearGradient>
<linearGradient id="paint21_linear_51_185" x1="81.6921" y1="109.166" x2="84.0163" y2="109.166" gradientUnits="userSpaceOnUse">
<stop/>
<stop offset="0.33"/>
<stop offset="0.52"/>
<stop offset="0.73"/>
<stop offset="1"/>
</linearGradient>
<linearGradient id="paint22_linear_51_185" x1="87.5909" y1="109.166" x2="90.2481" y2="109.166" gradientUnits="userSpaceOnUse">
<stop/>
<stop offset="0.33"/>
<stop offset="0.52"/>
<stop offset="0.73"/>
<stop offset="1"/>
</linearGradient>
<linearGradient id="paint23_linear_51_185" x1="93.7683" y1="109.166" x2="96.0857" y2="109.166" gradientUnits="userSpaceOnUse">
<stop/>
<stop offset="0.33"/>
<stop offset="0.52"/>
<stop offset="0.73"/>
<stop offset="1"/>
</linearGradient>
<clipPath id="clip0_51_185">
<rect width="100" height="111" fill="white"/>
</clipPath>
</defs>
</svg>
