<svg width="76" height="108" viewBox="0 0 76 108" fill="none" xmlns="http://www.w3.org/2000/svg">
<g clip-path="url(#clip0_51_151)">
<path d="M69.608 62.2588C68.4835 64.2469 67.1486 66.1166 65.6361 67.8349L65.6755 67.8744L64.2682 69.2898C58.0078 75.5966 49.6627 79.0727 40.7784 79.0727C31.8941 79.0727 23.6148 75.623 17.3543 69.3622C11.1005 63.1014 7.65459 54.7735 7.65459 45.9189C7.65459 45.2671 7.67431 44.6022 7.71377 43.9439C7.71377 43.8517 7.72035 43.7595 7.72692 43.6674V43.641C7.72692 43.5818 7.74008 43.5225 7.74008 43.4567V43.4238C7.75323 43.2855 7.76638 43.1473 7.77296 43.0156C7.78611 42.9037 7.79269 42.7852 7.80584 42.6667C7.82557 42.4889 7.83872 42.3112 7.85845 42.1334C7.8716 42.0281 7.88475 41.9162 7.8979 41.7977C7.91106 41.6528 7.93736 41.4883 7.95709 41.3237C7.97024 41.2315 7.98339 41.1459 7.99654 41.0538C8.01627 40.9023 8.04258 40.7378 8.06888 40.5732C8.08203 40.4876 8.10176 40.3888 8.11491 40.2901C8.12807 40.2111 8.14122 40.1255 8.16095 40.0465C8.18068 39.9412 8.2004 39.8161 8.22013 39.7042C8.23986 39.5988 8.25959 39.4869 8.28589 39.375C8.3122 39.2433 8.3385 39.1183 8.36481 38.9866C8.55551 38.0847 8.78568 37.1762 9.0553 36.2874V36.2611C9.09475 36.1426 9.13421 36.0307 9.17367 35.9122C9.20655 35.8134 9.23285 35.7147 9.27231 35.6093C9.45644 35.03 9.66687 34.4441 9.89046 33.8779C9.92334 33.7989 9.94965 33.7133 9.9891 33.6343C10.022 33.5487 10.0614 33.4566 10.0943 33.3644C10.1404 33.2525 10.1864 33.134 10.239 33.0155C10.2785 32.9233 10.3179 32.8246 10.3639 32.7192L10.3837 32.6732C10.4429 32.5349 10.502 32.3966 10.5678 32.2584C10.6138 32.1596 10.6599 32.0543 10.7059 31.9556C11.5411 30.1517 12.5538 28.4071 13.7112 26.7679L13.8953 26.5111C14.0268 26.3268 14.1584 26.149 14.2899 25.9779C14.3556 25.8989 14.4214 25.8067 14.4872 25.7211C14.6318 25.5368 14.7765 25.3459 14.9278 25.1615C15.0132 25.0562 15.0987 24.9443 15.1908 24.839C15.2697 24.7402 15.3618 24.6349 15.4538 24.523C15.5393 24.4176 15.6314 24.3123 15.7235 24.207C15.8221 24.0885 15.9273 23.97 16.0325 23.8514L12.1461 19.9541C5.69491 27.0707 2.15039 36.2545 2.15039 45.9057C2.15039 56.235 6.16839 65.9389 13.4613 73.2398C20.7542 80.5407 30.4539 84.5632 40.7653 84.5632C51.0766 84.5632 60.8355 80.521 68.1284 73.174C70.213 71.0805 72.0478 68.7565 73.5997 66.2614L69.5883 62.2456L69.608 62.2588Z" fill="url(#paint0_linear_51_151)"/>
<path d="M20.1886 66.5312C25.6862 72.0349 33.0054 75.0698 40.785 75.0698C41.0283 75.0698 41.2716 75.0698 41.5149 75.0566C41.6333 75.0566 41.7517 75.0566 41.8766 75.0435H41.8963C42.0739 75.0369 42.2514 75.0303 42.4356 75.0171C42.5803 75.0106 42.7183 75.004 42.863 74.9908C42.9354 74.9908 43.0011 74.9776 43.0603 74.9776H43.1589C43.2905 74.9579 43.422 74.9447 43.5535 74.9316C43.6719 74.925 43.7837 74.9118 43.8955 74.8986C43.9744 74.8921 44.0467 74.8855 44.1125 74.8723L44.2572 74.8591C44.3558 74.846 44.4479 74.8328 44.5465 74.8196C44.9082 74.7736 45.2633 74.7209 45.6053 74.6682C45.7039 74.6551 45.796 74.6353 45.8946 74.6156H45.9275C46.0064 74.5958 46.0787 74.5826 46.1577 74.5695H46.1971C46.2957 74.5431 46.3944 74.5234 46.493 74.5036C46.7561 74.451 47.0125 74.3983 47.269 74.3391C47.44 74.2996 47.611 74.2601 47.782 74.2206H47.8017C47.8477 74.2074 47.8872 74.1942 47.9332 74.1811C48.0581 74.1481 48.1765 74.1218 48.2883 74.0889C48.3869 74.0626 48.479 74.0362 48.5711 74.0099C48.65 73.9901 48.7223 73.9704 48.7947 73.9506C48.8604 73.9309 48.913 73.9177 48.9656 73.898L49.0051 73.8848C49.0774 73.8651 49.1498 73.8453 49.2221 73.819C49.3405 73.7861 49.4457 73.7531 49.5509 73.7202C49.6364 73.6939 49.7087 73.6676 49.7877 73.6478C50.031 73.5688 50.2743 73.4832 50.5176 73.3976C50.5834 73.3713 50.6491 73.3516 50.7083 73.3252L50.7543 73.3121C50.8398 73.2791 50.9187 73.2528 50.9911 73.2265C51.1095 73.1804 51.2213 73.1409 51.3265 73.1014C51.4185 73.0685 51.4974 73.0356 51.5764 73.0026C51.7276 72.9434 51.8591 72.8907 51.9972 72.8315L52.4049 72.6603C52.5299 72.6076 52.6548 72.555 52.7732 72.4957C52.8455 72.4628 52.9047 72.4365 52.9639 72.4101L53.0231 72.3838C53.1217 72.3377 53.2204 72.2916 53.319 72.239C53.9306 71.9493 54.5356 71.6333 55.1209 71.3041C55.1866 71.2712 55.2458 71.2317 55.305 71.1988C55.4431 71.1198 55.5746 71.0408 55.7061 70.9618L56.3703 70.5536C56.6663 70.3693 56.9688 70.1652 57.2976 69.9414C57.3896 69.8755 57.4817 69.8163 57.5672 69.7505L57.6066 69.7241C57.6724 69.678 57.7447 69.6254 57.8105 69.5793L57.8302 69.5661C57.8828 69.5332 57.9289 69.4937 57.9749 69.4608L57.9946 69.4476C58.0801 69.3884 58.159 69.3291 58.2445 69.2633C58.3366 69.1909 58.4287 69.125 58.5141 69.0592C58.5733 69.0131 58.6259 68.967 58.6785 68.9275L58.7377 68.8815C58.8298 68.809 58.9219 68.7366 59.0139 68.6642C59.1126 68.5852 59.1981 68.5128 59.2901 68.4338L59.3164 68.414C59.494 68.2692 59.665 68.1244 59.8359 67.9729C59.8885 67.9269 59.9412 67.8808 59.9938 67.8347L56.1007 63.9374C51.8394 67.5779 46.4338 69.5661 40.7916 69.5661C27.7643 69.5661 17.1636 58.9537 17.1636 45.9121C17.1636 39.5592 19.6494 33.5881 24.154 29.118C26.2715 27.0179 28.8033 25.3128 31.539 24.1475L27.4092 20.0132C24.7787 21.3825 22.3719 23.1337 20.2544 25.2404C14.7107 30.7572 11.6594 38.0977 11.6594 45.9187C11.6594 53.7397 14.691 61.0275 20.1886 66.5378V66.5312Z" fill="url(#paint1_linear_51_151)"/>
<path d="M73.8299 38.6575C73.8299 28.3348 69.8119 18.6243 62.519 11.3234C55.2261 4.02243 45.5264 0 35.215 0C24.9037 0 15.1448 4.04218 7.84529 11.3892C5.76067 13.4827 3.92594 15.8066 2.38055 18.3017L6.39198 22.3176C7.51649 20.3294 8.85144 18.4597 10.3639 16.7415L10.3245 16.702L11.7318 15.2866C17.9922 8.97312 26.3373 5.50369 35.2216 5.50369C44.1059 5.50369 52.3852 8.95337 58.6391 15.2141C64.893 21.4749 68.3388 29.8029 68.3388 38.6575C68.3388 39.3158 68.3191 39.9807 68.2797 40.6325C68.2797 40.7181 68.2665 40.8168 68.2665 40.909C68.2665 40.9748 68.2533 41.0407 68.2533 41.1131V41.146C68.2402 41.2842 68.227 41.4225 68.2205 41.5542C68.2073 41.6661 68.2007 41.7912 68.1876 41.9097C68.1679 42.0808 68.1547 42.2652 68.135 42.4429C68.1218 42.5483 68.1087 42.6602 68.0955 42.7787C68.0824 42.9235 68.0561 43.0881 68.0363 43.2527C68.0232 43.3448 68.01 43.4304 67.9969 43.5226C67.9772 43.674 67.9509 43.8386 67.9245 44.0032C67.9114 44.0888 67.8917 44.1875 67.8785 44.2863C67.8654 44.3653 67.8522 44.4508 67.8325 44.5298C67.8193 44.6352 67.793 44.7603 67.7733 44.8722C67.7536 44.9775 67.7338 45.0894 67.7075 45.2013C67.6812 45.3264 67.6549 45.4581 67.6286 45.5898C67.4379 46.4917 67.2078 47.4068 66.9381 48.2889C66.8987 48.414 66.8658 48.5391 66.8198 48.6642C66.7869 48.7629 66.7606 48.8617 66.7211 48.967C66.5304 49.5464 66.3266 50.1323 66.103 50.6985C66.0701 50.7775 66.0438 50.8564 66.0109 50.942C65.978 51.0342 65.9386 51.1198 65.8991 51.212C65.8531 51.3239 65.8005 51.4424 65.7544 51.5609C65.715 51.653 65.6755 51.7518 65.6295 51.8571L65.6098 51.9032C65.5506 52.0415 65.4914 52.1797 65.4256 52.3114C65.3796 52.4101 65.3336 52.5155 65.2875 52.6142C64.4524 54.418 63.4396 56.1626 62.2823 57.8019L62.0981 58.0586C61.9666 58.243 61.8351 58.4207 61.7036 58.5919C61.6378 58.6775 61.572 58.7631 61.5063 58.8486C61.3616 59.033 61.2169 59.2239 61.0657 59.4082C60.9802 59.5136 60.8947 59.6255 60.8026 59.7308C60.7237 59.823 60.6448 59.9217 60.5593 60.0271L60.5462 60.0468C60.4541 60.1522 60.362 60.2575 60.27 60.3628C60.1713 60.4813 60.0661 60.5998 59.9609 60.7183L63.8474 64.6157C70.2985 57.4991 73.843 48.3153 73.843 38.6575H73.8299Z" fill="url(#paint2_linear_51_151)"/>
<path d="M44.461 60.4286L48.5908 64.563C51.2213 63.1936 53.6281 61.4425 55.7456 59.3358C61.2893 53.8189 64.3406 46.4785 64.3406 38.6575C64.3406 30.8364 61.309 23.5487 55.8114 18.045C50.3138 12.5413 42.9946 9.50635 35.215 9.50635C34.9717 9.50635 34.7284 9.50635 34.4851 9.51951C34.3667 9.51951 34.2418 9.51951 34.1234 9.53268H34.1037C33.9261 9.53926 33.7486 9.54585 33.5644 9.55902C33.4198 9.5656 33.2817 9.57218 33.137 9.58535C33.0646 9.58535 32.9989 9.59851 32.9397 9.59851H32.8411C32.7161 9.61826 32.578 9.63143 32.4465 9.63802C32.3281 9.65118 32.2163 9.65776 32.1045 9.67093C32.0256 9.67751 31.9533 9.6841 31.8809 9.69727L31.7692 9.71043C31.7692 9.71043 31.7428 9.71043 31.7297 9.71043C31.6311 9.7236 31.5456 9.73018 31.4469 9.74335C31.0852 9.78943 30.7301 9.8421 30.3882 9.90135C30.2895 9.91452 30.1975 9.93427 30.0988 9.95402H30.0659C29.987 9.97377 29.9213 9.98693 29.8489 10.0001H29.8029C29.7043 10.0264 29.6122 10.0462 29.5136 10.0659C29.2439 10.1186 28.9875 10.1713 28.731 10.2305C28.56 10.27 28.389 10.3095 28.2181 10.349H28.1983C28.1523 10.3622 28.1128 10.3754 28.0668 10.3819C27.9419 10.4149 27.8235 10.4412 27.7117 10.4741C27.6131 10.5004 27.521 10.5268 27.4289 10.5531C27.35 10.5729 27.2777 10.5926 27.2053 10.6124C27.1396 10.6321 27.087 10.6453 27.0344 10.665L26.9949 10.6782C26.9226 10.6979 26.8502 10.7177 26.7779 10.744C26.6595 10.7769 26.5543 10.8099 26.4491 10.8428C26.3636 10.8691 26.2913 10.8954 26.2123 10.9152C25.969 10.9942 25.7257 11.0798 25.4824 11.1654C25.4166 11.1851 25.3575 11.2114 25.2983 11.2312L25.2391 11.2509C25.1602 11.2839 25.0878 11.3036 25.0089 11.3365C24.884 11.3826 24.7788 11.4221 24.667 11.4682C24.5749 11.5011 24.5026 11.534 24.4171 11.5669C24.2658 11.6262 24.1343 11.6789 23.9962 11.7381L23.5885 11.9093C23.4635 11.9619 23.3386 12.0146 23.2202 12.0739C23.1479 12.1068 23.0887 12.1331 23.0295 12.1594L22.9703 12.1858C22.8717 12.2319 22.773 12.2779 22.6744 12.3306C22.0628 12.6203 21.4578 12.9363 20.8726 13.2654C20.8068 13.2984 20.7476 13.3379 20.6884 13.3708C20.5635 13.4432 20.432 13.5156 20.307 13.5946L19.8861 13.8514C19.8006 13.904 19.7086 13.9633 19.6165 14.0159C19.3206 14.2003 19.0181 14.4044 18.6893 14.6282C18.6038 14.6875 18.5249 14.7467 18.4394 14.7994L18.3868 14.8389C18.3079 14.8915 18.2421 14.9376 18.1764 14.9903L18.15 15.01C18.104 15.043 18.058 15.0759 18.012 15.1088L17.9922 15.122C17.9067 15.1812 17.8278 15.2405 17.7423 15.3063C17.6503 15.3787 17.5582 15.4445 17.4727 15.5104C17.4069 15.5565 17.3543 15.6025 17.3083 15.642L17.2425 15.6947C17.1505 15.7671 17.0584 15.8395 16.9664 15.912C16.8611 15.991 16.7625 16.0765 16.6639 16.1621C16.4863 16.307 16.3153 16.4518 16.1443 16.6032C16.0917 16.6493 16.0391 16.6954 15.9865 16.7415L19.8796 20.6388C24.1409 16.9982 29.5464 15.0035 35.1887 15.0035C48.216 15.0035 58.8167 25.6158 58.8167 38.6575C58.8167 45.017 56.3309 50.9815 51.8263 55.4582C49.7088 57.5583 47.177 59.2634 44.4413 60.4286H44.461Z" fill="url(#paint3_linear_51_151)"/>
<path d="M6.08292 98.395C5.93825 99.0402 5.66205 99.5339 5.26749 99.8697C4.85977 100.192 4.36656 100.363 3.78129 100.363C3.30123 100.363 2.86063 100.245 2.43976 100.001C2.03204 99.7643 1.73612 99.3891 1.53884 98.8953C1.33498 98.4016 1.23634 97.8156 1.23634 97.1573C1.23634 96.6438 1.32183 96.1369 1.48623 95.6563C1.65063 95.1757 1.93998 94.7939 2.33455 94.5042C2.74226 94.2277 3.2552 94.0829 3.85363 94.0829C4.37971 94.0829 4.81374 94.2014 5.16227 94.4647C5.5108 94.7149 5.77385 95.1231 5.9514 95.6892L5.97771 95.7485L7.17456 95.472L7.14825 95.3996C6.91809 94.6556 6.52352 94.0697 5.96455 93.6484C5.39901 93.2402 4.70852 93.0361 3.87993 93.0361C3.16313 93.0361 2.49237 93.1941 1.88079 93.5167C1.28237 93.8525 0.802314 94.3331 0.480085 94.9585C0.157856 95.5839 -0.0131226 96.3278 -0.0131226 97.1507C-0.0131226 97.921 0.131552 98.6517 0.4209 99.3101C0.710249 99.9816 1.1377 100.508 1.70324 100.857C2.25563 101.219 2.98558 101.397 3.87335 101.397C4.76113 101.397 5.45162 101.16 6.05662 100.699C6.65504 100.245 7.06276 99.5602 7.29293 98.6846L7.31923 98.6122L6.10923 98.3094L6.08292 98.3818V98.395Z" fill="url(#paint4_linear_51_151)"/>
<path d="M17.0584 93.5691C16.4468 93.2071 15.7497 93.0293 15.0001 93.0293C13.8361 93.0293 12.8826 93.4111 12.146 94.1682C11.4161 94.9253 11.0413 95.9918 11.0413 97.3216C11.0413 98.0261 11.1991 98.6976 11.5213 99.3362C11.8304 99.9747 12.2973 100.475 12.9089 100.85C13.5204 101.219 14.2175 101.403 14.9803 101.403C15.6971 101.403 16.3679 101.232 16.9795 100.903C17.6042 100.58 18.0843 100.073 18.4262 99.4283C18.7616 98.7897 18.9326 98.0524 18.9326 97.2361C18.9326 96.4197 18.7682 95.7153 18.4525 95.0767C18.1303 94.4381 17.6634 93.9378 17.0518 93.5757L17.0584 93.5691ZM16.9269 99.5402C16.4205 100.08 15.7629 100.357 14.9869 100.357C14.2109 100.357 13.5731 100.08 13.0601 99.5534C12.5603 99.0136 12.2907 98.2697 12.2907 97.3348C12.2907 96.1696 12.5669 95.3203 13.093 94.8266C13.6191 94.3328 14.2701 94.0826 15.0001 94.0826C15.5262 94.0826 15.9931 94.2143 16.4139 94.4645C16.8217 94.7146 17.1439 95.0899 17.3609 95.5573C17.5779 96.0247 17.6831 96.5909 17.6831 97.2229C17.6831 98.217 17.4332 99.0004 16.9269 99.5402Z" fill="url(#paint5_linear_51_151)"/>
<path d="M29.4084 93.3786L27.4816 98.8823C27.3237 99.3233 27.2054 99.6723 27.1199 99.9488L26.7976 98.9876L24.8708 93.3062H24.7393V96.2423L26.5214 101.397H27.5868L29.4084 96.2489V93.372V93.3786Z" fill="url(#paint6_linear_51_151)"/>
<path d="M24.3118 93.3062H23.1347V101.404H24.3118V93.3062Z" fill="url(#paint7_linear_51_151)"/>
<path d="M31.0063 93.3062H29.8423V101.404H31.0063V93.3062Z" fill="url(#paint8_linear_51_151)"/>
<path d="M36.4053 93.3062H35.1953V101.404H36.4053V93.3062Z" fill="url(#paint9_linear_51_151)"/>
<path d="M41.2716 94.5636C41.094 94.2278 40.877 93.9513 40.5877 93.7736C40.3115 93.5827 39.9629 93.451 39.5684 93.3917C39.279 93.3325 38.8647 93.3062 38.3255 93.3062H36.8393V94.3858H38.411C38.891 94.3858 39.2133 94.4122 39.3908 94.4582C39.6539 94.5307 39.8709 94.6755 40.0287 94.8993C40.1931 95.1297 40.2654 95.3931 40.2654 95.7157C40.2654 96.1502 40.1339 96.4859 39.8577 96.7229C39.5815 96.9599 39.1015 97.085 38.4307 97.085H36.8393V98.1778H38.4176C39.5684 98.1778 40.397 97.9277 40.8376 97.4471C41.2913 96.9665 41.5215 96.3806 41.5215 95.6827C41.5215 95.2746 41.436 94.9059 41.2716 94.5702V94.5636Z" fill="url(#paint10_linear_51_151)"/>
<path d="M48.8801 93.3062L45.717 101.404H46.9994L47.3611 100.456H47.3479L48.2554 98.0001L48.4461 97.4998L49.1169 95.7157H49.13C49.2747 95.3207 49.3931 94.9125 49.4917 94.5175C49.6101 94.8993 49.7811 95.3667 49.9849 95.8934L50.8004 98.0067H48.7289L48.3606 99.0008H51.1884L52.1353 101.41H53.5097L50.1296 93.3127H48.8867L48.8801 93.3062Z" fill="url(#paint11_linear_51_151)"/>
<path d="M58.6983 93.3062H57.5738V101.404H58.6983V93.3062Z" fill="url(#paint12_linear_51_151)"/>
<path d="M62.9201 99.3892L62.8938 99.3497V101.404H64.0906V93.3062H62.9201V99.3892Z" fill="url(#paint13_linear_51_151)"/>
<path d="M59.1323 95.8997L62.4598 100.791V98.7174L59.1323 93.8325V95.8997Z" fill="url(#paint14_linear_51_151)"/>
<path d="M74.5598 93.3062L72.9684 95.6827C72.6593 96.1502 72.3831 96.5912 72.1398 96.9797V96.9665L71.4691 97.9869V101.404H72.6922V97.9869L75.9868 93.3127H74.5598V93.3062Z" fill="url(#paint15_linear_51_151)"/>
<path d="M71.89 96.5452L71.3836 95.742L69.7725 93.3062H68.2863L71.206 97.5985L71.89 96.5452Z" fill="url(#paint16_linear_51_151)"/>
<path d="M0 105.439H0.802284V107.98H1.24946V105.439H2.05174V105.044H0V105.439Z" fill="url(#paint17_linear_51_151)"/>
<path d="M5.28719 105.044L4.22186 107.98H4.69534L4.91893 107.322H6.03029L6.26045 107.98H6.72736L5.66203 105.044H5.28719ZM5.05045 106.927L5.4779 105.643H5.48447L5.91192 106.927H5.05703H5.05045Z" fill="url(#paint18_linear_51_151)"/>
<path d="M10.3903 106.782H10.9887V106.934C10.9887 107.118 10.9295 107.263 10.8177 107.381C10.7059 107.5 10.5612 107.559 10.3903 107.559C10.285 107.559 10.193 107.539 10.1206 107.493C10.0417 107.454 9.98255 107.408 9.93651 107.348C9.87733 107.283 9.83787 107.204 9.82472 107.098C9.80499 106.999 9.79184 106.802 9.79184 106.512C9.79184 106.223 9.80499 106.025 9.82472 105.92C9.84445 105.821 9.88391 105.742 9.93651 105.676C9.98255 105.617 10.0417 105.564 10.1206 105.525C10.193 105.485 10.285 105.465 10.3903 105.465C10.5349 105.465 10.6533 105.512 10.752 105.591C10.844 105.676 10.9098 105.775 10.9492 105.893H11.4227C11.3767 105.65 11.2649 105.439 11.0873 105.275C10.9098 105.11 10.6796 105.024 10.3968 105.024C10.1667 105.024 9.97597 105.084 9.81814 105.189C9.66032 105.294 9.54852 105.413 9.47619 105.551C9.43015 105.624 9.39727 105.716 9.37755 105.828C9.35782 105.946 9.34467 106.17 9.34467 106.512C9.34467 106.855 9.35782 107.072 9.37755 107.19C9.3907 107.256 9.40385 107.309 9.417 107.348C9.43673 107.388 9.45646 107.434 9.47619 107.473C9.54852 107.612 9.66032 107.73 9.81814 107.829C9.9694 107.934 10.1667 107.994 10.3968 108C10.6928 108 10.9427 107.895 11.1399 107.697C11.3372 107.5 11.4359 107.25 11.4424 106.96V106.361H10.4034V106.782H10.3903Z" fill="url(#paint19_linear_51_151)"/>
<path d="M14.862 105.044H14.4214V107.98H16.2956V107.559H14.862V105.044Z" fill="url(#paint20_linear_51_151)"/>
<path d="M19.6297 105.044H19.1825V107.98H19.6297V105.044Z" fill="url(#paint21_linear_51_151)"/>
<path d="M24.4697 107.131H24.4631L23.1347 105.044H22.7139V107.98H23.161V105.893H23.1676L24.496 107.98H24.9103V105.044H24.4697V107.131Z" fill="url(#paint22_linear_51_151)"/>
<path d="M28.001 107.98H29.8752V107.559H28.4482V106.696H29.6648V106.301H28.4482V105.465H29.8752V105.044H28.001V107.98Z" fill="url(#paint23_linear_51_151)"/>
<path d="M37.1747 106.782H37.7731V106.934C37.7731 107.118 37.7139 107.263 37.6021 107.381C37.4903 107.5 37.3457 107.559 37.1747 107.559C37.0695 107.559 36.9774 107.539 36.9051 107.493C36.8262 107.454 36.767 107.408 36.7209 107.348C36.6618 107.283 36.6223 107.204 36.6091 107.098C36.5894 106.999 36.5763 106.802 36.5763 106.512C36.5763 106.223 36.5894 106.025 36.6091 105.92C36.6289 105.821 36.6683 105.742 36.7209 105.676C36.767 105.617 36.8327 105.564 36.9051 105.525C36.9774 105.485 37.0695 105.465 37.1747 105.465C37.3194 105.465 37.4377 105.512 37.5364 105.591C37.6284 105.676 37.6942 105.775 37.7337 105.893H38.2071C38.1611 105.65 38.0493 105.439 37.8718 105.275C37.6942 105.11 37.464 105.024 37.1813 105.024C36.9511 105.024 36.7604 105.084 36.6026 105.189C36.4447 105.294 36.3329 105.413 36.2606 105.551C36.2146 105.624 36.1817 105.716 36.162 105.828C36.1422 105.946 36.1291 106.17 36.1291 106.512C36.1291 106.855 36.1422 107.072 36.162 107.19C36.1751 107.256 36.1883 107.309 36.2014 107.348C36.2212 107.388 36.2409 107.434 36.2606 107.473C36.3329 107.612 36.4447 107.73 36.6026 107.829C36.7538 107.934 36.9511 107.994 37.1813 108C37.4772 108 37.7271 107.895 37.9244 107.697C38.1216 107.5 38.2203 107.25 38.2269 106.96V106.361H37.1878V106.782H37.1747Z" fill="url(#paint24_linear_51_151)"/>
<path d="M43.0669 105.544C43.0011 105.406 42.8893 105.287 42.7315 105.182C42.5737 105.077 42.383 105.018 42.1462 105.018C41.9161 105.018 41.7254 105.077 41.5675 105.182C41.4097 105.287 41.2979 105.406 41.2256 105.544C41.1795 105.617 41.1467 105.709 41.1269 105.821C41.1072 105.939 41.0941 106.163 41.0941 106.505C41.0941 106.848 41.1072 107.065 41.1269 107.183C41.1401 107.249 41.1532 107.302 41.1664 107.342C41.1861 107.381 41.2058 107.427 41.2256 107.467C41.2979 107.605 41.4097 107.723 41.5675 107.822C41.7188 107.927 41.9161 107.987 42.1462 107.993C42.3764 107.993 42.5737 107.934 42.7315 107.822C42.8828 107.717 42.9945 107.598 43.0669 107.467C43.1195 107.394 43.1524 107.302 43.1721 107.183C43.1918 107.065 43.1984 106.841 43.1984 106.505C43.1984 106.17 43.1918 105.939 43.1721 105.821C43.1524 105.702 43.1195 105.61 43.0669 105.544ZM42.7249 107.098C42.7052 107.203 42.6657 107.282 42.6066 107.348C42.5605 107.407 42.5013 107.46 42.429 107.493C42.3501 107.539 42.258 107.559 42.1528 107.559C42.0476 107.559 41.9555 107.539 41.8832 107.493C41.8043 107.453 41.7451 107.407 41.6991 107.348C41.6399 107.282 41.6004 107.203 41.5873 107.098C41.5675 106.999 41.5544 106.802 41.5544 106.512C41.5544 106.222 41.5675 106.025 41.5873 105.919C41.607 105.821 41.6464 105.742 41.6991 105.676C41.7451 105.617 41.8043 105.564 41.8832 105.524C41.9555 105.485 42.0476 105.465 42.1528 105.465C42.258 105.465 42.3501 105.492 42.429 105.524C42.5013 105.564 42.5605 105.617 42.6066 105.676C42.6657 105.742 42.7052 105.821 42.7249 105.919C42.7447 106.025 42.7578 106.222 42.7578 106.512C42.7578 106.802 42.7447 106.993 42.7249 107.098Z" fill="url(#paint25_linear_51_151)"/>
<path d="M46.1906 107.98H48.0582V107.559H46.6312V106.696H47.8543V106.301H46.6312V105.465H48.0582V105.044H46.1906V107.98Z" fill="url(#paint26_linear_51_151)"/>
<path d="M52.0367 106.308C51.8986 106.288 51.7868 106.275 51.7079 106.262C51.5632 106.235 51.458 106.189 51.3922 106.117C51.3265 106.051 51.2936 105.972 51.2936 105.887C51.2936 105.748 51.3462 105.636 51.4383 105.571C51.5303 105.505 51.6421 105.465 51.7802 105.465C52.0433 105.465 52.2866 105.544 52.5036 105.689L52.7535 105.32C52.4839 105.123 52.1682 105.024 51.7999 105.018C51.4974 105.018 51.2607 105.097 51.0963 105.255C50.9253 105.413 50.8398 105.617 50.8398 105.873C50.8398 106.084 50.9056 106.268 51.0437 106.42C51.1752 106.565 51.3659 106.657 51.6158 106.696C51.7539 106.716 51.8854 106.736 52.0038 106.749C52.2603 106.795 52.3852 106.927 52.3852 107.144C52.3852 107.414 52.1879 107.546 51.8065 107.552C51.4843 107.552 51.2081 107.453 50.9714 107.262L50.682 107.598C50.9911 107.868 51.3659 108 51.7999 108C52.4707 107.993 52.8127 107.71 52.8324 107.144C52.8324 106.933 52.7666 106.756 52.6351 106.598C52.5036 106.44 52.2997 106.341 52.0235 106.301L52.0367 106.308Z" fill="url(#paint27_linear_51_151)"/>
<path d="M60.8486 106.301H59.6847V105.044H59.2441V107.98H59.6847V106.696H60.8486V107.98H61.2892V105.044H60.8486V106.301Z" fill="url(#paint28_linear_51_151)"/>
<path d="M64.38 107.98H66.2542V107.559H64.8272V106.696H66.0438V106.301H64.8272V105.465H66.2542V105.044H64.38V107.98Z" fill="url(#paint29_linear_51_151)"/>
<path d="M71.1731 105.86C71.1666 105.59 71.0679 105.38 70.8838 105.235C70.7325 105.103 70.5287 105.044 70.2854 105.044H69.1411V107.98H69.5883V106.723H70.1538L70.7588 107.98H71.2849L70.6076 106.677C70.9824 106.532 71.1666 106.262 71.1731 105.86ZM69.5883 106.328V105.439H70.2854C70.43 105.439 70.5352 105.472 70.6142 105.531C70.7062 105.597 70.7588 105.709 70.7588 105.86C70.7588 105.985 70.7194 106.097 70.6339 106.183C70.5484 106.275 70.4235 106.328 70.259 106.328H69.5883Z" fill="url(#paint30_linear_51_151)"/>
<path d="M74.1258 107.98H76V107.559H74.573V106.696H75.7895V106.301H74.573V105.465H76V105.044H74.1258V107.98Z" fill="url(#paint31_linear_51_151)"/>
</g>
<defs>
<linearGradient id="paint0_linear_51_151" x1="2.17012" y1="52.2652" x2="73.6195" y2="52.2652" gradientUnits="userSpaceOnUse">
<stop/>
<stop offset="0.33"/>
<stop offset="0.52"/>
<stop offset="0.73"/>
<stop offset="1"/>
</linearGradient>
<linearGradient id="paint1_linear_51_151" x1="11.6594" y1="47.5382" x2="59.9872" y2="47.5382" gradientUnits="userSpaceOnUse">
<stop/>
<stop offset="0.33"/>
<stop offset="0.52"/>
<stop offset="0.73"/>
<stop offset="1"/>
</linearGradient>
<linearGradient id="paint2_linear_51_151" x1="2.38055" y1="32.3045" x2="73.8299" y2="32.3045" gradientUnits="userSpaceOnUse">
<stop/>
<stop offset="0.33"/>
<stop offset="0.52"/>
<stop offset="0.73"/>
<stop offset="1"/>
</linearGradient>
<linearGradient id="paint3_linear_51_151" x1="16.0062" y1="37.0314" x2="64.334" y2="37.0314" gradientUnits="userSpaceOnUse">
<stop/>
<stop offset="0.33"/>
<stop offset="0.52"/>
<stop offset="0.73"/>
<stop offset="1"/>
</linearGradient>
<linearGradient id="paint4_linear_51_151" x1="2.96444e-05" y1="97.2231" x2="7.31923" y2="97.2231" gradientUnits="userSpaceOnUse">
<stop/>
<stop offset="0.33"/>
<stop offset="0.52"/>
<stop offset="0.73"/>
<stop offset="1"/>
</linearGradient>
<linearGradient id="paint5_linear_51_151" x1="11.0478" y1="97.2163" x2="18.9392" y2="97.2163" gradientUnits="userSpaceOnUse">
<stop/>
<stop offset="0.33"/>
<stop offset="0.52"/>
<stop offset="0.73"/>
<stop offset="1"/>
</linearGradient>
<linearGradient id="paint6_linear_51_151" x1="24.7393" y1="97.3549" x2="29.4084" y2="97.3549" gradientUnits="userSpaceOnUse">
<stop/>
<stop offset="0.33"/>
<stop offset="0.52"/>
<stop offset="0.73"/>
<stop offset="1"/>
</linearGradient>
<linearGradient id="paint7_linear_51_151" x1="23.1347" y1="97.3549" x2="24.3053" y2="97.3549" gradientUnits="userSpaceOnUse">
<stop/>
<stop offset="0.33"/>
<stop offset="0.52"/>
<stop offset="0.73"/>
<stop offset="1"/>
</linearGradient>
<linearGradient id="paint8_linear_51_151" x1="29.8423" y1="97.3549" x2="31.0063" y2="97.3549" gradientUnits="userSpaceOnUse">
<stop/>
<stop offset="0.33"/>
<stop offset="0.52"/>
<stop offset="0.73"/>
<stop offset="1"/>
</linearGradient>
<linearGradient id="paint9_linear_51_151" x1="35.1953" y1="97.3549" x2="36.4053" y2="97.3549" gradientUnits="userSpaceOnUse">
<stop/>
<stop offset="0.33"/>
<stop offset="0.52"/>
<stop offset="0.73"/>
<stop offset="1"/>
</linearGradient>
<linearGradient id="paint10_linear_51_151" x1="36.8393" y1="95.742" x2="41.5215" y2="95.742" gradientUnits="userSpaceOnUse">
<stop/>
<stop offset="0.33"/>
<stop offset="0.52"/>
<stop offset="0.73"/>
<stop offset="1"/>
</linearGradient>
<linearGradient id="paint11_linear_51_151" x1="45.717" y1="97.3549" x2="53.5031" y2="97.3549" gradientUnits="userSpaceOnUse">
<stop/>
<stop offset="0.33"/>
<stop offset="0.52"/>
<stop offset="0.73"/>
<stop offset="1"/>
</linearGradient>
<linearGradient id="paint12_linear_51_151" x1="57.5738" y1="97.3549" x2="58.6983" y2="97.3549" gradientUnits="userSpaceOnUse">
<stop/>
<stop offset="0.33"/>
<stop offset="0.52"/>
<stop offset="0.73"/>
<stop offset="1"/>
</linearGradient>
<linearGradient id="paint13_linear_51_151" x1="62.8938" y1="97.3549" x2="64.0906" y2="97.3549" gradientUnits="userSpaceOnUse">
<stop/>
<stop offset="0.33"/>
<stop offset="0.52"/>
<stop offset="0.73"/>
<stop offset="1"/>
</linearGradient>
<linearGradient id="paint14_linear_51_151" x1="59.1323" y1="97.3151" x2="62.4598" y2="97.3151" gradientUnits="userSpaceOnUse">
<stop/>
<stop offset="0.33"/>
<stop offset="0.52"/>
<stop offset="0.73"/>
<stop offset="1"/>
</linearGradient>
<linearGradient id="paint15_linear_51_151" x1="71.4691" y1="97.3549" x2="75.9868" y2="97.3549" gradientUnits="userSpaceOnUse">
<stop/>
<stop offset="0.33"/>
<stop offset="0.52"/>
<stop offset="0.73"/>
<stop offset="1"/>
</linearGradient>
<linearGradient id="paint16_linear_51_151" x1="68.2863" y1="95.4523" x2="71.89" y2="95.4523" gradientUnits="userSpaceOnUse">
<stop/>
<stop offset="0.33"/>
<stop offset="0.52"/>
<stop offset="0.73"/>
<stop offset="1"/>
</linearGradient>
<linearGradient id="paint17_linear_51_151" x1="0" y1="106.512" x2="2.05174" y2="106.512" gradientUnits="userSpaceOnUse">
<stop/>
<stop offset="0.33"/>
<stop offset="0.52"/>
<stop offset="0.73"/>
<stop offset="1"/>
</linearGradient>
<linearGradient id="paint18_linear_51_151" x1="4.22186" y1="106.512" x2="6.72736" y2="106.512" gradientUnits="userSpaceOnUse">
<stop/>
<stop offset="0.33"/>
<stop offset="0.52"/>
<stop offset="0.73"/>
<stop offset="1"/>
</linearGradient>
<linearGradient id="paint19_linear_51_151" x1="9.33809" y1="106.512" x2="11.4293" y2="106.512" gradientUnits="userSpaceOnUse">
<stop/>
<stop offset="0.33"/>
<stop offset="0.52"/>
<stop offset="0.73"/>
<stop offset="1"/>
</linearGradient>
<linearGradient id="paint20_linear_51_151" x1="14.4214" y1="106.512" x2="16.2956" y2="106.512" gradientUnits="userSpaceOnUse">
<stop/>
<stop offset="0.33"/>
<stop offset="0.52"/>
<stop offset="0.73"/>
<stop offset="1"/>
</linearGradient>
<linearGradient id="paint21_linear_51_151" x1="19.1825" y1="106.512" x2="19.6297" y2="106.512" gradientUnits="userSpaceOnUse">
<stop/>
<stop offset="0.33"/>
<stop offset="0.52"/>
<stop offset="0.73"/>
<stop offset="1"/>
</linearGradient>
<linearGradient id="paint22_linear_51_151" x1="22.7139" y1="106.512" x2="24.9103" y2="106.512" gradientUnits="userSpaceOnUse">
<stop/>
<stop offset="0.33"/>
<stop offset="0.52"/>
<stop offset="0.73"/>
<stop offset="1"/>
</linearGradient>
<linearGradient id="paint23_linear_51_151" x1="28.001" y1="106.512" x2="29.8752" y2="106.512" gradientUnits="userSpaceOnUse">
<stop/>
<stop offset="0.33"/>
<stop offset="0.52"/>
<stop offset="0.73"/>
<stop offset="1"/>
</linearGradient>
<linearGradient id="paint24_linear_51_151" x1="36.1225" y1="106.512" x2="38.2137" y2="106.512" gradientUnits="userSpaceOnUse">
<stop/>
<stop offset="0.33"/>
<stop offset="0.52"/>
<stop offset="0.73"/>
<stop offset="1"/>
</linearGradient>
<linearGradient id="paint25_linear_51_151" x1="41.1072" y1="106.512" x2="43.1984" y2="106.512" gradientUnits="userSpaceOnUse">
<stop/>
<stop offset="0.33"/>
<stop offset="0.52"/>
<stop offset="0.73"/>
<stop offset="1"/>
</linearGradient>
<linearGradient id="paint26_linear_51_151" x1="46.1906" y1="106.512" x2="48.0582" y2="106.512" gradientUnits="userSpaceOnUse">
<stop/>
<stop offset="0.33"/>
<stop offset="0.52"/>
<stop offset="0.73"/>
<stop offset="1"/>
</linearGradient>
<linearGradient id="paint27_linear_51_151" x1="50.6952" y1="106.512" x2="52.8455" y2="106.512" gradientUnits="userSpaceOnUse">
<stop/>
<stop offset="0.33"/>
<stop offset="0.52"/>
<stop offset="0.73"/>
<stop offset="1"/>
</linearGradient>
<linearGradient id="paint28_linear_51_151" x1="59.2441" y1="106.512" x2="61.2892" y2="106.512" gradientUnits="userSpaceOnUse">
<stop/>
<stop offset="0.33"/>
<stop offset="0.52"/>
<stop offset="0.73"/>
<stop offset="1"/>
</linearGradient>
<linearGradient id="paint29_linear_51_151" x1="64.38" y1="106.512" x2="66.2542" y2="106.512" gradientUnits="userSpaceOnUse">
<stop/>
<stop offset="0.33"/>
<stop offset="0.52"/>
<stop offset="0.73"/>
<stop offset="1"/>
</linearGradient>
<linearGradient id="paint30_linear_51_151" x1="69.1411" y1="106.512" x2="71.2915" y2="106.512" gradientUnits="userSpaceOnUse">
<stop/>
<stop offset="0.33"/>
<stop offset="0.52"/>
<stop offset="0.73"/>
<stop offset="1"/>
</linearGradient>
<linearGradient id="paint31_linear_51_151" x1="74.1258" y1="106.512" x2="76" y2="106.512" gradientUnits="userSpaceOnUse">
<stop/>
<stop offset="0.33"/>
<stop offset="0.52"/>
<stop offset="0.73"/>
<stop offset="1"/>
</linearGradient>
<clipPath id="clip0_51_151">
<rect width="76" height="108" fill="white"/>
</clipPath>
</defs>
</svg>
