<svg width="238" height="55" viewBox="0 0 238 55" fill="none" xmlns="http://www.w3.org/2000/svg">
<path d="M79.3073 14.9909L73.7283 28.2234L67.5631 14.9909H64.3704V32.2933H67.7835C67.2472 31.5117 66.8107 30.6761 66.4781 29.7823C66.1455 28.8885 65.8794 28.0072 65.6841 27.1383C65.4887 26.2695 65.3556 25.4588 65.2808 24.7022C65.206 23.9456 65.1727 23.3178 65.1727 22.8148V17.5518L72.2151 32.5136H72.9467L79.062 17.8428V32.2933H82.4002L82.2298 14.9909H79.3073Z" fill="#004C40"/>
<path d="M90.4694 14.9909L84.2086 32.2933H87.9875C87.8254 32.1977 87.6508 32.0231 87.4637 31.7695C87.2766 31.5159 87.1228 31.1833 87.0022 30.7717C86.8817 30.356 86.8193 29.8696 86.8193 29.3084C86.8193 28.7472 86.9316 28.1277 87.1602 27.446L87.8669 25.3258H93.7161L96.6387 32.2933H100.538L93.1799 14.9909H90.4735H90.4694ZM88.1538 24.5193L90.4694 17.6474L93.3711 24.5193H88.1579H88.1538Z" fill="#004C40"/>
<path d="M105.527 14.9909H102.238V32.2933H105.527V14.9909Z" fill="#004C40"/>
<path d="M124.725 23.8001C124.139 23.4342 123.494 23.1515 122.788 22.9478C122.081 22.7441 121.395 22.6111 120.73 22.5446C121.299 22.4781 121.877 22.37 122.459 22.2162C123.045 22.0624 123.578 21.8337 124.056 21.5344C124.534 21.2351 124.929 20.8485 125.236 20.3787C125.544 19.9089 125.698 19.3311 125.698 18.6493C125.698 17.8054 125.448 17.1402 124.954 16.6497C124.459 16.1633 123.848 15.7974 123.124 15.5522C122.401 15.3069 121.632 15.1531 120.821 15.0907C120.006 15.0242 119.296 14.9951 118.676 14.9951H113.243V32.2974H119.017C119.828 32.2974 120.688 32.2226 121.599 32.0771C122.509 31.9316 123.345 31.6697 124.11 31.2955C124.875 30.9214 125.502 30.4059 125.997 29.7491C126.492 29.0922 126.741 28.2525 126.741 27.2256C126.741 26.4316 126.55 25.7498 126.167 25.1886C125.785 24.6274 125.303 24.1659 124.717 23.8001M116.535 16.7952C116.535 16.633 116.544 16.4709 116.56 16.3088C116.577 16.1466 116.647 16.0011 116.78 15.8681H118.68C119.15 15.8681 119.599 15.9305 120.019 16.051C120.443 16.1716 120.813 16.3628 121.141 16.6247C121.466 16.8825 121.728 17.2026 121.923 17.5767C122.118 17.9509 122.214 18.3957 122.214 18.9153C122.214 19.5348 122.102 20.0461 121.873 20.4494C121.644 20.8568 121.341 21.181 120.958 21.4221C120.576 21.6674 120.14 21.8379 119.641 21.9335C119.146 22.0291 118.63 22.079 118.094 22.079H116.535V16.791V16.7952ZM122.75 29.1463C122.621 29.6659 122.405 30.0983 122.106 30.4392C121.807 30.78 121.403 31.0336 120.9 31.1958C120.397 31.3579 119.77 31.441 119.025 31.441H116.81C116.681 31.2789 116.602 31.1001 116.577 30.9048C116.552 30.7094 116.539 30.514 116.539 30.3186V22.9354H118.098C118.813 22.9354 119.47 23.0185 120.073 23.1806C120.676 23.3428 121.187 23.6047 121.607 23.9622C122.031 24.3197 122.359 24.7729 122.592 25.3258C122.829 25.8787 122.946 26.5355 122.946 27.3005C122.946 28.0155 122.879 28.6349 122.75 29.1546" fill="#004C40"/>
<path d="M133.447 14.9909L127.186 32.2933H130.965C130.803 32.1977 130.628 32.0231 130.441 31.7695C130.254 31.5159 130.1 31.1833 129.98 30.7717C129.859 30.356 129.797 29.8696 129.797 29.3084C129.797 28.7472 129.909 28.1277 130.138 27.446L130.844 25.3258H136.693L139.616 32.2933H143.515L136.157 14.9909H133.451H133.447ZM131.135 24.5193L133.451 17.6474L136.353 24.5193H131.139H131.135Z" fill="#004C40"/>
<path d="M160.41 22.9603H152.736V14.9909H149.444V32.3141H152.736V23.8125L160.41 23.8375V32.3141H163.703V14.9909H160.41V22.9603Z" fill="#004C40"/>
<path d="M197.988 17.2691C197.559 16.845 197.09 16.4751 196.574 16.1466C196.603 16.1383 196.628 16.1342 196.657 16.13C197.343 15.9554 197.958 15.6852 198.499 15.3193C199.039 14.9535 199.476 14.4879 199.808 13.9267C200.141 13.3613 200.324 12.692 200.349 11.9104H197.227C197.476 13.1119 197.335 14.0639 196.807 14.7623C196.512 15.1572 196.108 15.4357 195.597 15.6104C195.456 15.5438 195.31 15.4773 195.161 15.415C194.071 14.9701 192.887 14.7457 191.602 14.7457C190.317 14.7457 189.128 14.9701 188.031 15.415C186.933 15.8639 185.99 16.4792 185.192 17.2691C184.398 18.059 183.77 18.9943 183.317 20.0835C182.864 21.1727 182.635 22.3575 182.635 23.6421C182.635 24.9267 182.864 26.1073 183.317 27.1882C183.77 28.2691 184.402 29.2086 185.204 30.0026C186.006 30.7967 186.954 31.4203 188.043 31.8651C189.133 32.3141 190.317 32.5344 191.602 32.5344C192.887 32.5344 194.051 32.3099 195.148 31.8651C196.246 31.4203 197.189 30.7967 197.988 30.0026C198.786 29.2086 199.409 28.2691 199.862 27.1882C200.316 26.1073 200.544 24.9267 200.544 23.6421C200.544 22.3575 200.316 21.1727 199.862 20.0835C199.405 18.9943 198.782 18.0548 197.988 17.2691ZM197.16 27.4667C197.048 28.294 196.794 29.0174 196.404 29.6368C196.013 30.2562 195.502 30.7011 194.87 30.9754C194.416 31.1708 193.943 31.2664 193.456 31.2664C192.887 31.2664 192.305 31.1376 191.714 30.8757C191.12 30.6179 190.546 30.2438 189.985 29.7532C189.424 29.2668 188.896 28.6765 188.401 27.9864C187.906 27.2963 187.461 26.5106 187.071 25.6334C186.601 24.5775 186.281 23.5506 186.106 22.5487C185.936 21.551 185.907 20.6364 186.019 19.8091C186.131 18.9819 186.385 18.2585 186.776 17.6391C187.166 17.0238 187.686 16.5665 188.334 16.2755C188.771 16.0801 189.245 15.9845 189.748 15.9845C190.317 15.9845 190.895 16.1134 191.477 16.3753C192.063 16.6372 192.637 17.0072 193.194 17.4977C193.755 17.9841 194.283 18.5786 194.778 19.277C195.273 19.9754 195.718 20.7653 196.108 21.6383C196.578 22.6943 196.902 23.7211 197.073 24.723C197.243 25.7207 197.272 26.6353 197.16 27.4626" fill="#004C40"/>
<path d="M215.739 16.6122C216.055 17.3689 216.325 18.1795 216.541 19.0484C216.762 19.9172 216.932 20.7653 217.053 21.5926C217.173 22.4199 217.235 23.0726 217.235 23.5423V27.7577L206.198 14.9868H203.201V32.2891H206.614C206.289 31.7029 205.969 31.0004 205.649 30.1814C205.333 29.3624 205.051 28.4811 204.81 27.5374C204.568 26.5937 204.373 25.6085 204.223 24.5775C204.078 23.5465 204.003 22.528 204.003 21.5178V18.059L216.965 32.2891H218.088V14.9868H214.675C215.065 15.311 215.419 15.8515 215.735 16.6081" fill="#004C40"/>
<path d="M232.443 23.4717V23.8125C232.867 23.8125 233.232 23.9414 233.54 24.2033C233.848 24.4652 234.001 24.8352 234.001 25.3258V29.9569C234.001 30.2479 233.893 30.489 233.673 30.6761C233.453 30.8632 233.195 31.0128 232.892 31.1292C232.592 31.2415 232.28 31.3205 231.952 31.3621C231.628 31.4036 231.349 31.4244 231.125 31.4244C229.957 31.4244 228.963 31.1584 228.152 30.6304C227.337 30.1024 226.681 29.4206 226.178 28.585C225.675 27.7494 225.309 26.8141 225.08 25.7831C224.851 24.7521 224.739 23.7419 224.739 22.7483C224.739 21.8878 224.797 21.0231 224.91 20.1542C225.022 19.2853 225.251 18.5079 225.591 17.8137C225.932 17.1236 226.419 16.5624 227.055 16.1342C227.687 15.706 228.518 15.4898 229.541 15.4898C231.116 15.4898 232.247 15.9471 232.941 16.8658C233.631 17.7846 233.814 19.0317 233.49 20.6073H237.585C237.552 19.5847 237.319 18.7033 236.878 17.9633C236.442 17.2234 235.868 16.6164 235.161 16.1342C234.455 15.6561 233.652 15.3027 232.75 15.0741C231.848 14.8454 230.933 14.7332 230.011 14.7332C228.614 14.7332 227.342 14.9203 226.198 15.2944C225.051 15.6686 224.078 16.2256 223.276 16.9656C222.469 17.7056 221.85 18.6327 221.413 19.7426C220.973 20.8568 220.757 22.1497 220.757 23.6296C220.757 25.0098 220.985 26.2487 221.438 27.3462C221.891 28.4437 222.532 29.3791 223.351 30.1481C224.17 30.9214 225.147 31.5117 226.273 31.9274C227.404 32.3432 228.643 32.5469 229.99 32.5469C230.414 32.5469 230.892 32.5219 231.428 32.4762C231.964 32.4263 232.513 32.3473 233.074 32.2309C233.636 32.1187 234.189 31.9649 234.733 31.7695C235.278 31.5741 235.76 31.3246 236.184 31.0128C236.608 30.7052 236.945 30.3394 237.194 29.9153C237.448 29.4913 237.573 29.0049 237.573 28.452L237.548 23.48H232.455L232.443 23.4717Z" fill="#004C40"/>
<path d="M183.732 11.9104H180.61C180.739 12.5382 180.743 13.062 180.677 13.4902C180.548 14.3549 179.791 14.9909 178.918 14.9909H176.723C177.958 16.6497 178.382 18.1961 178.827 20.1126C179.297 22.133 179.272 24.116 179.272 26.0782C179.272 26.8099 179.172 27.4834 178.968 28.1028C178.765 28.7222 178.461 29.2585 178.054 29.7241C177.646 30.1856 177.152 30.5472 176.565 30.8091C175.979 31.071 175.306 31.1999 174.541 31.1999C173.776 31.1999 173.073 31.0378 172.529 30.7135C171.984 30.3893 171.548 29.9611 171.211 29.4331C170.878 28.9051 170.637 28.3023 170.492 27.6289C170.346 26.9554 170.271 26.2778 170.271 25.5918V14.9909H166.983V26.2487C166.983 27.2381 167.174 28.1236 167.557 28.9051C167.939 29.6867 168.455 30.3435 169.103 30.8798C169.752 31.4161 170.5 31.8277 171.344 32.1103C172.188 32.393 173.082 32.5385 174.025 32.5385C174.969 32.5385 175.867 32.393 176.632 32.102C177.397 31.811 178.041 31.3911 178.569 30.8466C179.097 30.302 179.505 29.641 179.787 28.8594C180.07 28.0778 180.215 27.209 180.215 26.2528V16.0801C180.831 15.9055 181.384 15.6561 181.878 15.3235C182.419 14.9577 182.855 14.4921 183.188 13.9308C183.52 13.3655 183.703 12.6961 183.728 11.9146" fill="#004C40"/>
<path d="M139.188 11.1206H135.708L133.912 13.8103H135.933L139.188 11.1206Z" fill="#004C40"/>
<path d="M67.9289 38.288H67.006L65.181 40.325V38.288H64.3953V42.4868H65.181V41.2147L65.8171 40.5079L67.0725 42.4868H67.9747L66.3783 40.0049L67.9289 38.288Z" fill="#C1A880"/>
<path d="M69.5295 40.6825H71.342V40.059H69.5295V38.9365H71.845V38.288H68.7437V42.4868H71.9323V41.8382H69.5295V40.6825Z" fill="#C1A880"/>
<path d="M70.2986 37.1032L70.7933 37.76H71.4044L70.6935 36.675H69.9036L69.1886 37.76H69.7997L70.2986 37.1032Z" fill="#C1A880"/>
<path d="M71.1549 37.1572H71.6746L72.1818 36.2302H71.5166L71.1549 37.1572Z" fill="#C1A880"/>
<path d="M74.3851 38.9365H75.8027V42.4868H76.5884V38.9365H78.0061V38.288H74.3851V38.9365Z" fill="#C1A880"/>
<path d="M81.5813 40.0382H79.6232V38.288H78.8416V42.4868H79.6232V40.6867H81.5813V42.4868H82.367V38.288H81.5813V40.0382Z" fill="#C1A880"/>
<path d="M87.7214 37.6062H87.1103C87.1103 37.8307 87.0646 38.0011 86.969 38.1134C86.8775 38.2298 86.7112 38.2838 86.4743 38.2838H86.2498V40.7906C86.2498 41.1648 86.1708 41.4392 86.0128 41.6221C85.8549 41.805 85.6096 41.8923 85.277 41.8923C84.9444 41.8923 84.6992 41.8008 84.5412 41.6221C84.3832 41.4433 84.3042 41.1648 84.3042 40.7906V38.2838H83.5227V40.8488C83.5227 41.4142 83.6723 41.8382 83.9716 42.1209C84.271 42.4036 84.7075 42.5491 85.2812 42.5491C85.8549 42.5491 86.2831 42.4078 86.5824 42.1209C86.8817 41.8382 87.0314 41.4142 87.0314 40.8488V38.712C87.1852 38.6621 87.3182 38.5831 87.4263 38.4751C87.6258 38.2672 87.7256 37.9803 87.7256 37.6062" fill="#C1A880"/>
<path d="M85.6304 37.9388L85.2313 36.9078H84.4913L85.0525 37.9388H85.6304Z" fill="#C1A880"/>
<path d="M89.1017 38.288L87.5427 42.4909H88.3368L88.7109 41.4267H90.407L90.777 42.4909H91.5919L90.0412 38.288H89.1058H89.1017ZM88.9188 40.8197L89.3677 39.5393L89.5507 38.9365H89.5631L89.7544 39.5601L90.1909 40.8197H88.9146H88.9188Z" fill="#C1A880"/>
<path d="M95.7657 38.288H94.2109V42.4909H95.7657C96.4225 42.4909 96.9339 42.308 97.2997 41.9422C97.6655 41.5763 97.8484 41.0608 97.8484 40.3874C97.8484 39.7139 97.6655 39.1943 97.2997 38.8326C96.9339 38.4709 96.4225 38.288 95.7657 38.288ZM96.7052 41.4683C96.4849 41.7218 96.1648 41.8507 95.7407 41.8507H94.9966V38.924H95.7407C96.1648 38.924 96.4849 39.0529 96.7052 39.3065C96.9255 39.5601 97.0336 39.9218 97.0336 40.3874C97.0336 40.853 96.9255 41.2147 96.7052 41.4683Z" fill="#C1A880"/>
<path d="M99.6402 38.288H98.8586V42.4868H99.6402V38.288Z" fill="#C1A880"/>
<path d="M103.918 38.949C104.043 38.8991 104.201 38.8742 104.396 38.8742C104.666 38.8742 104.903 38.9282 105.107 39.0321C105.311 39.1361 105.494 39.3065 105.66 39.5435L106.138 39.0321C105.943 38.7661 105.706 38.5624 105.423 38.4293C105.14 38.2921 104.808 38.2256 104.425 38.2256C104.076 38.2256 103.777 38.2838 103.523 38.4002C103.269 38.5166 103.078 38.6746 102.945 38.8658C102.812 39.0612 102.746 39.2816 102.746 39.5268C102.746 39.7222 102.787 39.8927 102.879 40.0423C102.966 40.192 103.095 40.3167 103.265 40.4165C103.436 40.5163 103.648 40.5952 103.893 40.6493L104.783 40.8447C104.995 40.8946 105.14 40.9652 105.219 41.0525C105.298 41.1398 105.336 41.2396 105.336 41.356C105.336 41.4724 105.302 41.568 105.232 41.6512C105.161 41.7343 105.061 41.7967 104.932 41.8383C104.803 41.8798 104.646 41.9006 104.467 41.9006C104.251 41.9006 104.051 41.8715 103.872 41.8092C103.694 41.7468 103.531 41.6636 103.39 41.5514C103.249 41.4392 103.132 41.3144 103.045 41.1689L102.554 41.7052C102.679 41.8674 102.833 42.0087 103.016 42.1376C103.199 42.2664 103.411 42.3662 103.652 42.441C103.893 42.5159 104.159 42.5533 104.458 42.5533C104.795 42.5533 105.086 42.5034 105.34 42.3953C105.593 42.2914 105.789 42.1417 105.93 41.9505C106.071 41.7593 106.142 41.5265 106.142 41.2604C106.142 40.9736 106.055 40.7366 105.88 40.5537C105.706 40.3708 105.415 40.2336 105.003 40.1463L104.18 39.9633C103.947 39.9093 103.785 39.8345 103.698 39.7472C103.61 39.6599 103.565 39.5518 103.565 39.4354C103.565 39.3314 103.594 39.2358 103.652 39.1527C103.71 39.0695 103.797 39.003 103.922 38.9531" fill="#C1A880"/>
<path d="M108.138 38.288L106.579 42.4909H107.373L107.747 41.4267H109.443L109.813 42.4909H110.628L109.077 38.288H108.142H108.138ZM107.959 40.8197L108.408 39.5393L108.591 38.9365H108.603L108.794 39.5601L109.231 40.8197H107.955H107.959Z" fill="#C1A880"/>
<path d="M108.341 37.178C108.383 37.1489 108.433 37.1323 108.495 37.1323C108.57 37.1323 108.628 37.1531 108.67 37.1946C108.711 37.2362 108.732 37.2861 108.732 37.3484C108.732 37.4274 108.707 37.4981 108.653 37.5521C108.599 37.6062 108.516 37.6644 108.404 37.7226L108.607 37.9762C108.728 37.9388 108.836 37.8847 108.932 37.8182C109.027 37.7517 109.106 37.6727 109.16 37.5729C109.214 37.4732 109.243 37.3651 109.243 37.2487C109.243 37.1323 109.214 37.02 109.156 36.9286C109.098 36.8413 109.019 36.7706 108.919 36.7207C108.819 36.6708 108.703 36.6459 108.582 36.6459C108.399 36.6459 108.246 36.6833 108.117 36.7623C107.988 36.8371 107.896 36.9452 107.842 37.0865L108.229 37.311C108.262 37.2487 108.3 37.2029 108.345 37.1697" fill="#C1A880"/>
<path d="M114.19 40.8571L114.215 41.5639H114.211L113.825 40.8405L112.282 38.288H111.38V42.4868H112.087V39.9176L112.058 39.215H112.066L112.453 39.9301L113.999 42.4868H114.906V38.288H114.19V40.8571Z" fill="#C1A880"/>
<path d="M120.376 40.458H118.169V41.1523H120.376V40.458Z" fill="#C1A880"/>
<path d="M127.178 38.288H126.255L124.426 40.325V38.288H123.644V42.4868H124.426V41.2147L125.066 40.5079L126.317 42.4868H127.223L125.627 40.0049L127.178 38.288Z" fill="#C1A880"/>
<path d="M128.774 38.288H127.992V42.4868H128.774V38.288Z" fill="#C1A880"/>
<path d="M131.555 37.1032L132.054 37.76H132.665L131.95 36.675H131.16L130.449 37.76H131.06L131.555 37.1032Z" fill="#C1A880"/>
<path d="M132.412 37.1572H132.935L133.438 36.2302H132.773L132.412 37.1572Z" fill="#C1A880"/>
<path d="M130.786 40.6825H132.599V40.059H130.786V38.9365H133.102V38.288H130.005V42.4868H133.193V41.8382H130.786V40.6825Z" fill="#C1A880"/>
<path d="M136.922 40.8571L136.947 41.5639H136.943L136.552 40.8405L135.014 38.288H134.108V42.4868H134.814V39.9176L134.79 39.215H134.798L135.184 39.9301L136.731 42.4868H137.633V38.288H136.922V40.8571Z" fill="#C1A880"/>
<path d="M144.019 38.288H140.398V38.9365H141.815V42.4868H142.601V38.9365H144.019V38.288Z" fill="#C1A880"/>
<path d="M145.374 38.288L143.815 42.4909H144.609L144.983 41.4267H146.679L147.049 42.4909H147.864L146.309 38.288H145.374ZM145.195 40.8197L145.644 39.5393L145.827 38.9365H145.839L146.031 39.5601L146.467 40.8197H145.191H145.195Z" fill="#C1A880"/>
<path d="M145.839 42.9981C145.69 42.9981 145.573 43.0355 145.49 43.1145C145.403 43.1935 145.361 43.3016 145.361 43.4346C145.361 43.5676 145.403 43.684 145.49 43.763C145.573 43.842 145.69 43.8794 145.839 43.8794C145.989 43.8794 146.11 43.8379 146.193 43.763C146.276 43.684 146.317 43.576 146.317 43.4346C146.317 43.2933 146.276 43.1935 146.193 43.1145C146.11 43.0355 145.993 42.9981 145.839 42.9981Z" fill="#C1A880"/>
<path d="M151.314 38.4834C151.015 38.3088 150.662 38.2215 150.246 38.2215C149.83 38.2215 149.485 38.3088 149.186 38.4834C148.887 38.658 148.654 38.9074 148.492 39.2275C148.33 39.5518 148.246 39.9384 148.246 40.3874C148.246 40.8364 148.33 41.223 148.492 41.5472C148.654 41.8674 148.887 42.1168 149.186 42.2914C149.485 42.466 149.839 42.5533 150.246 42.5533C150.653 42.5533 151.019 42.466 151.314 42.2914C151.61 42.1168 151.842 41.8674 152.005 41.5472C152.167 41.223 152.25 40.8364 152.25 40.3874C152.25 39.9384 152.167 39.5518 152.005 39.2275C151.842 38.9074 151.61 38.658 151.314 38.4834ZM151.294 41.2105C151.202 41.435 151.065 41.6054 150.89 41.7218C150.716 41.8382 150.5 41.8964 150.246 41.8964C149.992 41.8964 149.789 41.8382 149.61 41.7218C149.431 41.6054 149.294 41.435 149.198 41.2105C149.103 40.986 149.057 40.7116 149.057 40.3915C149.057 40.0714 149.103 39.7971 149.198 39.5684C149.294 39.3439 149.431 39.1735 149.61 39.0571C149.789 38.9407 150.001 38.8825 150.246 38.8825C150.491 38.8825 150.716 38.9407 150.89 39.0571C151.065 39.1735 151.202 39.3439 151.294 39.5684C151.385 39.7929 151.435 40.0673 151.435 40.3915C151.435 40.7158 151.389 40.986 151.294 41.2105Z" fill="#C1A880"/>
<path d="M154.794 38.9365H156.216V42.4868H156.997V38.9365H158.419V38.288H154.794V38.9365Z" fill="#C1A880"/>
<path d="M162.618 38.1175C162.526 38.2339 162.36 38.288 162.123 38.288H161.899V40.7948C161.899 41.1689 161.82 41.4433 161.662 41.6262C161.504 41.805 161.258 41.8964 160.926 41.8964C160.593 41.8964 160.348 41.805 160.19 41.6262C160.032 41.4475 159.953 41.1689 159.953 40.7948V38.288H159.172V40.853C159.172 41.4184 159.321 41.8424 159.621 42.1251C159.92 42.4078 160.356 42.5533 160.93 42.5533C161.504 42.5533 161.932 42.4119 162.231 42.1251C162.531 41.8424 162.68 41.4142 162.68 40.853V38.7162C162.834 38.6663 162.967 38.5873 163.075 38.4751C163.275 38.2714 163.375 37.9803 163.375 37.6062H162.763C162.763 37.8307 162.718 38.0011 162.622 38.1134" fill="#C1A880"/>
<path d="M166.9 38.6413C166.991 38.5956 167.074 38.5416 167.145 38.4751C167.353 38.2714 167.457 37.9803 167.457 37.6062H166.846C166.846 37.8307 166.796 38.0011 166.696 38.1175C166.601 38.2298 166.422 38.2838 166.164 38.288C165.989 38.2464 165.802 38.2256 165.603 38.2256C165.195 38.2256 164.842 38.3129 164.543 38.4875C164.243 38.6621 164.011 38.9116 163.848 39.2317C163.686 39.5559 163.603 39.9426 163.603 40.3915C163.603 40.8405 163.686 41.2271 163.848 41.5514C164.011 41.8715 164.243 42.1209 164.543 42.2955C164.842 42.4701 165.195 42.5574 165.603 42.5574C166.01 42.5574 166.376 42.4701 166.671 42.2955C166.966 42.1209 167.199 41.8715 167.361 41.5514C167.523 41.2271 167.607 40.8405 167.607 40.3915C167.607 39.9426 167.523 39.5559 167.361 39.2317C167.241 38.9947 167.087 38.8035 166.896 38.6455M166.655 41.2105C166.563 41.435 166.426 41.6054 166.251 41.7218C166.077 41.8382 165.861 41.8964 165.607 41.8964C165.353 41.8964 165.15 41.8382 164.971 41.7218C164.792 41.6054 164.655 41.435 164.559 41.2105C164.464 40.986 164.418 40.7116 164.418 40.3915C164.418 40.0714 164.464 39.797 164.559 39.5684C164.655 39.3439 164.792 39.1735 164.971 39.0571C165.15 38.9407 165.362 38.8825 165.607 38.8825C165.852 38.8825 166.077 38.9407 166.251 39.0571C166.426 39.1735 166.563 39.3439 166.655 39.5684C166.746 39.7929 166.796 40.0673 166.796 40.3915C166.796 40.7158 166.75 40.986 166.655 41.2105Z" fill="#C1A880"/>
<path d="M171.435 40.8571L171.46 41.5639H171.452L171.065 40.8405L169.523 38.288H168.621V42.4868H169.328V39.9176L169.303 39.215H169.307L169.698 39.9301L171.244 42.4868H172.146V38.288H171.435V40.8571Z" fill="#C1A880"/>
<path d="M175.115 40.8987H176.274V41.0068C176.274 41.1606 176.249 41.2937 176.195 41.4059C176.141 41.5181 176.067 41.6138 175.971 41.6844C175.875 41.7551 175.759 41.8133 175.634 41.8549C175.505 41.8923 175.368 41.9131 175.223 41.9131C174.952 41.9131 174.72 41.8549 174.533 41.7385C174.345 41.6221 174.204 41.4475 174.108 41.223C174.017 40.9985 173.967 40.72 173.967 40.3915C173.967 40.0631 174.017 39.8012 174.125 39.5726C174.229 39.3439 174.375 39.1735 174.557 39.0571C174.74 38.9407 174.961 38.8825 175.21 38.8825C175.46 38.8825 175.672 38.9407 175.846 39.0529C176.021 39.1652 176.146 39.3356 176.22 39.5643L176.94 39.24C176.777 38.8908 176.561 38.6372 176.283 38.4709C176.008 38.3088 175.647 38.2256 175.202 38.2256C174.794 38.2256 174.437 38.3129 174.129 38.4875C173.822 38.6621 173.585 38.9116 173.414 39.2358C173.244 39.5601 173.161 39.9467 173.161 40.3999C173.161 40.853 173.24 41.2396 173.402 41.5597C173.564 41.8798 173.788 42.1251 174.079 42.2997C174.37 42.4701 174.707 42.5575 175.094 42.5575C175.455 42.5575 175.751 42.4826 175.983 42.333C176.137 42.2332 176.262 42.1043 176.358 41.9505L176.391 42.4951H176.956V40.3042H175.119V40.9029L175.115 40.8987Z" fill="#C1A880"/>
<path d="M180.897 38.288H180.116V42.4868H183.159V41.8382H180.897V38.288Z" fill="#C1A880"/>
<path d="M185.075 38.288L183.516 42.4909H184.31L184.684 41.4267H186.381L186.751 42.4909H187.565L186.011 38.288H185.075ZM184.892 40.8197L185.341 39.5393L185.524 38.9365H185.537L185.728 39.5601L186.164 40.8197H184.888H184.892Z" fill="#C1A880"/>
<path d="M189.095 38.288H188.314V42.4868H189.095V38.288Z" fill="#C1A880"/>
<path d="M36.5669 1.52986C35.486 1.14739 34.3719 0.835601 33.237 0.598639C31.9773 0.32842 30.6886 0.153817 29.3707 0.0623583C28.7555 0.0207861 28.1277 0 27.5 0C26.8723 0 26.2445 0.0207861 25.6293 0.0623583C24.3114 0.153817 23.0227 0.332577 21.763 0.598639C20.6281 0.835601 19.514 1.14739 18.4331 1.52986C7.69917 5.27551 0 15.4898 0 27.5C0 39.5102 7.70748 49.737 18.4497 53.4785C21.285 54.4637 24.328 55 27.5 55C30.672 55 33.715 54.4637 36.5503 53.4785C47.2925 49.737 55 39.5185 55 27.5C55 15.4815 47.305 5.27551 36.5669 1.52986ZM36.5669 9.79025V3.11791C39.664 4.58541 41.6096 7.74074 41.6096 11.1621V16.0427C41.3643 19.2313 40.0964 22.4282 37.8681 24.7313C37.4441 25.1595 36.9992 25.5627 36.5503 25.9535C36.5503 25.9535 36.5669 10.0729 36.5669 9.78609M27.4127 1.04346H27.5915C30.7218 1.05593 33.237 3.62509 33.237 6.75548L33.2203 27.1633C33.2203 28.1402 32.8379 29.0797 32.1644 29.7823C30.8133 31.1999 28.5227 33.74 27.4958 35.6689C26.4732 33.74 24.1825 31.1958 22.8314 29.7823C22.158 29.0756 21.7797 28.1402 21.7755 27.1633L21.7589 6.75548C21.7589 3.62509 24.274 1.05593 27.4044 1.04346M13.3946 11.1621C13.3946 7.74074 15.3401 4.58541 18.4373 3.11791V9.79025C18.4373 10.0729 18.4539 25.9577 18.4539 25.9577C18.0049 25.5669 17.5601 25.1595 17.1361 24.7354C14.9078 22.4324 13.6398 19.2354 13.3946 16.0469V11.1663V11.1621ZM10.0646 45.0767C6.33976 40.3375 4.09486 34.0726 4.15722 27.2173C4.93046 28.822 6.35639 30.1107 7.41232 31.466C8.98791 33.3741 9.84845 35.4735 10.0605 37.8556V45.0726L10.0646 45.0767ZM41.6096 39.4562V43.8379C41.6096 47.2426 39.689 50.3813 36.6209 51.8571C36.596 51.8696 36.5752 51.8821 36.5544 51.8904V30.9546C36.3008 31.1916 36.0597 31.4286 35.8144 31.6655L35.7936 31.6863C34.7793 32.6383 33.9271 33.5986 33.2203 34.5797V48.2528C33.2203 51.3791 30.7052 53.9565 27.5748 53.9649H27.4252C24.2989 53.9524 21.7797 51.3791 21.7797 48.2528V34.5797C21.0729 33.5986 20.2207 32.6425 19.2063 31.6863L19.1856 31.6655C18.9403 31.4286 18.6992 31.1916 18.4456 30.9546V51.8904C18.4248 51.8821 18.3998 51.8696 18.3791 51.8571C15.311 50.3772 13.3904 47.2426 13.3904 43.8379V39.4562C13.1909 36.9036 12.455 34.243 10.9584 32.1187C10.6841 31.7071 10.3806 31.3246 10.0605 30.9588C8.89229 29.6119 7.48715 28.5019 6.2774 27.2298C4.90136 25.8122 4.35261 23.7045 4.70597 21.7797C4.70597 21.7589 4.70597 21.7423 4.71429 21.7298C5.59562 17.2732 7.47052 13.2324 10.0605 9.93575V29.0714C10.393 29.404 10.7215 29.7491 11.0416 30.1107C11.4074 30.5348 11.7358 30.9505 12.0268 31.3912C12.5881 32.1893 13.0329 33.0291 13.3904 33.8647V22.9478C13.619 23.4301 13.8685 23.904 14.147 24.3655C15.2487 26.2071 16.8658 27.7245 18.4456 29.192C19.0068 29.7116 19.5639 30.2271 20.0918 30.7468C20.6946 31.3122 21.2559 31.8942 21.7797 32.497C23.8125 34.8583 25.1969 37.5397 25.6043 40.774C25.7623 41.8715 25.8205 42.9898 25.8039 44.1206L25.7914 48.9305C25.7914 49.2963 25.8953 49.6372 26.0782 49.924C26.7226 50.9384 28.2691 50.9384 28.9093 49.924C29.0922 49.6372 29.1961 49.2963 29.1961 48.9305L29.1837 44.1206C29.167 42.9898 29.2294 41.8715 29.3832 40.774C29.7906 37.5397 31.175 34.8583 33.2079 32.497C33.7317 31.8942 34.2929 31.3122 34.8957 30.7468C35.4237 30.2271 35.9807 29.7116 36.542 29.192C38.1217 27.7286 39.7388 26.2113 40.8405 24.3655C41.119 23.904 41.3726 23.4301 41.6013 22.9478V33.8647C41.9588 33.0291 42.4036 32.1852 42.9649 31.3912C43.2559 30.9546 43.5843 30.5348 43.9501 30.1107C44.2702 29.7449 44.5945 29.404 44.9312 29.0714V9.92744C47.5212 13.2241 49.3961 17.2649 50.2774 21.7215C50.2816 21.7381 50.2816 21.7547 50.2857 21.7714C50.6391 23.7003 50.0903 25.808 48.7143 27.2215C47.5004 28.4936 46.0994 29.6035 44.9312 30.9505C44.6111 31.3163 44.3076 31.6988 44.0333 32.1104C42.5367 34.2347 41.8008 36.8953 41.6013 39.4478M44.9395 45.0767V37.8598C45.1515 35.4735 46.0121 33.3783 47.5877 31.4701C48.6436 30.1149 50.0695 28.8262 50.8428 27.2215C50.9051 34.0726 48.6602 40.3375 44.9354 45.0809" fill="#C1A880"/>
</svg>
