<svg width="84" height="111" viewBox="0 0 84 111" fill="none" xmlns="http://www.w3.org/2000/svg">
<g clip-path="url(#clip0_51_211)">
<path d="M60.0706 26.6032L49.0046 37.6558L53.2784 41.9243L64.3443 30.8718L60.0706 26.6032Z" fill="url(#paint0_linear_51_211)"/>
<path d="M37.704 48.9445L26.6381 59.9971L30.9118 64.2656L41.9778 53.2131L37.704 48.9445Z" fill="url(#paint1_linear_51_211)"/>
<path d="M53.0454 19.5837L41.9795 30.6362L46.2532 34.9048L57.3192 23.8522L53.0454 19.5837Z" fill="url(#paint2_linear_51_211)"/>
<path d="M30.6789 41.925L19.6129 52.9775L23.8867 57.2461L34.9526 46.1936L30.6789 41.925Z" fill="url(#paint3_linear_51_211)"/>
<path d="M23.8843 26.6074L19.6106 30.876L30.6765 41.9285L34.9503 37.66L23.8843 26.6074Z" fill="url(#paint4_linear_51_211)"/>
<path d="M30.9124 19.5908L26.6387 23.8594L37.7046 34.9119L41.9784 30.6434L30.9124 19.5908Z" fill="url(#paint5_linear_51_211)"/>
<path d="M53.2807 41.9302L49.007 46.1987L60.0729 57.2513L64.3466 52.9827L53.2807 41.9302Z" fill="url(#paint6_linear_51_211)"/>
<path d="M46.2526 48.9468L41.9789 53.2153L53.0448 64.2679L57.3186 59.9993L46.2526 48.9468Z" fill="url(#paint7_linear_51_211)"/>
<path d="M57.3163 68.5341L53.0436 64.2666L41.9778 75.319L30.912 64.2666L26.6393 68.5341L41.9778 83.8541L57.3163 68.5341Z" fill="url(#paint8_linear_51_211)"/>
<path d="M19.6112 30.8745L15.3385 26.6069L0 41.9269L15.3385 57.2469L19.6112 52.9793L8.54539 41.9269L19.6112 30.8745Z" fill="url(#paint9_linear_51_211)"/>
<path d="M68.6171 26.6069L64.3444 30.8745L75.4102 41.9269L64.3444 52.9793L68.6171 57.2469L83.9556 41.9269L68.6171 26.6069Z" fill="url(#paint10_linear_51_211)"/>
<path d="M53.0436 19.5875L57.3163 15.32L41.9778 0L26.6393 15.32L30.912 19.5875L41.9778 8.53505L53.0436 19.5875Z" fill="url(#paint11_linear_51_211)"/>
<path d="M6.74234 102.959C7.40261 102.459 7.85337 101.704 8.10732 100.74L8.13271 100.664L6.79313 100.334L6.76773 100.417C6.60902 101.133 6.30428 101.672 5.86621 102.04C5.41546 102.395 4.87581 102.579 4.22189 102.579C3.69495 102.579 3.2061 102.446 2.74264 102.18C2.29188 101.913 1.96175 101.507 1.75224 100.962C1.53003 100.423 1.42211 99.7699 1.42211 99.047C1.42211 98.4763 1.51734 97.9247 1.70145 97.392C1.88556 96.8657 2.203 96.4409 2.64106 96.1238C3.09182 95.8194 3.66321 95.6609 4.32347 95.6609C4.90756 95.6609 5.38371 95.7941 5.76464 96.0858C6.14556 96.3648 6.4376 96.815 6.64076 97.4364L6.66615 97.4998L7.98669 97.1955L7.96129 97.1194C7.70735 96.3014 7.27563 95.6546 6.65346 95.1917C6.03128 94.7415 5.26309 94.5195 4.34887 94.5195C3.55528 94.5195 2.81248 94.6907 2.13951 95.0458C1.47924 95.4136 0.945952 95.9463 0.590423 96.6311C0.234894 97.3159 0.0507812 98.1403 0.0507812 99.047C0.0507812 99.8904 0.209499 100.702 0.526936 101.425C0.844372 102.167 1.32053 102.744 1.9427 103.131C2.55218 103.53 3.35847 103.727 4.33617 103.727C5.31388 103.727 6.08207 103.46 6.74234 102.959Z" fill="url(#paint12_linear_51_211)"/>
<path d="M20.4112 101.545C20.7794 100.842 20.9699 100.024 20.9699 99.1295C20.9699 98.2354 20.7857 97.4491 20.4429 96.7516C20.0874 96.054 19.5668 95.496 18.8938 95.0965C18.2209 94.6971 17.4527 94.5005 16.6146 94.5005C15.3322 94.5005 14.2719 94.9253 13.4657 95.756C12.6594 96.5867 12.2467 97.7661 12.2467 99.2309C12.2467 100.011 12.4181 100.753 12.7736 101.45C13.1165 102.148 13.6307 102.706 14.31 103.118C14.983 103.53 15.7512 103.727 16.6019 103.727C17.3955 103.727 18.1383 103.543 18.8113 103.169C19.4969 102.814 20.0302 102.256 20.4112 101.545ZM16.6019 102.579C15.7575 102.579 15.0401 102.275 14.4688 101.691C13.9101 101.095 13.6244 100.277 13.6244 99.2436C13.6244 97.9627 13.9291 97.0242 14.5132 96.4789C15.0973 95.9399 15.8083 95.6609 16.6146 95.6609C17.1987 95.6609 17.713 95.8067 18.1764 96.0857C18.6272 96.3648 18.9827 96.7706 19.224 97.2905C19.4652 97.8042 19.5795 98.4256 19.5795 99.1295C19.5795 100.226 19.3001 101.089 18.7478 101.679C18.1891 102.275 17.4654 102.579 16.6019 102.579Z" fill="url(#paint13_linear_51_211)"/>
<path d="M34.2959 94.8052H33.0134V103.727H34.2959V94.8052Z" fill="url(#paint14_linear_51_211)"/>
<path d="M30.5247 103.727L32.5372 98.0581V94.8876L30.4041 100.956C30.2327 101.444 30.0993 101.831 30.0041 102.135L29.6486 101.076L27.5154 94.8115H27.3694V98.0518L29.3438 103.733H30.5247V103.727Z" fill="url(#paint15_linear_51_211)"/>
<path d="M26.8932 94.8052H25.598V103.727H26.8932V94.8052Z" fill="url(#paint16_linear_51_211)"/>
<path d="M45.1585 99.3644C45.66 98.8381 45.914 98.1849 45.914 97.424C45.914 96.9738 45.8187 96.568 45.6346 96.1939C45.4378 95.8261 45.1966 95.5217 44.8791 95.3188C44.5744 95.1095 44.1935 94.9637 43.7554 94.8939C43.438 94.8305 42.9745 94.7988 42.3777 94.7988H40.7397V95.9909H42.473C42.9999 95.9909 43.3618 96.0163 43.5586 96.0734C43.8506 96.1495 44.0855 96.3143 44.2569 96.5616C44.4411 96.8153 44.5236 97.1006 44.5236 97.4621C44.5236 97.9376 44.3776 98.3054 44.0728 98.5717C43.7681 98.8381 43.2411 98.9712 42.4983 98.9712H40.7397V100.176H42.4856C43.7554 100.176 44.6696 99.897 45.1585 99.3707V99.3644Z" fill="url(#paint17_linear_51_211)"/>
<path d="M40.27 94.8052H38.9304V103.727H40.27V94.8052Z" fill="url(#paint18_linear_51_211)"/>
<path d="M55.4181 94.8052H54.0404L50.5486 103.727H51.9643L52.3643 102.681H52.3516L53.3547 99.9731L53.5642 99.4151L54.307 97.4431H54.3197C54.4784 97.0055 54.6118 96.5553 54.7197 96.1241C54.853 96.549 55.0371 97.0626 55.2593 97.646L56.1609 99.9731H53.869L53.4563 101.07H56.5799L57.6274 103.727H59.1511L55.4181 94.8052Z" fill="url(#paint19_linear_51_211)"/>
<path d="M69.5249 101.47V103.727H70.8454V94.8052H69.5503V101.508L69.5249 101.47Z" fill="url(#paint20_linear_51_211)"/>
<path d="M64.8903 94.8052H63.646V103.727H64.8903V94.8052Z" fill="url(#paint21_linear_51_211)"/>
<path d="M69.0487 100.765L65.3665 95.3882V97.6583L69.0487 103.055V100.765Z" fill="url(#paint22_linear_51_211)"/>
<path d="M82.4128 94.8052L80.6542 97.424C80.3114 97.9377 80.0066 98.4259 79.74 98.8508V98.8381L78.9972 99.9604V103.727H80.3495V99.9604L83.9873 94.8052H82.4128Z" fill="url(#paint23_linear_51_211)"/>
<path d="M78.9083 97.4874L77.118 94.8052H75.48L78.7115 99.5356L79.4606 98.3752L78.9083 97.4874Z" fill="url(#paint24_linear_51_211)"/>
<path d="M1.42211 110.975V108.178H2.31093V107.741H0.0444336V108.178H0.933255V110.975H1.42211Z" fill="url(#paint25_linear_51_211)"/>
<path d="M6.30435 107.741H5.89168L4.71716 110.975H5.23776L5.49171 110.245H6.71701L6.96461 110.975H7.48521L6.31069 107.741H6.30435ZM5.62503 109.814L6.09484 108.4H6.10119L6.56464 109.814H5.61868H5.62503Z" fill="url(#paint26_linear_51_211)"/>
<path d="M11.015 108.438C11.0658 108.368 11.1356 108.318 11.2182 108.273C11.3007 108.229 11.4023 108.21 11.5166 108.204C11.6753 108.204 11.8086 108.254 11.9165 108.337C12.0244 108.426 12.0943 108.54 12.1324 108.666H12.653C12.6022 108.394 12.4752 108.166 12.2784 107.988C12.0816 107.804 11.8276 107.715 11.5166 107.709C11.2626 107.709 11.0467 107.772 10.8817 107.893C10.7103 108.007 10.5833 108.14 10.5071 108.292C10.4563 108.368 10.4246 108.476 10.3992 108.603C10.3801 108.73 10.3674 108.984 10.3674 109.358C10.3674 109.732 10.3801 109.979 10.3992 110.106C10.4119 110.176 10.4246 110.233 10.4436 110.277C10.4627 110.321 10.4817 110.366 10.5071 110.417C10.5833 110.569 10.7103 110.696 10.8817 110.81C11.0531 110.93 11.2626 110.987 11.5166 110.994C11.8467 110.994 12.1197 110.873 12.3355 110.658C12.5514 110.436 12.6657 110.169 12.6657 109.846V109.186H11.5166V109.649H12.1768V109.821C12.1768 110.023 12.107 110.188 11.9864 110.309C11.8594 110.442 11.707 110.505 11.5102 110.505C11.3959 110.505 11.2943 110.48 11.2118 110.429C11.1293 110.385 11.0594 110.334 11.0087 110.264C10.9452 110.195 10.9007 110.106 10.8817 109.992C10.8563 109.878 10.8436 109.662 10.8436 109.345C10.8436 109.028 10.8563 108.812 10.8817 108.692C10.9007 108.584 10.9452 108.495 11.0087 108.426L11.015 108.438Z" fill="url(#paint27_linear_51_211)"/>
<path d="M15.9734 107.741V110.975H18.0431V110.512H16.4686V107.741H15.9734Z" fill="url(#paint28_linear_51_211)"/>
<path d="M21.7253 107.741H21.2365V110.975H21.7253V107.741Z" fill="url(#paint29_linear_51_211)"/>
<path d="M25.6298 108.679H25.6362L27.1027 110.975H27.5662V107.741H27.0774V110.043H27.0647L25.6045 107.741H25.141V110.975H25.6298V108.679Z" fill="url(#paint30_linear_51_211)"/>
<path d="M33.0515 108.204V107.741H30.9818V110.975H33.0515V110.512H31.4707V109.561H32.8166V109.129H31.4707V108.204H33.0515Z" fill="url(#paint31_linear_51_211)"/>
<path d="M40.0287 110.283C40.0477 110.328 40.0668 110.372 40.0922 110.423C40.1684 110.575 40.2953 110.702 40.4668 110.816C40.6382 110.937 40.8477 110.994 41.1016 111C41.4318 111 41.7048 110.879 41.9206 110.664C42.1365 110.442 42.2508 110.176 42.2508 109.852V109.193H41.1016V109.656H41.7619V109.827C41.7619 110.03 41.6921 110.195 41.5714 110.315C41.4445 110.448 41.2921 110.512 41.0953 110.512C40.981 110.512 40.8794 110.486 40.7969 110.436C40.7144 110.391 40.6445 110.341 40.5937 110.271C40.5303 110.201 40.4858 110.112 40.4668 109.998C40.4414 109.884 40.4287 109.668 40.4287 109.351C40.4287 109.034 40.4414 108.819 40.4668 108.698C40.4858 108.59 40.5303 108.502 40.5937 108.432C40.6445 108.362 40.7144 108.311 40.7969 108.267C40.8794 108.223 40.981 108.204 41.0953 108.197C41.254 108.197 41.3873 108.248 41.4953 108.33C41.6032 108.419 41.673 108.533 41.7111 108.66H42.2317C42.1809 108.387 42.0539 108.159 41.8571 107.982C41.6603 107.798 41.4064 107.709 41.0953 107.703C40.8413 107.703 40.6255 107.766 40.4604 107.887C40.289 108.001 40.162 108.134 40.0858 108.286C40.035 108.362 40.0033 108.47 39.9779 108.597C39.9589 108.724 39.9462 108.977 39.9462 109.351C39.9462 109.725 39.9589 109.973 39.9779 110.1C39.9906 110.169 40.0033 110.226 40.0224 110.271L40.0287 110.283Z" fill="url(#paint32_linear_51_211)"/>
<path d="M45.5331 110.283C45.5521 110.328 45.5712 110.372 45.5966 110.423C45.6728 110.575 45.7997 110.702 45.9775 110.816C46.1489 110.937 46.3584 110.994 46.6124 111C46.8727 111 47.0822 110.93 47.2536 110.816C47.425 110.702 47.5456 110.569 47.6218 110.423C47.679 110.347 47.7171 110.239 47.7361 110.112C47.7552 109.979 47.7678 109.732 47.7678 109.364C47.7678 108.996 47.7552 108.736 47.7361 108.609C47.7171 108.483 47.679 108.381 47.6218 108.299C47.5456 108.147 47.425 108.013 47.2536 107.899C47.0822 107.779 46.8663 107.722 46.6124 107.715C46.3584 107.715 46.1426 107.779 45.9775 107.899C45.8061 108.013 45.6791 108.147 45.5966 108.299C45.5458 108.375 45.514 108.483 45.4887 108.609C45.4633 108.736 45.4569 108.99 45.4569 109.364C45.4569 109.738 45.4696 109.985 45.4887 110.112C45.5014 110.182 45.514 110.239 45.5331 110.283ZM45.9839 108.711C46.0029 108.603 46.0473 108.514 46.1108 108.445C46.1616 108.375 46.2315 108.324 46.314 108.28C46.3965 108.235 46.4981 108.216 46.6124 108.21C46.7267 108.21 46.8282 108.235 46.9171 108.28C46.9997 108.324 47.0631 108.381 47.1139 108.445C47.1774 108.514 47.2219 108.603 47.2472 108.711C47.2726 108.825 47.279 109.041 47.279 109.364C47.279 109.687 47.2663 109.897 47.2472 110.011C47.2219 110.125 47.1774 110.214 47.1139 110.283C47.0631 110.347 46.9997 110.404 46.9171 110.448C46.8282 110.499 46.7267 110.524 46.6124 110.524C46.4981 110.524 46.3965 110.499 46.314 110.448C46.2315 110.404 46.1616 110.353 46.1108 110.283C46.0473 110.214 46.0029 110.125 45.9839 110.011C45.9585 109.897 45.9458 109.681 45.9458 109.364C45.9458 109.047 45.9585 108.831 45.9839 108.711Z" fill="url(#paint33_linear_51_211)"/>
<path d="M53.1389 108.204V107.741H51.0692V110.975H53.1389V110.512H51.5644V109.561H52.9103V109.129H51.5644V108.204H53.1389Z" fill="url(#paint34_linear_51_211)"/>
<path d="M57.2909 110.512C56.9353 110.512 56.6306 110.404 56.3703 110.188L56.0465 110.556C56.3893 110.854 56.802 111 57.2845 111C58.0273 110.994 58.4082 110.677 58.4209 110.062C58.4209 109.833 58.3511 109.63 58.2051 109.459C58.0591 109.282 57.8369 109.174 57.5321 109.136C57.3797 109.117 57.2591 109.098 57.1702 109.085C57.0115 109.053 56.8972 109.003 56.8211 108.926C56.7512 108.85 56.7131 108.768 56.7131 108.673C56.7131 108.514 56.7703 108.4 56.8782 108.324C56.9798 108.248 57.1067 108.21 57.2528 108.21C57.5448 108.21 57.8115 108.299 58.0527 108.457L58.3257 108.051C58.0273 107.836 57.6781 107.728 57.2718 107.715C56.9353 107.715 56.6814 107.804 56.4973 107.975C56.3068 108.147 56.2179 108.375 56.2179 108.66C56.2179 108.895 56.2941 109.098 56.4401 109.256C56.5862 109.415 56.7957 109.516 57.075 109.567C57.2337 109.586 57.3734 109.611 57.5067 109.624C57.7924 109.675 57.9321 109.821 57.9257 110.062C57.9257 110.353 57.7035 110.505 57.2845 110.512H57.2909Z" fill="url(#paint35_linear_51_211)"/>
<path d="M67.7536 110.975V107.741H67.2647V109.129H65.9823V107.741H65.4934V110.975H65.9823V109.561H67.2647V110.975H67.7536Z" fill="url(#paint36_linear_51_211)"/>
<path d="M73.2389 108.204V107.741H71.1692V110.975H73.2389V110.512H71.658V109.561H73.004V109.129H71.658V108.204H73.2389Z" fill="url(#paint37_linear_51_211)"/>
<path d="M78.6735 108.647C78.6671 108.349 78.5592 108.121 78.3497 107.956C78.1783 107.817 77.9624 107.741 77.6894 107.741H76.426V110.975H76.9149V109.592H77.5434L78.21 110.975H78.7941L78.045 109.542C78.4576 109.383 78.6671 109.085 78.6735 108.647ZM78.0767 109.003C77.9878 109.104 77.8481 109.161 77.664 109.161H76.9212V108.178H77.6894C77.8481 108.178 77.9688 108.21 78.0513 108.28C78.1592 108.356 78.21 108.476 78.2164 108.647C78.2164 108.787 78.1719 108.907 78.083 109.003H78.0767Z" fill="url(#paint38_linear_51_211)"/>
<path d="M84 108.204V107.741H81.9366V110.975H84V110.512H82.4255V109.561H83.7714V109.129H82.4255V108.204H84Z" fill="url(#paint39_linear_51_211)"/>
</g>
<defs>
<linearGradient id="paint0_linear_51_211" x1="49.0016" y1="34.2634" x2="64.3401" y2="34.2634" gradientUnits="userSpaceOnUse">
<stop/>
<stop offset="0.33"/>
<stop offset="0.52"/>
<stop offset="0.73"/>
<stop offset="1"/>
</linearGradient>
<linearGradient id="paint1_linear_51_211" x1="26.6338" y1="56.6059" x2="41.9723" y2="56.6059" gradientUnits="userSpaceOnUse">
<stop/>
<stop offset="0.33"/>
<stop offset="0.52"/>
<stop offset="0.73"/>
<stop offset="1"/>
</linearGradient>
<linearGradient id="paint2_linear_51_211" x1="41.9785" y1="27.2459" x2="57.317" y2="27.2459" gradientUnits="userSpaceOnUse">
<stop/>
<stop offset="0.33"/>
<stop offset="0.52"/>
<stop offset="0.73"/>
<stop offset="1"/>
</linearGradient>
<linearGradient id="paint3_linear_51_211" x1="19.6107" y1="49.5885" x2="34.9492" y2="49.5885" gradientUnits="userSpaceOnUse">
<stop/>
<stop offset="0.33"/>
<stop offset="0.52"/>
<stop offset="0.73"/>
<stop offset="1"/>
</linearGradient>
<linearGradient id="paint4_linear_51_211" x1="19.6084" y1="-0.00392959" x2="34.9469" y2="-0.00392992" gradientUnits="userSpaceOnUse">
<stop/>
<stop offset="0.33"/>
<stop offset="0.52"/>
<stop offset="0.73"/>
<stop offset="1"/>
</linearGradient>
<linearGradient id="paint5_linear_51_211" x1="26.6344" y1="27.2486" x2="41.9729" y2="27.2486" gradientUnits="userSpaceOnUse">
<stop/>
<stop offset="0.33"/>
<stop offset="0.52"/>
<stop offset="0.73"/>
<stop offset="1"/>
</linearGradient>
<linearGradient id="paint6_linear_51_211" x1="-0.0019335" y1="49.5891" x2="0.632939" y2="49.5891" gradientUnits="userSpaceOnUse">
<stop/>
<stop offset="0.33"/>
<stop offset="0.52"/>
<stop offset="0.73"/>
<stop offset="1"/>
</linearGradient>
<linearGradient id="paint7_linear_51_211" x1="41.9779" y1="56.6037" x2="57.3164" y2="56.6037" gradientUnits="userSpaceOnUse">
<stop/>
<stop offset="0.33"/>
<stop offset="0.52"/>
<stop offset="0.73"/>
<stop offset="1"/>
</linearGradient>
<linearGradient id="paint8_linear_51_211" x1="26.6393" y1="74.0635" x2="57.3163" y2="74.0635" gradientUnits="userSpaceOnUse">
<stop/>
<stop offset="0.33"/>
<stop offset="0.52"/>
<stop offset="0.73"/>
<stop offset="1"/>
</linearGradient>
<linearGradient id="paint9_linear_51_211" x1="0" y1="41.9269" x2="19.6112" y2="41.9269" gradientUnits="userSpaceOnUse">
<stop/>
<stop offset="0.33"/>
<stop offset="0.52"/>
<stop offset="0.73"/>
<stop offset="1"/>
</linearGradient>
<linearGradient id="paint10_linear_51_211" x1="64.3444" y1="41.9269" x2="83.9556" y2="41.9269" gradientUnits="userSpaceOnUse">
<stop/>
<stop offset="0.33"/>
<stop offset="0.52"/>
<stop offset="0.73"/>
<stop offset="1"/>
</linearGradient>
<linearGradient id="paint11_linear_51_211" x1="26.6393" y1="9.79691" x2="57.3163" y2="9.79691" gradientUnits="userSpaceOnUse">
<stop/>
<stop offset="0.33"/>
<stop offset="0.52"/>
<stop offset="0.73"/>
<stop offset="1"/>
</linearGradient>
<linearGradient id="paint12_linear_51_211" x1="0.0444325" y1="99.1231" x2="8.13271" y2="99.1231" gradientUnits="userSpaceOnUse">
<stop/>
<stop offset="0.33"/>
<stop offset="0.52"/>
<stop offset="0.73"/>
<stop offset="1"/>
</linearGradient>
<linearGradient id="paint13_linear_51_211" x1="12.2467" y1="99.1168" x2="20.9699" y2="99.1168" gradientUnits="userSpaceOnUse">
<stop/>
<stop offset="0.33"/>
<stop offset="0.52"/>
<stop offset="0.73"/>
<stop offset="1"/>
</linearGradient>
<linearGradient id="paint14_linear_51_211" x1="33.0134" y1="99.2693" x2="34.2959" y2="99.2693" gradientUnits="userSpaceOnUse">
<stop/>
<stop offset="0.33"/>
<stop offset="0.52"/>
<stop offset="0.73"/>
<stop offset="1"/>
</linearGradient>
<linearGradient id="paint15_linear_51_211" x1="27.3757" y1="99.2693" x2="32.5372" y2="99.2693" gradientUnits="userSpaceOnUse">
<stop/>
<stop offset="0.33"/>
<stop offset="0.52"/>
<stop offset="0.73"/>
<stop offset="1"/>
</linearGradient>
<linearGradient id="paint16_linear_51_211" x1="25.598" y1="99.2693" x2="26.8995" y2="99.2693" gradientUnits="userSpaceOnUse">
<stop/>
<stop offset="0.33"/>
<stop offset="0.52"/>
<stop offset="0.73"/>
<stop offset="1"/>
</linearGradient>
<linearGradient id="paint17_linear_51_211" x1="40.7397" y1="97.4874" x2="45.914" y2="97.4874" gradientUnits="userSpaceOnUse">
<stop/>
<stop offset="0.33"/>
<stop offset="0.52"/>
<stop offset="0.73"/>
<stop offset="1"/>
</linearGradient>
<linearGradient id="paint18_linear_51_211" x1="38.9304" y1="99.2693" x2="40.2637" y2="99.2693" gradientUnits="userSpaceOnUse">
<stop/>
<stop offset="0.33"/>
<stop offset="0.52"/>
<stop offset="0.73"/>
<stop offset="1"/>
</linearGradient>
<linearGradient id="paint19_linear_51_211" x1="50.5486" y1="99.2693" x2="59.1511" y2="99.2693" gradientUnits="userSpaceOnUse">
<stop/>
<stop offset="0.33"/>
<stop offset="0.52"/>
<stop offset="0.73"/>
<stop offset="1"/>
</linearGradient>
<linearGradient id="paint20_linear_51_211" x1="69.5249" y1="99.2693" x2="70.8454" y2="99.2693" gradientUnits="userSpaceOnUse">
<stop/>
<stop offset="0.33"/>
<stop offset="0.52"/>
<stop offset="0.73"/>
<stop offset="1"/>
</linearGradient>
<linearGradient id="paint21_linear_51_211" x1="63.646" y1="99.2693" x2="64.8903" y2="99.2693" gradientUnits="userSpaceOnUse">
<stop/>
<stop offset="0.33"/>
<stop offset="0.52"/>
<stop offset="0.73"/>
<stop offset="1"/>
</linearGradient>
<linearGradient id="paint22_linear_51_211" x1="65.3665" y1="99.2182" x2="69.0487" y2="99.2182" gradientUnits="userSpaceOnUse">
<stop/>
<stop offset="0.33"/>
<stop offset="0.52"/>
<stop offset="0.73"/>
<stop offset="1"/>
</linearGradient>
<linearGradient id="paint23_linear_51_211" x1="79.0035" y1="99.2693" x2="83.9873" y2="99.2693" gradientUnits="userSpaceOnUse">
<stop/>
<stop offset="0.33"/>
<stop offset="0.52"/>
<stop offset="0.73"/>
<stop offset="1"/>
</linearGradient>
<linearGradient id="paint24_linear_51_211" x1="75.48" y1="97.1704" x2="79.4606" y2="97.1704" gradientUnits="userSpaceOnUse">
<stop/>
<stop offset="0.33"/>
<stop offset="0.52"/>
<stop offset="0.73"/>
<stop offset="1"/>
</linearGradient>
<linearGradient id="paint25_linear_51_211" x1="0.0444336" y1="109.358" x2="2.31093" y2="109.358" gradientUnits="userSpaceOnUse">
<stop/>
<stop offset="0.33"/>
<stop offset="0.52"/>
<stop offset="0.73"/>
<stop offset="1"/>
</linearGradient>
<linearGradient id="paint26_linear_51_211" x1="4.71081" y1="109.358" x2="7.47886" y2="109.358" gradientUnits="userSpaceOnUse">
<stop/>
<stop offset="0.33"/>
<stop offset="0.52"/>
<stop offset="0.73"/>
<stop offset="1"/>
</linearGradient>
<linearGradient id="paint27_linear_51_211" x1="10.3611" y1="109.358" x2="12.672" y2="109.358" gradientUnits="userSpaceOnUse">
<stop/>
<stop offset="0.33"/>
<stop offset="0.52"/>
<stop offset="0.73"/>
<stop offset="1"/>
</linearGradient>
<linearGradient id="paint28_linear_51_211" x1="15.9734" y1="109.358" x2="18.0431" y2="109.358" gradientUnits="userSpaceOnUse">
<stop/>
<stop offset="0.33"/>
<stop offset="0.52"/>
<stop offset="0.73"/>
<stop offset="1"/>
</linearGradient>
<linearGradient id="paint29_linear_51_211" x1="21.2365" y1="109.358" x2="21.7253" y2="109.358" gradientUnits="userSpaceOnUse">
<stop/>
<stop offset="0.33"/>
<stop offset="0.52"/>
<stop offset="0.73"/>
<stop offset="1"/>
</linearGradient>
<linearGradient id="paint30_linear_51_211" x1="25.141" y1="109.358" x2="27.5662" y2="109.358" gradientUnits="userSpaceOnUse">
<stop/>
<stop offset="0.33"/>
<stop offset="0.52"/>
<stop offset="0.73"/>
<stop offset="1"/>
</linearGradient>
<linearGradient id="paint31_linear_51_211" x1="30.9818" y1="109.358" x2="33.0515" y2="109.358" gradientUnits="userSpaceOnUse">
<stop/>
<stop offset="0.33"/>
<stop offset="0.52"/>
<stop offset="0.73"/>
<stop offset="1"/>
</linearGradient>
<linearGradient id="paint32_linear_51_211" x1="39.9525" y1="109.358" x2="42.2635" y2="109.358" gradientUnits="userSpaceOnUse">
<stop/>
<stop offset="0.33"/>
<stop offset="0.52"/>
<stop offset="0.73"/>
<stop offset="1"/>
</linearGradient>
<linearGradient id="paint33_linear_51_211" x1="45.4569" y1="109.358" x2="47.7678" y2="109.358" gradientUnits="userSpaceOnUse">
<stop/>
<stop offset="0.33"/>
<stop offset="0.52"/>
<stop offset="0.73"/>
<stop offset="1"/>
</linearGradient>
<linearGradient id="paint34_linear_51_211" x1="51.0692" y1="109.358" x2="53.1389" y2="109.358" gradientUnits="userSpaceOnUse">
<stop/>
<stop offset="0.33"/>
<stop offset="0.52"/>
<stop offset="0.73"/>
<stop offset="1"/>
</linearGradient>
<linearGradient id="paint35_linear_51_211" x1="56.0465" y1="109.358" x2="58.4209" y2="109.358" gradientUnits="userSpaceOnUse">
<stop/>
<stop offset="0.33"/>
<stop offset="0.52"/>
<stop offset="0.73"/>
<stop offset="1"/>
</linearGradient>
<linearGradient id="paint36_linear_51_211" x1="65.4934" y1="109.358" x2="67.7536" y2="109.358" gradientUnits="userSpaceOnUse">
<stop/>
<stop offset="0.33"/>
<stop offset="0.52"/>
<stop offset="0.73"/>
<stop offset="1"/>
</linearGradient>
<linearGradient id="paint37_linear_51_211" x1="71.1692" y1="109.358" x2="73.2389" y2="109.358" gradientUnits="userSpaceOnUse">
<stop/>
<stop offset="0.33"/>
<stop offset="0.52"/>
<stop offset="0.73"/>
<stop offset="1"/>
</linearGradient>
<linearGradient id="paint38_linear_51_211" x1="76.4324" y1="109.358" x2="78.8005" y2="109.358" gradientUnits="userSpaceOnUse">
<stop/>
<stop offset="0.33"/>
<stop offset="0.52"/>
<stop offset="0.73"/>
<stop offset="1"/>
</linearGradient>
<linearGradient id="paint39_linear_51_211" x1="81.9366" y1="109.358" x2="84" y2="109.358" gradientUnits="userSpaceOnUse">
<stop/>
<stop offset="0.33"/>
<stop offset="0.52"/>
<stop offset="0.73"/>
<stop offset="1"/>
</linearGradient>
<clipPath id="clip0_51_211">
<rect width="84" height="111" fill="white"/>
</clipPath>
</defs>
</svg>
