<svg width="133" height="108" viewBox="0 0 133 108" fill="none" xmlns="http://www.w3.org/2000/svg">
<g clip-path="url(#clip0_51_74)">
<path d="M15.3148 103.973H16.3235V107.737H16.9901V103.973H17.9989V103.352H15.3148V103.973Z" fill="url(#paint0_linear_51_74)"/>
<path d="M23.674 107.738H24.3844L24.8756 106.67H26.7527L27.2176 107.738H27.9456L25.8492 103.081L23.674 107.738ZM25.1475 106.048L25.8317 104.56L26.4808 106.048H25.1475Z" fill="url(#paint1_linear_51_74)"/>
<path d="M36.2082 103.886C36.7257 103.886 37.1643 104.122 37.5239 104.604L37.9976 104.149C37.7257 103.834 37.445 103.606 37.1555 103.466C36.8573 103.326 36.5415 103.256 36.1907 103.256C35.5504 103.256 35.0065 103.475 34.5592 103.921C34.1119 104.367 33.8926 104.901 33.8926 105.54C33.8926 106.179 34.1119 106.696 34.5504 107.142C34.989 107.588 35.5153 107.807 36.1293 107.807C36.7433 107.807 37.2783 107.58 37.6818 107.116C37.866 106.914 37.9888 106.696 38.0677 106.459C38.1467 106.206 38.1818 105.917 38.1818 105.584V105.435H36.3661V106.057H37.4625C37.4362 106.363 37.2871 106.634 37.024 106.853C36.7608 107.072 36.4714 107.186 36.1468 107.186C35.7609 107.186 35.41 107.037 35.0767 106.748C34.7259 106.433 34.5504 106.03 34.5504 105.54C34.5504 105.05 34.7083 104.674 35.0241 104.359C35.3399 104.035 35.7258 103.877 36.1907 103.877L36.2082 103.886Z" fill="url(#paint2_linear_51_74)"/>
<path d="M45.7689 103.352V107.737H47.7249V107.107H46.4355V103.352H45.7689Z" fill="url(#paint3_linear_51_74)"/>
<path d="M54.8473 103.352H54.1807V107.737H54.8473V103.352Z" fill="url(#paint4_linear_51_74)"/>
<path d="M65.5922 108V103.352H64.9343V106.398L61.724 103.055V107.737H62.3906V104.665L65.5922 108Z" fill="url(#paint5_linear_51_74)"/>
<path d="M74.8986 103.973V103.352H72.4777V107.737H74.8986V107.107H73.1355V105.645H74.8459V105.024H73.1355V103.973H74.8986Z" fill="url(#paint6_linear_51_74)"/>
<path d="M89.9327 107.737V103.352H89.2661V105.068H87.3715V103.352H86.7048V107.737H87.3715V105.689H89.2661V107.737H89.9327Z" fill="url(#paint7_linear_51_74)"/>
<path d="M99.2303 103.973V103.352H96.8094V107.737H99.2303V107.107H97.4673V105.645H99.1777V105.024H97.4673V103.973H99.2303Z" fill="url(#paint8_linear_51_74)"/>
<path d="M108.388 104.639C108.388 104.245 108.247 103.921 107.958 103.676C107.703 103.457 107.282 103.352 106.704 103.352H105.923V107.737H106.589V105.943H106.712L107.967 107.737H108.774L107.414 105.873C107.703 105.812 107.94 105.672 108.116 105.444C108.291 105.216 108.388 104.954 108.388 104.647V104.639ZM106.8 105.365H106.589V103.973H106.826C107.44 103.973 107.739 104.201 107.739 104.647C107.739 105.129 107.423 105.365 106.8 105.365Z" fill="url(#paint9_linear_51_74)"/>
<path d="M115.264 107.737H117.685V107.107H115.931V105.645H117.633V105.024H115.931V103.973H117.685V103.352H115.264V107.737Z" fill="url(#paint10_linear_51_74)"/>
<path d="M10.2099 95.4837C9.99059 95.7726 9.73623 96.0264 9.44677 96.254C9.15732 96.4728 8.81523 96.6479 8.42052 96.7791C8.02581 96.9104 7.59602 96.9805 7.12236 96.9805C6.4996 96.9805 5.92946 96.8579 5.42072 96.6128C4.91198 96.3678 4.47342 96.0264 4.10502 95.58C3.73662 95.1336 3.44717 94.626 3.24543 94.0395C3.04369 93.4531 2.9472 92.8142 2.9472 92.1139C2.9472 91.3174 3.04369 90.5997 3.23666 89.952C3.42962 89.3043 3.69277 88.7791 4.02608 88.359C4.37693 87.9301 4.79796 87.5975 5.28038 87.3787C5.7628 87.1599 6.28908 87.0461 6.85045 87.0461C7.34165 87.0461 7.78021 87.1424 8.16615 87.3437C8.55209 87.545 8.87663 87.8163 9.15732 88.1665C9.40291 88.4728 9.6222 88.8492 9.8064 89.2956C9.9906 89.7419 10.1309 90.1533 10.2274 90.5384H10.9379L10.859 86.626H10.166L9.8064 87.1511C9.35906 86.9061 8.89418 86.7223 8.39421 86.591C7.90301 86.4597 7.35042 86.3896 6.7452 86.3896C5.92946 86.3896 5.15758 86.5297 4.43833 86.8098C3.71908 87.0899 3.09631 87.4837 2.57003 87.9914C2.03498 88.5078 1.62273 89.1205 1.31573 89.8382C1.0175 90.556 0.859619 91.3437 0.859619 92.2277C0.859619 93.1118 1.00873 93.8907 1.3245 94.591C1.6315 95.2912 2.04375 95.8776 2.56126 96.3678C3.07877 96.8492 3.68399 97.2255 4.35939 97.4794C5.03478 97.7332 5.73649 97.8645 6.47328 97.8645C7.61356 97.8645 8.58718 97.6282 9.41169 97.1643C10.2362 96.7004 10.894 95.9214 11.394 94.836L10.7449 94.556C10.6046 94.8973 10.4292 95.2124 10.2099 95.5012V95.4837Z" fill="url(#paint11_linear_51_74)"/>
<path d="M30.8664 94.4857C31.1821 93.7768 31.34 92.9803 31.34 92.1138C31.34 91.2472 31.1821 90.4595 30.8752 89.7418C30.5682 89.024 30.1384 88.4201 29.5945 87.9124C29.0683 87.4223 28.4367 87.0372 27.7175 86.7571C26.9894 86.4857 26.2176 86.3457 25.4018 86.3457C24.5861 86.3457 23.8581 86.477 23.1388 86.7483C22.4196 87.0197 21.7793 87.4048 21.2354 87.9037C20.6828 88.4113 20.253 89.0153 19.9373 89.7155C19.6215 90.4157 19.4636 91.2122 19.4636 92.0963C19.4636 92.9103 19.6127 93.6717 19.911 94.3895C20.2092 95.1072 20.6214 95.7111 21.139 96.21C21.6652 96.7177 22.288 97.1203 23.016 97.4004C23.744 97.6892 24.5335 97.8293 25.3931 97.8293C26.2 97.8293 26.9631 97.698 27.6736 97.4267C28.3841 97.1553 29.0156 96.779 29.5507 96.2801C30.1033 95.7812 30.5418 95.1772 30.8576 94.4682L30.8664 94.4857ZM29.0069 94.1006C28.8577 94.6958 28.6209 95.221 28.2964 95.6936C27.9806 96.1575 27.5771 96.5164 27.0772 96.779C26.5772 97.0328 26.0158 97.1641 25.4018 97.1641C24.744 97.1641 24.1738 97.0328 23.7002 96.779C23.2265 96.5251 22.8318 96.1663 22.5161 95.7199C22.1915 95.256 21.9547 94.7221 21.8056 94.1269C21.6565 93.5317 21.5775 92.8577 21.5775 92.1138C21.5775 91.4398 21.6477 90.8008 21.788 90.1969C21.9284 89.593 22.1477 89.0591 22.4371 88.6039C22.7441 88.1313 23.1388 87.7549 23.63 87.4661C24.1212 87.186 24.7089 87.0372 25.4018 87.0372C26.0246 87.0372 26.5772 87.1597 27.0508 87.4048C27.5333 87.6499 27.9367 87.9912 28.2525 88.4289C28.5683 88.8752 28.8139 89.4092 28.9805 90.0394C29.1472 90.6696 29.2261 91.361 29.2261 92.1138C29.2261 92.8665 29.156 93.5054 29.0069 94.1006Z" fill="url(#paint12_linear_51_74)"/>
<path d="M41.4798 96.0002C41.4008 96.2977 41.2693 96.5166 41.0588 96.6654C40.9009 96.7792 40.6816 96.8667 40.3921 96.9192C40.1027 96.9717 39.8308 97.0155 39.5676 97.033V97.5844H44.5498V97.033C44.427 97.033 44.1638 96.9805 43.7691 96.8754C43.3656 96.7791 43.1025 96.6741 42.9797 96.5691C42.7955 96.429 42.6551 96.184 42.5674 95.8601C42.4797 95.5275 42.4359 95.0461 42.4359 94.4159V87.8689H42.5499L46.5584 97.4093H46.997L51.2072 88.0702H51.3388V96.0439C51.3388 96.2365 51.2949 96.394 51.216 96.5166C51.1283 96.6391 50.9967 96.7529 50.8213 96.8492C50.7072 96.9017 50.488 96.9455 50.181 96.9805C49.874 97.0155 49.6196 97.033 49.4179 97.033V97.5844H54.8736V97.033C54.7158 97.033 54.5052 97.0067 54.2421 96.963C53.979 96.9192 53.786 96.8754 53.6895 96.8229C53.4965 96.7266 53.3562 96.6216 53.286 96.4991C53.2158 96.3765 53.1808 96.2277 53.1808 96.0439V88.1402C53.1808 87.9739 53.2158 87.8164 53.286 87.6676C53.3562 87.5275 53.4878 87.4225 53.6895 87.3612C53.8035 87.3262 53.9877 87.2824 54.2421 87.2474C54.4965 87.2037 54.6982 87.1861 54.8649 87.1774V86.626H50.8388C50.8388 86.7223 50.795 86.9061 50.716 87.1774C50.6371 87.4575 50.5406 87.7201 50.4353 87.9739L47.418 94.8623L43.8831 86.6347H39.6729V87.1862C39.9273 87.1949 40.1904 87.2387 40.4448 87.2999C40.6991 87.3612 40.9272 87.4662 41.1026 87.6063C41.2693 87.7376 41.3921 87.9039 41.4798 88.1052C41.5675 88.3153 41.6114 88.5778 41.6114 88.9017V94.5122C41.6114 95.2124 41.5763 95.7113 41.4973 96.0089L41.4798 96.0002Z" fill="url(#paint13_linear_51_74)"/>
<path d="M72.7408 90.8448C72.9952 90.4072 73.118 89.8995 73.118 89.3306C73.118 88.5078 72.7584 87.8601 72.0391 87.3612C71.3199 86.871 70.3901 86.626 69.2411 86.626H63.6011V87.1774C63.759 87.1861 63.9432 87.2037 64.1624 87.2387C64.3817 87.2649 64.601 87.3174 64.8203 87.3787C65.0308 87.4487 65.1711 87.5625 65.2325 87.7026C65.2939 87.8426 65.3203 88.0089 65.3203 88.1927V96.1052C65.3203 96.3065 65.2852 96.4728 65.2062 96.6041C65.1273 96.7354 65.0045 96.8317 64.8291 96.9017C64.7238 96.9454 64.5396 96.9805 64.2765 96.998C64.0133 97.0242 63.8116 97.0417 63.6712 97.0505V97.6019H68.9691V97.0505C68.7499 97.0505 68.5043 97.0242 68.2411 96.998C67.978 96.963 67.7938 96.9367 67.6885 96.9017C67.478 96.8317 67.3377 96.7266 67.2763 96.5866C67.2061 96.4465 67.1798 96.289 67.1798 96.1139V92.7879H68.5657C69.1533 92.7879 69.7147 92.7179 70.241 92.5866C70.7673 92.4553 71.2497 92.2452 71.697 91.9564C72.1444 91.6675 72.4952 91.2999 72.7496 90.8623L72.7408 90.8448ZM70.8638 90.4247C70.8024 90.6872 70.6708 90.9498 70.469 91.1949C70.2673 91.4487 69.9778 91.6676 69.5831 91.8426C69.1884 92.0177 68.6797 92.1052 68.0569 92.1052H67.171V87.2562H68.399C68.8902 87.2562 69.3025 87.3262 69.6358 87.4575C69.9691 87.5888 70.2322 87.7813 70.434 88.0177C70.6269 88.2452 70.7585 88.5078 70.8374 88.8142C70.9164 89.1205 70.9515 89.4181 70.9515 89.7069C70.9515 89.917 70.9164 90.1533 70.855 90.4247H70.8638Z" fill="url(#paint14_linear_51_74)"/>
<path d="M93.1781 97.0328C93.0289 97.0328 92.8535 96.9978 92.643 96.954C92.4325 96.9015 92.2571 96.849 92.1167 96.7702C91.9237 96.6477 91.7659 96.5339 91.6518 96.4113C91.5378 96.2888 91.4413 96.1225 91.3536 95.9212L87.2398 86.4595H86.5469C85.9592 87.7986 85.2926 89.3304 84.547 91.0459C83.8015 92.7614 83.1173 94.3107 82.4945 95.6849C82.3717 95.9562 82.2489 96.1663 82.1174 96.3151C81.9858 96.4639 81.8104 96.6126 81.5736 96.7527C81.4244 96.8315 81.2402 96.9015 81.021 96.954C80.8017 97.0065 80.6087 97.0328 80.4596 97.0415V97.593H85.1084V97.0415C84.6523 97.024 84.24 96.954 83.8716 96.8402C83.5033 96.7264 83.3278 96.5689 83.3278 96.3588C83.3278 96.2713 83.3454 96.1575 83.3717 96.0175C83.398 95.8774 83.4506 95.7024 83.5296 95.4748C83.6085 95.2472 83.705 95.0021 83.8015 94.7308C83.9067 94.4595 84.0383 94.1444 84.1962 93.7855H88.5292L89.5555 96.245C89.5818 96.2975 89.5993 96.3588 89.6081 96.4201C89.6169 96.4901 89.6257 96.5426 89.6257 96.5864C89.6257 96.7002 89.4765 96.7965 89.1783 96.8752C88.8801 96.954 88.5029 97.0065 88.0556 97.0328V97.5842H93.1868V97.0328H93.1781ZM84.4944 93.1028L86.3364 88.849L88.2047 93.1028H84.4944Z" fill="url(#paint15_linear_51_74)"/>
<path d="M111.414 97.6894V89.6631C111.414 89.103 111.449 88.6391 111.519 88.2715C111.589 87.9038 111.729 87.6588 111.94 87.5275C112.089 87.4487 112.326 87.3612 112.659 87.2912C112.993 87.2124 113.247 87.1686 113.405 87.1686V86.6172H108.388V87.1686C108.581 87.1774 108.861 87.2299 109.23 87.3262C109.598 87.4224 109.861 87.51 110.028 87.615C110.203 87.7288 110.335 87.9564 110.431 88.2977C110.528 88.6391 110.572 89.1292 110.572 89.7682V94.9848L103.634 86.6259H100.107V87.1774C100.327 87.1861 100.616 87.2561 100.976 87.3787C101.335 87.5012 101.616 87.6413 101.827 87.8163C101.984 87.9476 102.107 88.1314 102.204 88.3677C102.3 88.6041 102.344 88.8404 102.344 89.0767V94.4771C102.344 95.1949 102.309 95.7025 102.23 95.9914C102.151 96.289 102.02 96.5078 101.809 96.6478C101.713 96.7178 101.485 96.8054 101.116 96.8929C100.748 96.9804 100.485 97.0329 100.327 97.0417V97.5931H105.388V97.0417C105.256 97.0417 104.976 96.9892 104.563 96.8841C104.142 96.7879 103.87 96.6828 103.739 96.569C103.555 96.429 103.414 96.1839 103.327 95.8426C103.239 95.5012 103.195 95.0198 103.195 94.3809V88.7266L110.677 97.6982H111.431L111.414 97.6894Z" fill="url(#paint16_linear_51_74)"/>
<path d="M127.834 86.6172V87.1686C128 87.1861 128.185 87.1949 128.378 87.2124C128.57 87.2211 128.755 87.2561 128.93 87.2912C129.097 87.3349 129.22 87.3874 129.325 87.4574C129.421 87.5275 129.474 87.6238 129.474 87.7463C129.474 87.8863 129.237 88.324 128.755 89.0592C128.272 89.7857 127.579 90.801 126.676 92.1052C126.22 91.3699 125.851 90.7835 125.562 90.3283C125.281 89.8732 125.001 89.4181 124.729 88.9542C124.632 88.7966 124.536 88.6303 124.43 88.4553C124.325 88.2802 124.237 88.1314 124.158 87.9914C124.097 87.8688 124.044 87.7725 124.009 87.7025C123.974 87.6325 123.957 87.5712 123.957 87.545C123.957 87.4312 124.08 87.3437 124.325 87.2824C124.571 87.2211 124.983 87.1861 125.579 87.1774V86.6259H120.308V87.1774C120.466 87.1861 120.641 87.2124 120.834 87.2561C121.027 87.2999 121.194 87.3524 121.334 87.4312C121.527 87.545 121.694 87.6763 121.843 87.8251C121.992 87.9739 122.159 88.1927 122.352 88.4903C122.667 88.9892 123.036 89.5756 123.457 90.2758C123.878 90.9673 124.264 91.615 124.615 92.2189C124.772 92.4903 124.904 92.7266 125.018 92.9454C125.132 93.1642 125.185 93.313 125.185 93.4006V96.0701C125.185 96.2627 125.15 96.429 125.071 96.569C124.992 96.7003 124.851 96.8054 124.641 96.8841C124.509 96.9279 124.29 96.9717 123.966 96.9979C123.641 97.0242 123.395 97.0417 123.237 97.0592V97.6106H129.018V97.0592C128.825 97.0592 128.57 97.0242 128.263 96.9629C127.948 96.9017 127.728 96.8579 127.614 96.8141C127.413 96.7354 127.264 96.6216 127.185 96.4815C127.097 96.3415 127.062 96.1839 127.062 96.0001V93.9082C127.062 93.5231 127.097 93.2343 127.167 93.0329C127.237 92.8316 127.378 92.569 127.597 92.2364C128.167 91.3437 128.649 90.5997 129.035 90.022C129.421 89.4356 129.834 88.8666 130.29 88.2977C130.518 88.0176 130.676 87.8426 130.763 87.7725C130.842 87.7025 131 87.6062 131.228 87.4837C131.325 87.4224 131.474 87.3612 131.693 87.2912C131.904 87.2299 132.061 87.1949 132.167 87.1861V86.6347H127.878L127.834 86.6172Z" fill="url(#paint17_linear_51_74)"/>
<path d="M133 22.9147H92.2571L112.633 0H20.3671L40.7429 22.9147H0L22.5599 48.2976L46.1285 74.8096L66.5044 51.895L86.8802 74.8096L109.054 49.8643L109.081 49.8381L133.018 22.9147H133ZM61.1802 4.80525L46.1198 21.7418L31.0681 4.80525H61.1802ZM122.299 27.7199L107.239 44.6565L92.1869 27.7199H122.299ZM46.1285 28.9716L61.11 45.8381H31.1383L46.1285 28.9716ZM51.4527 27.7199H81.556L66.5044 44.6565L51.4527 27.7199ZM86.8715 28.9716L101.853 45.8293H71.8812L86.8627 28.9716H86.8715ZM51.5141 22.9147L66.4956 6.05689L81.4771 22.9147H51.5054H51.5141ZM86.8715 21.7418L71.8111 4.80525H101.923L86.8627 21.7418H86.8715ZM40.8043 27.7199L25.7527 44.6565L10.701 27.7199H40.8043ZM61.1802 50.6346L46.1198 67.5711L31.0594 50.6346H61.1714H61.1802ZM101.932 50.6346L86.8715 67.5711L71.8111 50.6346H101.923H101.932Z" fill="url(#paint18_linear_51_74)"/>
</g>
<defs>
<linearGradient id="paint0_linear_51_74" x1="16.6568" y1="114.048" x2="16.6568" y2="-75.5624" gradientUnits="userSpaceOnUse">
<stop/>
<stop offset="0.33"/>
<stop offset="0.52"/>
<stop offset="0.73"/>
<stop offset="1"/>
</linearGradient>
<linearGradient id="paint1_linear_51_74" x1="25.8054" y1="120.403" x2="25.8054" y2="-19.3872" gradientUnits="userSpaceOnUse">
<stop/>
<stop offset="0.33"/>
<stop offset="0.52"/>
<stop offset="0.73"/>
<stop offset="1"/>
</linearGradient>
<linearGradient id="paint2_linear_51_74" x1="36.0503" y1="129.908" x2="36.0503" y2="3.43973" gradientUnits="userSpaceOnUse">
<stop/>
<stop offset="0.33"/>
<stop offset="0.52"/>
<stop offset="0.73"/>
<stop offset="1"/>
</linearGradient>
<linearGradient id="paint3_linear_51_74" x1="46.7513" y1="180.56" x2="46.7513" y2="-82.1707" gradientUnits="userSpaceOnUse">
<stop/>
<stop offset="0.33"/>
<stop offset="0.52"/>
<stop offset="0.73"/>
<stop offset="1"/>
</linearGradient>
<linearGradient id="paint4_linear_51_74" x1="54.514" y1="206.214" x2="54.514" y2="-81.0329" gradientUnits="userSpaceOnUse">
<stop/>
<stop offset="0.33"/>
<stop offset="0.52"/>
<stop offset="0.73"/>
<stop offset="1"/>
</linearGradient>
<linearGradient id="paint5_linear_51_74" x1="63.6625" y1="157.374" x2="63.6625" y2="34.4682" gradientUnits="userSpaceOnUse">
<stop/>
<stop offset="0.33"/>
<stop offset="0.52"/>
<stop offset="0.73"/>
<stop offset="1"/>
</linearGradient>
<linearGradient id="paint6_linear_51_74" x1="73.6881" y1="181.12" x2="73.6881" y2="29.9867" gradientUnits="userSpaceOnUse">
<stop/>
<stop offset="0.33"/>
<stop offset="0.52"/>
<stop offset="0.73"/>
<stop offset="1"/>
</linearGradient>
<linearGradient id="paint7_linear_51_74" x1="88.3188" y1="180.236" x2="88.3188" y2="55.781" gradientUnits="userSpaceOnUse">
<stop/>
<stop offset="0.33"/>
<stop offset="0.52"/>
<stop offset="0.73"/>
<stop offset="1"/>
</linearGradient>
<linearGradient id="paint8_linear_51_74" x1="98.0199" y1="207.693" x2="98.0199" y2="56.56" gradientUnits="userSpaceOnUse">
<stop/>
<stop offset="0.33"/>
<stop offset="0.52"/>
<stop offset="0.73"/>
<stop offset="1"/>
</linearGradient>
<linearGradient id="paint9_linear_51_74" x1="107.353" y1="227.466" x2="107.353" y2="64.0261" gradientUnits="userSpaceOnUse">
<stop/>
<stop offset="0.33"/>
<stop offset="0.52"/>
<stop offset="0.73"/>
<stop offset="1"/>
</linearGradient>
<linearGradient id="paint10_linear_51_74" x1="116.475" y1="229.461" x2="116.475" y2="78.328" gradientUnits="userSpaceOnUse">
<stop/>
<stop offset="0.33"/>
<stop offset="0.52"/>
<stop offset="0.73"/>
<stop offset="1"/>
</linearGradient>
<linearGradient id="paint11_linear_51_74" x1="6.13997" y1="91.2212" x2="6.13997" y2="-32.0961" gradientUnits="userSpaceOnUse">
<stop/>
<stop offset="0.33"/>
<stop offset="0.52"/>
<stop offset="0.73"/>
<stop offset="1"/>
</linearGradient>
<linearGradient id="paint12_linear_51_74" x1="25.4018" y1="108.726" x2="25.4018" y2="-9.93435" gradientUnits="userSpaceOnUse">
<stop/>
<stop offset="0.33"/>
<stop offset="0.52"/>
<stop offset="0.73"/>
<stop offset="1"/>
</linearGradient>
<linearGradient id="paint13_linear_51_74" x1="47.225" y1="115.659" x2="47.225" y2="39.7551" gradientUnits="userSpaceOnUse">
<stop/>
<stop offset="0.33"/>
<stop offset="0.52"/>
<stop offset="0.73"/>
<stop offset="1"/>
</linearGradient>
<linearGradient id="paint14_linear_51_74" x1="68.3639" y1="147.51" x2="68.3639" y2="30.3459" gradientUnits="userSpaceOnUse">
<stop/>
<stop offset="0.33"/>
<stop offset="0.52"/>
<stop offset="0.73"/>
<stop offset="1"/>
</linearGradient>
<linearGradient id="paint15_linear_51_74" x1="86.81" y1="159.203" x2="86.81" y2="48.5951" gradientUnits="userSpaceOnUse">
<stop/>
<stop offset="0.33"/>
<stop offset="0.52"/>
<stop offset="0.73"/>
<stop offset="1"/>
</linearGradient>
<linearGradient id="paint16_linear_51_74" x1="106.756" y1="159.536" x2="106.756" y2="72.6828" gradientUnits="userSpaceOnUse">
<stop/>
<stop offset="0.33"/>
<stop offset="0.52"/>
<stop offset="0.73"/>
<stop offset="1"/>
</linearGradient>
<linearGradient id="paint17_linear_51_74" x1="126.22" y1="200.832" x2="126.22" y2="84.9542" gradientUnits="userSpaceOnUse">
<stop/>
<stop offset="0.33"/>
<stop offset="0.52"/>
<stop offset="0.73"/>
<stop offset="1"/>
</linearGradient>
<linearGradient id="paint18_linear_51_74" x1="0" y1="37.4092" x2="133" y2="37.4092" gradientUnits="userSpaceOnUse">
<stop/>
<stop offset="0.33"/>
<stop offset="0.52"/>
<stop offset="0.73"/>
<stop offset="1"/>
</linearGradient>
<clipPath id="clip0_51_74">
<rect width="133" height="108" fill="white"/>
</clipPath>
</defs>
</svg>
