<svg width="970" height="573" viewBox="0 0 970 573" fill="none" xmlns="http://www.w3.org/2000/svg">
<path d="M644.147 -370.314C625.144 -377.019 605.532 -382.514 585.517 -386.716C563.341 -391.442 540.629 -394.581 517.44 -396.169C506.59 -396.938 495.557 -397.28 484.512 -397.28C473.467 -397.28 462.435 -396.938 451.585 -396.169C428.396 -394.581 405.684 -391.442 383.508 -386.716C363.505 -382.514 343.88 -377.019 324.878 -370.314C135.879 -304.302 0.299988 -124.342 0.299988 87.2742C0.299988 298.89 136.026 479.095 325.171 545.009C375.124 562.376 428.689 571.828 484.512 571.828C540.336 571.828 593.913 562.376 643.854 545.009C832.999 479.107 968.725 299.037 968.725 87.2742C968.725 -124.488 833.145 -304.302 644.147 -370.314ZM644.147 -224.795V-342.321C698.676 -316.466 732.91 -260.884 732.91 -200.564V-114.584C728.614 -58.3791 706.292 -2.06452 667.055 38.5074C659.586 46.0306 651.775 53.1753 643.866 60.0757C643.866 60.0757 644.159 -219.763 644.159 -224.782L644.147 -224.795ZM482.926 -378.899H486.111C541.214 -378.704 585.529 -333.406 585.529 -278.251L585.236 81.2898C585.187 98.5103 578.536 115.01 566.673 127.467C542.85 152.407 502.551 197.192 484.512 231.206C466.474 197.192 426.175 152.419 402.352 127.467C390.489 115.022 383.838 98.5225 383.789 81.2898L383.496 -278.251C383.496 -333.393 427.81 -378.704 482.914 -378.899H482.926ZM236.115 -200.576C236.115 -260.884 270.348 -316.466 324.878 -342.333V-224.807C324.878 -219.787 325.171 60.0513 325.171 60.0513C317.262 53.1509 309.451 46.0062 301.982 38.4829C262.733 -2.08893 240.411 -58.4035 236.127 -114.608V-200.588L236.115 -200.576ZM177.484 396.925C111.91 313.412 72.3796 203.018 73.4902 82.3035H73.539C87.1836 110.577 112.252 133.305 130.863 157.182C158.641 190.805 173.774 227.774 177.484 269.787V396.925ZM732.91 297.926V375.124C732.91 435.14 699.067 490.392 645.062 516.442C644.635 516.638 644.245 516.882 643.854 517.016V148.156C639.412 152.309 635.128 156.498 630.832 160.65L630.49 160.992C612.647 177.785 597.611 194.676 585.163 211.945V452.849C585.163 507.954 540.86 553.301 485.794 553.497H483.194C428.14 553.301 383.825 507.954 383.825 452.849V211.945C371.389 194.676 356.341 177.785 338.498 160.992L338.156 160.65C333.86 156.498 329.577 152.309 325.134 148.156V517.016C324.744 516.87 324.365 516.625 323.926 516.442C269.933 490.392 236.078 435.14 236.078 375.124V297.926C232.563 252.908 219.639 206.059 193.265 168.626C188.444 161.383 183.086 154.629 177.448 148.169C156.859 124.426 132.169 104.886 110.811 82.4501C86.61 57.4987 76.9196 20.3587 83.1317 -13.6181C83.1805 -13.96 83.1805 -14.2409 83.2782 -14.534C98.8023 -93.0764 131.828 -164.242 177.436 -222.34V114.815C183.318 120.701 189.054 126.735 194.693 133.147C201.149 140.572 206.885 147.961 212.048 155.68C221.933 169.725 229.793 184.527 236.054 199.293V6.97318C240.057 15.4613 244.487 23.8151 249.405 31.9612C268.835 64.4358 297.284 91.158 325.098 116.976C334.983 126.148 344.771 135.211 354.071 144.383C364.677 154.324 374.562 164.595 383.777 175.208C419.597 216.794 443.945 264.034 451.133 321.021C453.879 340.317 454.941 360.053 454.648 379.985L454.453 464.756C454.453 471.193 456.308 477.201 459.505 482.258C470.819 500.125 498.072 500.125 509.373 482.258C512.57 477.201 514.426 471.205 514.426 464.756L514.23 379.985C513.937 360.053 514.999 340.329 517.745 321.021C524.934 264.034 549.282 216.806 585.102 175.208C594.316 164.595 604.189 154.312 614.807 144.383C624.107 135.211 633.895 126.148 643.781 116.976C671.595 91.158 700.043 64.4358 719.473 31.9612C724.391 23.8028 728.821 15.4613 732.825 6.97318V199.293C739.098 184.527 746.945 169.713 756.831 155.68C761.993 147.961 767.729 140.584 774.186 133.147C779.824 126.722 785.56 120.701 791.443 114.815V-222.328C837.051 -164.242 870.076 -93.0764 885.6 -14.5218C885.698 -14.2287 885.698 -13.9478 885.747 -13.6059C891.971 20.3587 882.28 57.5109 858.067 82.4623C836.709 104.898 812.019 124.439 791.43 148.181C785.792 154.642 780.434 161.395 775.613 168.638C749.24 206.083 736.315 252.933 732.8 297.938L732.91 297.926ZM791.54 396.925V269.787C795.25 227.761 810.396 190.805 838.161 157.182C856.773 133.293 881.841 110.577 895.486 82.3035H895.535C896.645 203.018 857.103 313.412 791.54 396.925Z" fill="#015E4F" stroke="url(#paint0_linear_42_124)" stroke-width="0.6" stroke-miterlimit="10"/>
<defs>
<linearGradient id="paint0_linear_42_124" x1="484.512" y1="-397.28" x2="484.512" y2="571.828" gradientUnits="userSpaceOnUse">
<stop stop-color="#0E7B6A"/>
<stop offset="1" stop-color="#E5D0AE"/>
</linearGradient>
</defs>
</svg>
