<svg width="107" height="108" viewBox="0 0 107 108" fill="none" xmlns="http://www.w3.org/2000/svg">
<g clip-path="url(#clip0_51_96)">
<path d="M10.2713 95.4537L10.3035 95.3496L8.59829 94.9333L8.56611 95.0374C8.36503 95.9421 7.97895 96.6307 7.41592 97.1031C6.84485 97.5594 6.15312 97.7916 5.32466 97.7916C4.64903 97.7916 4.02969 97.6235 3.43449 97.2872C2.86341 96.9509 2.43712 96.4305 2.17169 95.7419C1.88213 95.0534 1.75344 94.2287 1.75344 93.308C1.75344 92.5874 1.87409 91.8828 2.10734 91.2103C2.3406 90.5377 2.75081 90.0013 3.3058 89.6009C3.87687 89.2166 4.60077 89.0165 5.44531 89.0165C6.1853 89.0165 6.79659 89.1846 7.28723 89.5529C7.77787 89.9052 8.14786 90.4737 8.3972 91.2663L8.42938 91.3464L10.1185 90.9621L10.0863 90.858C9.76456 89.8171 9.20958 88.9924 8.41329 88.408C7.617 87.8395 6.64376 87.5513 5.47749 87.5513C4.46403 87.5513 3.52296 87.7674 2.66233 88.2238C1.81779 88.6962 1.14215 89.3688 0.691724 90.2415C0.233256 91.1142 0 92.155 0 93.316C0 94.3888 0.201082 95.4137 0.603247 96.3424C1.00541 97.2792 1.6167 98.0238 2.40495 98.5122C3.1771 99.0166 4.20665 99.2648 5.4614 99.2648C6.71615 99.2648 7.68939 98.9285 8.53394 98.288C9.37849 97.6475 9.94956 96.6947 10.2713 95.4697V95.4537Z" fill="url(#paint0_linear_51_96)"/>
<path d="M24.0173 88.28C23.1567 87.7755 22.1754 87.5273 21.1137 87.5273C19.4809 87.5273 18.1296 88.0638 17.1001 89.1206C16.0705 90.1775 15.5477 91.6747 15.5477 93.5402C15.5477 94.5331 15.7649 95.4698 16.2234 96.3585C16.6657 97.2473 17.3173 97.9518 18.1779 98.4723C19.0385 98.9927 20.0198 99.2409 21.0976 99.2409C22.1111 99.2409 23.0521 99.0087 23.9128 98.5363C24.7895 98.0799 25.4651 97.3754 25.9558 96.4706C26.4303 95.5819 26.6636 94.5411 26.6636 93.3961C26.6636 92.2512 26.4303 91.2664 25.9879 90.3777C25.5295 89.4889 24.878 88.7844 24.0173 88.28ZM23.8323 96.6468C23.1245 97.3994 22.1995 97.7917 21.0976 97.7917C19.9957 97.7917 19.1109 97.4074 18.379 96.6628C17.6712 95.9102 17.3012 94.8693 17.3012 93.5563C17.3012 91.9309 17.6872 90.738 18.4353 90.0494C19.1753 89.3608 20.0922 89.0085 21.1137 89.0085C21.8537 89.0085 22.5132 89.1927 23.1004 89.545C23.6715 89.8973 24.1299 90.4177 24.4356 91.0742C24.7412 91.7308 24.894 92.5154 24.894 93.4121C24.894 94.8053 24.5401 95.8942 23.8323 96.6548V96.6468Z" fill="url(#paint1_linear_51_96)"/>
<path d="M43.651 87.9116H42.0182V99.2489H43.651V87.9116Z" fill="url(#paint2_linear_51_96)"/>
<path d="M38.1896 97.2152L37.7311 95.8701L35.0125 87.9116H34.8275V92.027L37.337 99.2489H38.8411L41.4069 92.043V88.0157L38.6883 95.726C38.4711 96.3505 38.3022 96.8309 38.1816 97.2232L38.1896 97.2152Z" fill="url(#paint3_linear_51_96)"/>
<path d="M34.2322 87.9116H32.5753V99.2489H34.2322V87.9116Z" fill="url(#paint4_linear_51_96)"/>
<path d="M51.2679 87.9116H49.5627V99.2489H51.2679V87.9116Z" fill="url(#paint5_linear_51_96)"/>
<path d="M57.1476 88.5682C56.7615 88.2959 56.2709 88.1118 55.7159 88.0317C55.3137 87.9516 54.7185 87.9116 53.9625 87.9116H51.8712V89.4249H54.0831C54.7588 89.4249 55.2092 89.4569 55.4666 89.5289C55.8366 89.633 56.1422 89.8332 56.3594 90.1534C56.5926 90.4737 56.6972 90.842 56.6972 91.2984C56.6972 91.9069 56.5122 92.3713 56.1261 92.7075C55.74 93.0438 55.0644 93.2119 54.1153 93.2119H51.8712V94.7412H54.0992C55.7159 94.7412 56.8822 94.3889 57.5096 93.7164C58.153 93.0438 58.4748 92.2191 58.4748 91.2503C58.4748 90.6819 58.3541 90.1614 58.1209 89.6891C57.8715 89.2167 57.5659 88.8324 57.1637 88.5842L57.1476 88.5682Z" fill="url(#paint6_linear_51_96)"/>
<path d="M70.5799 87.9116H68.8265L64.3705 99.2489H66.1722L66.6789 97.9198H66.6628L67.9417 94.477L68.2152 93.7724L69.1562 91.2744H69.1723C69.3734 90.7219 69.5423 90.1454 69.6791 89.593C69.848 90.1294 70.0812 90.786 70.3708 91.5226L71.521 94.477H68.6013L68.0784 95.8701H72.0599L73.3951 99.2489H75.3335L70.5799 87.9116Z" fill="url(#paint7_linear_51_96)"/>
<path d="M83.2642 91.5388L87.9534 98.3924V95.486L83.2642 88.6484V91.5388Z" fill="url(#paint8_linear_51_96)"/>
<path d="M88.597 96.4226L88.5568 96.3745V99.2489H90.2459V87.9116H88.597V96.4226Z" fill="url(#paint9_linear_51_96)"/>
<path d="M82.6529 87.9116H81.0684V99.2489H82.6529V87.9116Z" fill="url(#paint10_linear_51_96)"/>
<path d="M102.745 91.2345C102.303 91.8911 101.917 92.5076 101.579 93.044V93.028L100.638 94.4531V99.241H102.359V94.4531L107 87.9038H104.989L102.745 91.2265V91.2345Z" fill="url(#paint11_linear_51_96)"/>
<path d="M100.517 91.3224L98.2408 87.9116H96.1495L100.268 93.9245L101.225 92.4433L100.517 91.3224Z" fill="url(#paint12_linear_51_96)"/>
<path d="M0 104.413H1.27084V107.928H2.13147V104.413H3.38623V103.692H0V104.413Z" fill="url(#paint13_linear_51_96)"/>
<path d="M11.5502 103.692H10.6413L8.98438 107.928H9.89327L10.2472 106.967H11.9524L12.3143 107.928H13.2554L11.5502 103.692ZM10.4965 106.246L11.0837 104.677L11.6708 106.246H10.5046H10.4965Z" fill="url(#paint14_linear_51_96)"/>
<path d="M21.1538 106.367H22.1432V106.911C21.8295 107.151 21.4997 107.264 21.1297 107.264C20.7356 107.264 20.4299 107.127 20.2208 106.863C20.0117 106.599 19.9071 106.223 19.9071 105.758C19.9071 104.814 20.3173 104.341 21.1377 104.341C21.6445 104.341 21.9662 104.565 22.1029 105.022L22.9475 104.862C22.7625 104.029 22.1592 103.621 21.1377 103.621C20.5506 103.621 20.0519 103.805 19.6417 104.165C19.2315 104.525 19.0304 105.07 19.0304 105.798C19.0304 106.447 19.2154 106.975 19.5854 107.384C19.9554 107.792 20.4943 108 21.2021 108C21.9099 108 22.5373 107.784 23.0118 107.344V105.654H21.1619V106.359L21.1538 106.367Z" fill="url(#paint15_linear_51_96)"/>
<path d="M32.5191 103.692H31.6504V107.928H34.6505V107.215H32.5191V103.692Z" fill="url(#paint16_linear_51_96)"/>
<path d="M41.5919 103.692H40.7233V107.928H41.5919V103.692Z" fill="url(#paint17_linear_51_96)"/>
<path d="M50.4636 106.527L48.7182 103.692H47.8817V107.928H48.678V105.166L50.3993 107.928H51.2599V103.692H50.4636V106.527Z" fill="url(#paint18_linear_51_96)"/>
<path d="M58.4909 106.062H60.6224V105.342H58.4909V104.413H60.7913V103.692H57.6302V107.928H60.8717V107.215H58.4909V106.062Z" fill="url(#paint19_linear_51_96)"/>
<path d="M77.3283 105.366H75.6392V103.692H74.7866V107.928H75.6392V106.078H77.3283V107.928H78.1809V103.692H77.3283V105.366Z" fill="url(#paint20_linear_51_96)"/>
<path d="M85.3957 106.062H87.5271V105.342H85.3957V104.413H87.6961V103.692H84.535V107.928H87.7765V107.215H85.3957V106.062Z" fill="url(#paint21_linear_51_96)"/>
<path d="M96.3426 106.063C97.0907 105.951 97.4607 105.558 97.4607 104.886C97.4607 104.421 97.3239 104.109 97.0505 103.949C96.777 103.781 96.3587 103.701 95.7957 103.701H93.986V107.936H94.8386V106.167H95.0075C95.2488 106.167 95.4257 106.199 95.5383 106.263C95.6509 106.327 95.7555 106.431 95.844 106.567L96.777 107.936H97.8065L97.2837 107.111C96.9379 106.567 96.6242 106.223 96.3346 106.071L96.3426 106.063ZM95.474 105.478H94.8386V104.405H95.5142C95.9727 104.405 96.2703 104.437 96.3909 104.509C96.5116 104.581 96.5759 104.718 96.5759 104.934C96.5759 105.158 96.5035 105.302 96.3507 105.374C96.1979 105.446 95.9083 105.478 95.474 105.478Z" fill="url(#paint22_linear_51_96)"/>
<path d="M104.595 106.062H106.726V105.342H104.595V104.413H106.895V103.692H103.734V107.928H106.976V107.215H104.595V106.062Z" fill="url(#paint23_linear_51_96)"/>
<path d="M49.8282 63.0756V64.7249H49.7478V64.789H24.7734L25.1755 62.8114C25.2479 62.4591 25.3283 62.1148 25.4007 61.7865C25.4731 61.4743 25.5616 61.154 25.6501 60.8338L25.6983 60.6576L25.7466 60.4895C25.819 60.2413 25.8914 60.0091 25.9638 59.7689V59.7369C26.0281 59.5447 26.0925 59.3525 26.1648 59.1524C26.2372 58.9362 26.3177 58.72 26.3981 58.5039C26.4946 58.2316 26.6072 57.9514 26.7198 57.6792C26.8164 57.439 26.9129 57.2148 27.0255 56.9666C27.0657 56.8705 27.1059 56.7664 27.1622 56.6704C27.2668 56.4382 27.3633 56.23 27.4598 56.0298C27.5 55.9418 27.5402 55.8537 27.5885 55.7736C27.6931 55.5655 27.8057 55.3493 27.9183 55.1411C27.9585 55.0611 28.0068 54.965 28.0711 54.8609C28.0711 54.8609 28.0711 54.8529 28.0711 54.8449V54.8209L28.0952 54.7888C28.24 54.5166 28.3767 54.2764 28.5135 54.0522C28.6422 53.8361 28.7789 53.6039 28.9317 53.3717L28.988 53.2916C29.0283 53.2276 29.0765 53.1555 29.1167 53.0914L29.173 53.0034C29.3178 52.7712 29.4867 52.523 29.6476 52.2908C29.8326 52.0266 30.0256 51.7544 30.2428 51.4661C30.3876 51.266 30.5404 51.0658 30.7415 50.8096L30.7576 50.7936L30.7737 50.7776L30.8139 50.7295C30.8702 50.6495 30.9426 50.5694 30.9989 50.4973C31.1597 50.2972 31.3286 50.089 31.5136 49.8808C31.5539 49.8248 31.5941 49.7928 31.6182 49.7607C31.8032 49.5446 31.9801 49.3444 32.1812 49.1362C32.2375 49.0722 32.2938 49.0081 32.3582 48.9521C32.5512 48.7439 32.7603 48.5277 33.0338 48.2555C35.1009 46.1978 37.4255 44.4844 39.9671 43.1553H27.5483C24.2988 46.43 21.741 50.2251 19.9393 54.4526C18.0411 58.9042 17.0759 63.636 17.0679 68.52V71.7066V72.2511H57.1315V39.8567V33.9238V9.66406V8.01471H57.2281L58.885 7.9987H82.2025L81.8003 9.97631C80.6743 15.4928 77.9476 20.5289 73.9179 24.5322C73.0653 25.3809 72.1725 26.1655 71.2314 26.8941H81.8486C83.964 24.292 85.6933 21.4176 87.0043 18.3351C88.8945 13.8835 89.8597 9.15164 89.8758 4.27567V0.536621H49.8041V63.0836L49.8282 63.0756Z" fill="url(#paint24_linear_51_96)"/>
<path d="M24.6045 32.3867V7.62251L26.5831 8.01482C32.1571 9.11973 37.2485 11.8339 41.2863 15.8612C41.5598 16.1334 41.8332 16.4217 42.0987 16.7099V6.78983C39.9028 5.21254 37.5301 3.89146 35.0366 2.84261C30.5646 0.961077 25.811 0.00830078 20.8965 0.00830078H17.092V37.671H42.0987V32.3947H24.5964L24.6045 32.3867Z" fill="url(#paint25_linear_51_96)"/>
<path d="M81.8567 37.663V64.621L79.878 64.2287C74.312 63.1318 69.2287 60.4256 65.1668 56.3903C65.0783 56.3022 64.9979 56.2221 64.9094 56.1341V65.862C66.9363 67.2551 69.1161 68.4481 71.4084 69.4089C75.8885 71.2984 80.6421 72.2512 85.5485 72.2512H89.353V32.3867H64.9175V37.663H81.8567Z" fill="url(#paint26_linear_51_96)"/>
</g>
<defs>
<linearGradient id="paint0_linear_51_96" x1="5.15575" y1="75.5895" x2="5.15575" y2="-5.02019" gradientUnits="userSpaceOnUse">
<stop/>
<stop offset="0.33"/>
<stop offset="0.52"/>
<stop offset="0.73"/>
<stop offset="1"/>
</linearGradient>
<linearGradient id="paint1_linear_51_96" x1="21.1137" y1="92.4754" x2="21.1137" y2="15.965" gradientUnits="userSpaceOnUse">
<stop/>
<stop offset="0.33"/>
<stop offset="0.52"/>
<stop offset="0.73"/>
<stop offset="1"/>
</linearGradient>
<linearGradient id="paint2_linear_51_96" x1="42.8386" y1="144.598" x2="42.8386" y2="-41.6659" gradientUnits="userSpaceOnUse">
<stop/>
<stop offset="0.33"/>
<stop offset="0.52"/>
<stop offset="0.73"/>
<stop offset="1"/>
</linearGradient>
<linearGradient id="paint3_linear_51_96" x1="38.1253" y1="118.817" x2="38.1253" y2="6.19706" gradientUnits="userSpaceOnUse">
<stop/>
<stop offset="0.33"/>
<stop offset="0.52"/>
<stop offset="0.73"/>
<stop offset="1"/>
</linearGradient>
<linearGradient id="paint4_linear_51_96" x1="33.4038" y1="121.323" x2="33.4038" y2="-64.2603" gradientUnits="userSpaceOnUse">
<stop/>
<stop offset="0.33"/>
<stop offset="0.52"/>
<stop offset="0.73"/>
<stop offset="1"/>
</linearGradient>
<linearGradient id="paint5_linear_51_96" x1="50.4153" y1="162.196" x2="50.4153" y2="-21.3854" gradientUnits="userSpaceOnUse">
<stop/>
<stop offset="0.33"/>
<stop offset="0.52"/>
<stop offset="0.73"/>
<stop offset="1"/>
</linearGradient>
<linearGradient id="paint6_linear_51_96" x1="55.169" y1="121.051" x2="55.169" y2="53.3875" gradientUnits="userSpaceOnUse">
<stop/>
<stop offset="0.33"/>
<stop offset="0.52"/>
<stop offset="0.73"/>
<stop offset="1"/>
</linearGradient>
<linearGradient id="paint7_linear_51_96" x1="69.856" y1="141.443" x2="69.856" y2="63.0354" gradientUnits="userSpaceOnUse">
<stop/>
<stop offset="0.33"/>
<stop offset="0.52"/>
<stop offset="0.73"/>
<stop offset="1"/>
</linearGradient>
<linearGradient id="paint8_linear_51_96" x1="85.6048" y1="263.022" x2="85.6048" y2="60.7617" gradientUnits="userSpaceOnUse">
<stop/>
<stop offset="0.33"/>
<stop offset="0.52"/>
<stop offset="0.73"/>
<stop offset="1"/>
</linearGradient>
<linearGradient id="paint9_linear_51_96" x1="89.4013" y1="257.153" x2="89.4013" y2="72.9154" gradientUnits="userSpaceOnUse">
<stop/>
<stop offset="0.33"/>
<stop offset="0.52"/>
<stop offset="0.73"/>
<stop offset="1"/>
</linearGradient>
<linearGradient id="paint10_linear_51_96" x1="81.8646" y1="242.053" x2="81.8646" y2="53.7398" gradientUnits="userSpaceOnUse">
<stop/>
<stop offset="0.33"/>
<stop offset="0.52"/>
<stop offset="0.73"/>
<stop offset="1"/>
</linearGradient>
<linearGradient id="paint11_linear_51_96" x1="103.815" y1="192.805" x2="103.815" y2="100.746" gradientUnits="userSpaceOnUse">
<stop/>
<stop offset="0.33"/>
<stop offset="0.52"/>
<stop offset="0.73"/>
<stop offset="1"/>
</linearGradient>
<linearGradient id="paint12_linear_51_96" x1="98.6912" y1="210.844" x2="98.6912" y2="93.5082" gradientUnits="userSpaceOnUse">
<stop/>
<stop offset="0.33"/>
<stop offset="0.52"/>
<stop offset="0.73"/>
<stop offset="1"/>
</linearGradient>
<linearGradient id="paint13_linear_51_96" x1="1.69714" y1="78.3757" x2="1.69714" y2="-11.6178" gradientUnits="userSpaceOnUse">
<stop/>
<stop offset="0.33"/>
<stop offset="0.52"/>
<stop offset="0.73"/>
<stop offset="1"/>
</linearGradient>
<linearGradient id="paint14_linear_51_96" x1="11.1158" y1="91.2262" x2="11.1158" y2="16.0768" gradientUnits="userSpaceOnUse">
<stop/>
<stop offset="0.33"/>
<stop offset="0.52"/>
<stop offset="0.73"/>
<stop offset="1"/>
</linearGradient>
<linearGradient id="paint15_linear_51_96" x1="21.009" y1="101.491" x2="21.009" y2="23.7235" gradientUnits="userSpaceOnUse">
<stop/>
<stop offset="0.33"/>
<stop offset="0.52"/>
<stop offset="0.73"/>
<stop offset="1"/>
</linearGradient>
<linearGradient id="paint16_linear_51_96" x1="33.1464" y1="119.337" x2="33.1464" y2="18.4628" gradientUnits="userSpaceOnUse">
<stop/>
<stop offset="0.33"/>
<stop offset="0.52"/>
<stop offset="0.73"/>
<stop offset="1"/>
</linearGradient>
<linearGradient id="paint17_linear_51_96" x1="41.1576" y1="145.703" x2="41.1576" y2="-16.6459" gradientUnits="userSpaceOnUse">
<stop/>
<stop offset="0.33"/>
<stop offset="0.52"/>
<stop offset="0.73"/>
<stop offset="1"/>
</linearGradient>
<linearGradient id="paint18_linear_51_96" x1="49.5708" y1="131.315" x2="49.5708" y2="59.8005" gradientUnits="userSpaceOnUse">
<stop/>
<stop offset="0.33"/>
<stop offset="0.52"/>
<stop offset="0.73"/>
<stop offset="1"/>
</linearGradient>
<linearGradient id="paint19_linear_51_96" x1="59.247" y1="142.172" x2="59.247" y2="67.0064" gradientUnits="userSpaceOnUse">
<stop/>
<stop offset="0.33"/>
<stop offset="0.52"/>
<stop offset="0.73"/>
<stop offset="1"/>
</linearGradient>
<linearGradient id="paint20_linear_51_96" x1="76.4838" y1="153.901" x2="76.4838" y2="82.6672" gradientUnits="userSpaceOnUse">
<stop/>
<stop offset="0.33"/>
<stop offset="0.52"/>
<stop offset="0.73"/>
<stop offset="1"/>
</linearGradient>
<linearGradient id="paint21_linear_51_96" x1="86.1517" y1="166.103" x2="86.1517" y2="90.93" gradientUnits="userSpaceOnUse">
<stop/>
<stop offset="0.33"/>
<stop offset="0.52"/>
<stop offset="0.73"/>
<stop offset="1"/>
</linearGradient>
<linearGradient id="paint22_linear_51_96" x1="95.9003" y1="174.406" x2="95.9003" y2="100.418" gradientUnits="userSpaceOnUse">
<stop/>
<stop offset="0.33"/>
<stop offset="0.52"/>
<stop offset="0.73"/>
<stop offset="1"/>
</linearGradient>
<linearGradient id="paint23_linear_51_96" x1="105.351" y1="185.127" x2="105.351" y2="109.961" gradientUnits="userSpaceOnUse">
<stop/>
<stop offset="0.33"/>
<stop offset="0.52"/>
<stop offset="0.73"/>
<stop offset="1"/>
</linearGradient>
<linearGradient id="paint24_linear_51_96" x1="17.092" y1="36.3898" x2="89.908" y2="36.3898" gradientUnits="userSpaceOnUse">
<stop/>
<stop offset="0.33"/>
<stop offset="0.52"/>
<stop offset="0.73"/>
<stop offset="1"/>
</linearGradient>
<linearGradient id="paint25_linear_51_96" x1="17.1001" y1="18.8316" x2="42.0987" y2="18.8316" gradientUnits="userSpaceOnUse">
<stop/>
<stop offset="0.33"/>
<stop offset="0.52"/>
<stop offset="0.73"/>
<stop offset="1"/>
</linearGradient>
<linearGradient id="paint26_linear_51_96" x1="64.9175" y1="52.315" x2="89.353" y2="52.315" gradientUnits="userSpaceOnUse">
<stop/>
<stop offset="0.33"/>
<stop offset="0.52"/>
<stop offset="0.73"/>
<stop offset="1"/>
</linearGradient>
<clipPath id="clip0_51_96">
<rect width="107" height="108" fill="white"/>
</clipPath>
</defs>
</svg>
